{
.appVersion = "3134";
.formatVersion = 3;
customParameters = (
{
name = glyphOrder;
value = (
.notdef,
uni0000,
space,
exclam,
quotedbl,
numbersign,
dollar,
percent,
ampersand,
quotesingle,
parenleft,
parenright,
asterisk,
plus,
comma,
hyphen,
period,
slash,
zero,
one,
two,
three,
four,
five,
six,
seven,
eight,
nine,
colon,
semicolon,
less,
equal,
greater,
question,
at,
A,
B,
C,
D,
E,
F,
G,
H,
I,
J,
K,
L,
M,
N,
O,
P,
Q,
R,
S,
T,
U,
V,
W,
X,
Y,
Z,
bracketleft,
backslash,
bracketright,
asciicircum,
underscore,
grave,
a,
b,
c,
d,
e,
f,
g,
h,
i,
j,
k,
l,
m,
n,
o,
p,
q,
r,
s,
t,
u,
v,
w,
x,
y,
z,
braceleft,
bar,
braceright,
asciitilde,
uni007F,
uni00A0,
exclamdown,
cent,
sterling,
yen,
section,
ordfeminine,
guillemotleft,
logicalnot,
degree,
plusminus,
uni00B2,
mu,
paragraph,
periodcentered,
ordmasculine,
guillemotright,
onequarter,
onehalf,
questiondown,
Adieresis,
Aring,
AE,
Ccedilla,
Eacute,
Ntilde,
Odieresis,
Udieresis,
germandbls,
agrave,
aacute,
acircumflex,
adieresis,
aring,
ae,
ccedilla,
egrave,
eacute,
ecircumflex,
edieresis,
igrave,
iacute,
icircumflex,
idieresis,
ntilde,
ograve,
oacute,
ocircumflex,
odieresis,
divide,
ugrave,
uacute,
ucircumflex,
udieresis,
ydieresis,
florin,
Gamma,
Theta,
Sigma,
Phi,
uni03A9,
alpha,
delta,
epsilon,
pi,
sigma,
tau,
phi,
bullet,
exclamdbl,
uni207F,
peseta,
arrowleft,
arrowup,
arrowright,
arrowdown,
arrowboth,
arrowupdn,
arrowupdnbse,
uni2219,
radical,
infinity,
orthogonal,
intersection,
approxequal,
equivalence,
lessequal,
greaterequal,
house,
revlogicalnot,
integraltp,
integralbt,
SF100000,
SF110000,
SF010000,
SF030000,
SF020000,
SF040000,
SF080000,
SF090000,
SF060000,
SF070000,
SF050000,
SF430000,
SF240000,
SF510000,
SF520000,
SF390000,
SF220000,
SF210000,
SF250000,
SF500000,
SF490000,
SF380000,
SF280000,
SF270000,
SF260000,
SF360000,
SF370000,
SF420000,
SF190000,
SF200000,
SF230000,
SF470000,
SF480000,
SF410000,
SF450000,
SF460000,
SF400000,
SF540000,
SF530000,
SF440000,
upblock,
dnblock,
block,
lfblock,
rtblock,
ltshade,

glyphs = (
{
glyphname = .notdef;
layers = (
{
layerId = "4ABAD10E-E2F0-4AE3-B256-BB359D6F81D7";
shapes = (
{
closed = 1;
nodes = (
(53,0,l),
(53,1066,l),
(478,1066,l),
(478,0,l)
);
},
{
closed = 1;
nodes = (
(106,53,l),
(425,53,l),
(425,1013,l),
(106,1013,l)
);
}
);
width = 900;
}
);
},
{
glyphname = exclam;
layers = (
{
layerId = "4ABAD10E-E2F0-4AE3-B256-BB359D6F81D7";
shapes = (
{
closed = 1;
nodes = (
(455,300,l),
(475,598,o),
(575,704,o),
(575,830,cs),
(575,935,o),
(506,1020,o),
(400,1020,cs),
(294,1020,o),
(225,935,o),
(225,830,cs),
(225,704,o),
(325,598,o),
(345,300,c)
);
},
{
closed = 1;
nodes = (
(288,37,o),
(338,-13,o),
(400,-13,cs),
(462,-13,o),
(513,37,o),
(513,100,cs),
(513,162,o),
(462,212,o),
(400,212,cs),
(338,212,o),
(288,162,o),
(288,100,cs)
);
}
);
width = 900;
}
);
unicode = 33;
},
{
glyphname = quotedbl;
layers = (
{
layerId = "4ABAD10E-E2F0-4AE3-B256-BB359D6F81D7";
shapes = (
{
closed = 1;
nodes = (
(100,1100,l),
(300,1100,l),
(300,700,l),
(250,700,l),
(100,850,l)
);
},
{
closed = 1;
nodes = (
(700,1100,l),
(700,850,l),
(550,700,l),
(500,700,l),
(500,1100,l)
);
}
);
width = 900;
}
);
unicode = 34;
},
{
glyphname = numbersign;
layers = (
{
layerId = "4ABAD10E-E2F0-4AE3-B256-BB359D6F81D7";
shapes = (
{
closed = 1;
nodes = (
(100,0,l),
(300,0,l),
(300,900,l),
(100,900,l)
);
},
{
closed = 1;
nodes = (
(0,200,l),
(700,200,l),
(700,300,l),
(0,300,l)
);
},
{
closed = 1;
nodes = (
(0,600,l),
(700,600,l),
(700,700,l),
(0,700,l)
);
},
{
closed = 1;
nodes = (
(400,0,l),
(600,0,l),
(600,900,l),
(400,900,l)
);
}
);
width = 900;
}
);
unicode = 35;
},
{
glyphname = dollar;
layers = (
{
layerId = "4ABAD10E-E2F0-4AE3-B256-BB359D6F81D7";
shapes = (
{
closed = 1;
nodes = (
(683,700,l),
(683,885,o),
(528,1025,o),
(322,1025,cs),
(139,1025,o),
(10,915,o),
(10,754,cs),
(10,443,o),
(488,473,o),
(488,220,cs),
(488,132,o),
(431,75,o),
(341,75,cs),
(234,75,o),
(175,155,o),
(175,300,c),
(-10,300,l),
(-10,107,o),
(135,-25,o),
(347,-25,cs),
(550,-25,o),
(688,95,o),
(688,272,cs),
(688,601,o),
(210,577,o),
(210,805,cs),
(210,877,o),
(258,925,o),
(334,925,cs),
(436,925,o),
(498,839,o),
(498,700,c)
);
},
{
closed = 1;
nodes = (
(225,975,l),
(423,975,l),
(423,1200,l),
(225,1200,l)
);
},
{
closed = 1;
nodes = (
(225,-200,l),
(423,-200,l),
(423,25,l),
(225,25,l)
);
}
);
width = 900;
}
);
unicode = 36;
},
{
glyphname = percent;
layers = (
{
layerId = "4ABAD10E-E2F0-4AE3-B256-BB359D6F81D7";
shapes = (
{
closed = 1;
nodes = (
(122,0,l),
(-23,0,l),
(632,1000,l),
(777,1000,l)
);
},
{
closed = 1;
nodes = (
(438,367,o),
(505,450,o),
(627,450,cs),
(751,450,o),
(818,367,o),
(818,218,cs),
(818,69,o),
(751,-14,o),
(627,-14,cs),
(505,-14,o),
(438,69,o),
(438,218,cs)
);
},
{
closed = 1;
nodes = (
(574,125,o),
(589,88,o),
(627,88,cs),
(666,88,o),
(681,125,o),
(681,218,cs),
(681,311,o),
(666,348,o),
(627,348,cs),
(589,348,o),
(574,311,o),
(574,218,cs)
);
},
{
closed = 1;
nodes = (
(-54,917,o),
(13,1000,o),
(135,1000,cs),
(259,1000,o),
(326,917,o),
(326,768,cs),
(326,619,o),
(259,536,o),
(135,536,cs),
(13,536,o),
(-54,619,o),
(-54,768,cs)
);
},
{
closed = 1;
nodes = (
(82,675,o),
(97,638,o),
(135,638,cs),
(174,638,o),
(189,675,o),
(189,768,cs),
(189,861,o),
(174,898,o),
(135,898,cs),
(97,898,o),
(82,861,o),
(82,768,cs)
);
}
);
width = 900;
}
);
unicode = 37;
},
{
glyphname = ampersand;
layers = (
{
layerId = "4ABAD10E-E2F0-4AE3-B256-BB359D6F81D7";
shapes = (
{
closed = 1;
nodes = (
(615,600,l),
(765,600,l),
(591,225,ls),
(516,63,o),
(395,-25,o),
(249,-25,cs),
(93,-25,o),
(0,75,o),
(0,222,cs),
(0,555,o),
(480,631,o),
(480,826,cs),
(480,884,o),
(437,924,o),
(382,924,cs),
(324,924,o),
(285,879,o),
(285,810,cs),
(285,736,o),
(331,676,o),
(386,600,cs),
(815,0,l),
(571,0,l),
(229,500,ls),
(134,639,o),
(95,720,o),
(95,800,cs),
(95,929,o),
(196,1025,o),
(343,1025,cs),
(473,1025,o),
(580,949,o),
(580,825,cs),
(580,584,o),
(175,476,o),
(175,245,cs),
(175,161,o),
(228,100,o),
(316,100,cs),
(418,100,o),
(480,181,o),
(518,300,cs)
);
}
);
width = 900;
}
);
unicode = 38;
},
{
glyphname = quotesingle;
layers = (
{
layerId = "4ABAD10E-E2F0-4AE3-B256-BB359D6F81D7";
shapes = (
{
closed = 1;
nodes = (
(200,1100,l),
(200,875,l),
(100,700,l),
(225,700,l),
(400,875,l),
(400,1100,l)
);
}
);
width = 900;
}
);
unicode = 39;
},
{
glyphname = parenleft;
layers = (
{
layerId = "4ABAD10E-E2F0-4AE3-B256-BB359D6F81D7";
shapes = (
{
closed = 1;
nodes = (
(620,1000,l),
(456,836,o),
(400,715,o),
(400,525,cs),
(400,475,ls),
(400,285,o),
(456,164,o),
(620,0,c),
(420,0,l),
(289,94,o),
(200,283,o),
(200,465,cs),
(200,535,ls),
(200,723,o),
(294,909,o),
(420,1000,c)
);
}
);
width = 900;
}
);
unicode = 40;
},
{
glyphname = parenright;
layers = (
{
layerId = "4ABAD10E-E2F0-4AE3-B256-BB359D6F81D7";
shapes = (
{
closed = 1;
nodes = (
(375,1000,l),
(501,909,o),
(595,723,o),
(595,535,cs),
(595,465,ls),
(595,283,o),
(506,94,o),
(375,0,c),
(175,0,l),
(339,164,o),
(395,285,o),
(395,475,cs),
(395,525,ls),
(395,715,o),
(339,836,o),
(175,1000,c)
);
}
);
width = 900;
}
);
unicode = 41;
},
{
glyphname = asterisk;
layers = (
{
layerId = "4ABAD10E-E2F0-4AE3-B256-BB359D6F81D7";
shapes = (
{
closed = 1;
nodes = (
(0,400,l),
(800,400,l),
(800,500,l),
(0,500,l)
);
},
{
closed = 1;
nodes = (
(100,620,l),
(700,150,l),
(700,280,l),
(100,750,l)
);
},
{
closed = 1;
nodes = (
(700,620,l),
(700,750,l),
(100,280,l),
(100,150,l)
);
},
{
closed = 1;
nodes = (
(450,100,l),
(450,800,l),
(350,800,l),
(350,100,l)
);
}
);
width = 900;
}
);
unicode = 42;
},
{
glyphname = plus;
layers = (
{
layerId = "4ABAD10E-E2F0-4AE3-B256-BB359D6F81D7";
shapes = (
{
closed = 1;
nodes = (
(100,400,l),
(700,400,l),
(700,500,l),
(100,500,l)
);
},
{
closed = 1;
nodes = (
(300,200,l),
(500,200,l),
(500,700,l),
(300,700,l)
);
}
);
width = 900;
}
);
unicode = 43;
},
{
glyphname = comma;
layers = (
{
layerId = "4ABAD10E-E2F0-4AE3-B256-BB359D6F81D7";
shapes = (
{
closed = 1;
nodes = (
(300,300,l),
(300,75,l),
(200,-100,l),
(325,-100,l),
(500,75,l),
(500,300,l)
);
}
);
width = 900;
}
);
unicode = 44;
},
{
glyphname = hyphen;
layers = (
{
layerId = "4ABAD10E-E2F0-4AE3-B256-BB359D6F81D7";
shapes = (
{
closed = 1;
nodes = (
(0,400,l),
(700,400,l),
(700,500,l),
(0,500,l)
);
}
);
width = 900;
}
);
unicode = 45;
},
{
glyphname = period;
layers = (
{
layerId = "4ABAD10E-E2F0-4AE3-B256-BB359D6F81D7";
shapes = (
{
closed = 1;
nodes = (
(288,37,o),
(338,-13,o),
(400,-13,cs),
(462,-13,o),
(513,37,o),
(513,100,cs),
(513,162,o),
(462,212,o),
(400,212,cs),
(338,212,o),
(288,162,o),
(288,100,cs)
);
}
);
width = 900;
}
);
unicode = 46;
},
{
glyphname = slash;
layers = (
{
layerId = "4ABAD10E-E2F0-4AE3-B256-BB359D6F81D7";
shapes = (
{
closed = 1;
nodes = (
(175,0,l),
(0,0,l),
(525,1000,l),
(700,1000,l)
);
}
);
width = 900;
}
);
unicode = 47;
},
{
glyphname = zero;
layers = (
{
layerId = "4ABAD10E-E2F0-4AE3-B256-BB359D6F81D7";
shapes = (
{
closed = 1;
nodes = (
(-25,132,o),
(87,-25,o),
(351,-25,cs),
(613,-25,o),
(725,132,o),
(725,500,cs),
(725,869,o),
(613,1025,o),
(351,1025,cs),
(86,1025,o),
(-25,869,o),
(-25,500,cs)
);
},
{
closed = 1;
nodes = (
(175,799,o),
(227,925,o),
(350,925,cs),
(473,925,o),
(525,799,o),
(525,500,cs),
(525,203,o),
(473,75,o),
(350,75,cs),
(227,75,o),
(175,203,o),
(175,500,cs)
);
},
{
closed = 1;
nodes = (
(265,452,o),
(303,414,o),
(350,414,cs),
(397,414,o),
(436,452,o),
(436,500,cs),
(436,547,o),
(397,585,o),
(350,585,cs),
(303,585,o),
(265,547,o),
(265,500,cs)
);
}
);
width = 900;
}
);
unicode = 48;
},
{
glyphname = one;
layers = (
{
layerId = "4ABAD10E-E2F0-4AE3-B256-BB359D6F81D7";
shapes = (
{
closed = 1;
nodes = (
(300,782,l),
(300,125,ls),
(300,111,o),
(290,100,o),
(275,100,cs),
(100,100,l),
(100,0,l),
(700,0,l),
(700,100,l),
(525,100,ls),
(511,100,o),
(500,111,o),
(500,125,cs),
(500,782,l)
);
},
{
closed = 1;
nodes = (
(100,700,l),
(500,700,l),
(500,1000,l),
(375,1000,l),
(359,873,o),
(282,800,o),
(100,800,c)
);
}
);
width = 900;
}
);
unicode = 49;
},
{
glyphname = two;
layers = (
{
layerId = "4ABAD10E-E2F0-4AE3-B256-BB359D6F81D7";
shapes = (
{
closed = 1;
nodes = (
(-1,100,l),
(-1,0,l),
(700,0,l),
(699,200,l),
(550,200,l),
(550,122,o),
(527,100,o),
(449,100,c)
);
},
{
closed = 1;
nodes = (
(200,80,l),
(200,425,o),
(681,465,o),
(681,777,cs),
(681,936,o),
(557,1025,o),
(352,1025,cs),
(132,1025,o),
(0,922,o),
(-1,750,c),
(200,750,l),
(200,864,o),
(256,925,o),
(346,925,cs),
(432,925,o),
(481,869,o),
(481,793,cs),
(481,555,o),
(0,499,o),
(0,100,c)
);
}
);
width = 900;
}
);
unicode = 50;
},
{
glyphname = three;
layers = (
{
layerId = "4ABAD10E-E2F0-4AE3-B256-BB359D6F81D7";
shapes = (
{
closed = 1;
nodes = (
(200,525,l),
(320,525,ls),
(563,525,o),
(681,615,o),
(681,776,cs),
(681,936,o),
(560,1025,o),
(349,1025,cs),
(149,1025,o),
(24,927,o),
(17,780,c),
(218,780,l),
(223,865,o),
(275,925,o),
(347,925,cs),
(435,925,o),
(481,869,o),
(481,763,cs),
(481,655,o),
(437,600,o),
(320,600,cs),
(200,600,l)
);
},
{
closed = 1;
nodes = (
(200,500,l),
(325,500,ls),
(462,500,o),
(512,429,o),
(512,288,cs),
(512,146,o),
(457,75,o),
(350,75,cs),
(267,75,o),
(206,134,o),
(196,250,c),
(-4,250,l),
(19,73,o),
(153,-25,o),
(350,-25,cs),
(582,-25,o),
(712,85,o),
(712,285,cs),
(712,485,o),
(582,595,o),
(321,595,cs),
(200,595,l)
);
}
);
width = 900;
}
);
unicode = 51;
},
{
glyphname = four;
layers = (
{
layerId = "4ABAD10E-E2F0-4AE3-B256-BB359D6F81D7";
shapes = (
{
closed = 1;
nodes = (
(400,900,l),
(400,122,ls),
(400,110,o),
(390,100,o),
(375,100,cs),
(300,100,l),
(300,0,l),
(700,0,l),
(700,100,l),
(625,100,ls),
(611,100,o),
(600,111,o),
(600,125,cs),
(600,1000,l)
);
},
{
closed = 1;
nodes = (
(0,325,l),
(750,325,l),
(750,425,l),
(125,425,l),
(575,975,l),
(600,1000,l),
(475,1000,l),
(0,425,l)
);
}
);
width = 900;
}
);
unicode = 52;
},
{
glyphname = five;
layers = (
{
layerId = "4ABAD10E-E2F0-4AE3-B256-BB359D6F81D7";
shapes = (
{
closed = 1;
nodes = (
(0,460,l),
(170,460,l),
(200,535,l),
(200,1000,l),
(0,1000,l)
);
},
{
closed = 1;
nodes = (
(100,900,l),
(700,900,l),
(700,1000,l),
(100,1000,l)
);
},
{
closed = 1;
nodes = (
(170,460,l),
(170,460,o),
(228,528,o),
(336,528,cs),
(452,528,o),
(512,450,o),
(512,298,cs),
(512,148,o),
(453,75,o),
(344,75,cs),
(252,75,o),
(199,127,o),
(186,230,c),
(-14,230,l),
(12,66,o),
(138,-25,o),
(337,-25,cs),
(571,-25,o),
(712,101,o),
(712,305,cs),
(712,503,o),
(579,636,o),
(373,636,cs),
(233,636,o),
(159,574,o),
(120,521,c)
);
}
);
width = 900;
}
);
unicode = 53;
},
{
glyphname = six;
layers = (
{
layerId = "4ABAD10E-E2F0-4AE3-B256-BB359D6F81D7";
shapes = (
{
closed = 1;
nodes = (
(-12,137,o),
(127,-14,o),
(351,-14,cs),
(583,-14,o),
(713,102,o),
(713,311,cs),
(713,521,o),
(576,636,o),
(412,636,cs),
(318,636,o),
(234,598,o),
(188,536,c),
(199,784,o),
(328,913,o),
(518,913,cs),
(576,913,o),
(610,901,o),
(610,901,c),
(610,1001,l),
(610,1001,o),
(567,1014,o),
(494,1014,cs),
(175,1014,o),
(-12,768,o),
(-12,429,cs)
);
},
{
closed = 1;
nodes = (
(201,455,o),
(253,529,o),
(357,529,cs),
(459,529,o),
(513,454,o),
(513,308,cs),
(513,161,o),
(460,86,o),
(357,86,cs),
(254,86,o),
(201,162,o),
(201,308,cs)
);
}
);
width = 900;
}
);
unicode = 54;
},
{
glyphname = seven;
layers = (
{
layerId = "4ABAD10E-E2F0-4AE3-B256-BB359D6F81D7";
shapes = (
{
closed = 1;
nodes = (
(200,0,l),
(400,0,l),
(400,185,ls),
(400,516,o),
(700,518,o),
(700,800,cs),
(700,950,l),
(500,950,l),
(500,800,ls),
(500,573,o),
(200,538,o),
(200,175,cs)
);
},
{
closed = 1;
nodes = (
(700,900,l),
(700,1000,l),
(0,1000,l),
(1,800,l),
(150,800,l),
(150,878,o),
(173,900,o),
(251,900,c)
);
}
);
width = 900;
}
);
unicode = 55;
},
{
glyphname = eight;
layers = (
{
layerId = "4ABAD10E-E2F0-4AE3-B256-BB359D6F81D7";
shapes = (
{
closed = 1;
nodes = (
(-13,87,o),
(117,-25,o),
(350,-25,cs),
(582,-25,o),
(712,86,o),
(712,286,cs),
(712,487,o),
(581,598,o),
(350,598,cs),
(115,598,o),
(-13,487,o),
(-13,286,cs)
);
},
{
closed = 1;
nodes = (
(187,432,o),
(240,504,o),
(349,504,cs),
(456,504,o),
(512,431,o),
(512,289,cs),
(512,147,o),
(457,75,o),
(350,75,cs),
(242,75,o),
(187,148,o),
(187,289,cs)
);
},
{
closed = 1;
nodes = (
(16,618,o),
(135,529,o),
(349,529,cs),
(562,529,o),
(681,617,o),
(681,777,cs),
(681,937,o),
(560,1025,o),
(349,1025,cs),
(132,1025,o),
(16,937,o),
(16,777,cs)
);
},
{
closed = 1;
nodes = (
(216,871,o),
(258,925,o),
(347,925,cs),
(435,925,o),
(481,870,o),
(481,764,cs),
(481,657,o),
(436,603,o),
(349,603,cs),
(261,603,o),
(216,658,o),
(216,764,cs)
);
}
);
width = 900;
}
);
unicode = 56;
},
{
glyphname = nine;
layers = (
{
layerId = "4ABAD10E-E2F0-4AE3-B256-BB359D6F81D7";
shapes = (
{
closed = 1;
nodes = (
(713,863,o),
(574,1014,o),
(350,1014,cs),
(118,1014,o),
(-12,898,o),
(-12,689,cs),
(-12,479,o),
(125,364,o),
(289,364,cs),
(383,364,o),
(467,402,o),
(513,464,c),
(502,216,o),
(373,87,o),
(183,87,cs),
(125,87,o),
(91,99,o),
(91,99,c),
(91,-1,l),
(91,-1,o),
(134,-14,o),
(207,-14,cs),
(526,-14,o),
(713,232,o),
(713,571,cs)
);
},
{
closed = 1;
nodes = (
(500,545,o),
(448,471,o),
(344,471,cs),
(242,471,o),
(188,546,o),
(188,692,cs),
(188,839,o),
(241,914,o),
(344,914,cs),
(447,914,o),
(500,838,o),
(500,692,cs)
);
}
);
width = 900;
}
);
unicode = 57;
},
{
glyphname = colon;
layers = (
{
layerId = "4ABAD10E-E2F0-4AE3-B256-BB359D6F81D7";
shapes = (
{
closed = 1;
nodes = (
(288,137,o),
(338,87,o),
(400,87,cs),
(462,87,o),
(513,137,o),
(513,200,cs),
(513,262,o),
(462,312,o),
(400,312,cs),
(338,312,o),
(288,262,o),
(288,200,cs)
);
},
{
closed = 1;
nodes = (
(288,637,o),
(338,587,o),
(400,587,cs),
(462,587,o),
(513,637,o),
(513,700,cs),
(513,762,o),
(462,812,o),
(400,812,cs),
(338,812,o),
(288,762,o),
(288,700,cs)
);
}
);
width = 900;
}
);
unicode = 58;
},
{
glyphname = semicolon;
layers = (
{
layerId = "4ABAD10E-E2F0-4AE3-B256-BB359D6F81D7";
shapes = (
{
closed = 1;
nodes = (
(288,637,o),
(338,587,o),
(400,587,cs),
(462,587,o),
(513,637,o),
(513,700,cs),
(513,762,o),
(462,812,o),
(400,812,cs),
(338,812,o),
(288,762,o),
(288,700,cs)
);
},
{
closed = 1;
nodes = (
(300,300,l),
(300,150,l),
(200,0,l),
(325,0,l),
(500,150,l),
(500,300,l)
);
}
);
width = 900;
}
);
unicode = 59;
},
{
glyphname = less;
layers = (
{
layerId = "4ABAD10E-E2F0-4AE3-B256-BB359D6F81D7";
shapes = (
{
closed = 1;
nodes = (
(550,900,l),
(100,450,l),
(550,0,l),
(750,0,l),
(300,450,l),
(750,900,l)
);
}
);
width = 900;
}
);
unicode = 60;
},
{
glyphname = equal;
layers = (
{
layerId = "4ABAD10E-E2F0-4AE3-B256-BB359D6F81D7";
shapes = (
{
closed = 1;
nodes = (
(100,600,l),
(700,600,l),
(700,700,l),
(100,700,l)
);
},
{
closed = 1;
nodes = (
(100,300,l),
(700,300,l),
(700,400,l),
(100,400,l)
);
}
);
width = 900;
}
);
unicode = 61;
},
{
glyphname = greater;
layers = (
{
layerId = "4ABAD10E-E2F0-4AE3-B256-BB359D6F81D7";
shapes = (
{
closed = 1;
nodes = (
(250,900,l),
(50,900,l),
(500,450,l),
(50,0,l),
(250,0,l),
(700,450,l)
);
}
);
width = 900;
}
);
unicode = 62;
},
{
glyphname = question;
layers = (
{
layerId = "4ABAD10E-E2F0-4AE3-B256-BB359D6F81D7";
shapes = (
{
closed = 1;
nodes = (
(213,37,o),
(263,-13,o),
(325,-13,cs),
(387,-13,o),
(438,37,o),
(438,100,cs),
(438,162,o),
(387,212,o),
(325,212,cs),
(263,212,o),
(213,162,o),
(213,100,cs)
);
},
{
closed = 1;
nodes = (
(180,700,l),
(180,839,o),
(249,925,o),
(366,925,cs),
(447,925,o),
(500,884,o),
(500,795,cs),
(500,592,o),
(225,632,o),
(225,300,c),
(425,300,l),
(425,600,o),
(700,518,o),
(700,758,cs),
(700,926,o),
(565,1025,o),
(370,1025,cs),
(138,1025,o),
(-5,885,o),
(-5,700,c)
);
}
);
width = 900;
}
);
unicode = 63;
},
{
glyphname = at;
layers = (
{
layerId = "4ABAD10E-E2F0-4AE3-B256-BB359D6F81D7";
shapes = (
{
closed = 1;
nodes = (
(-25,138,o),
(113,0,o),
(440,0,cs),
(600,0,l),
(600,100,l),
(440,100,ls),
(254,100,o),
(175,208,o),
(175,490,cs),
(175,718,o),
(227,825,o),
(371,825,cs),
(473,825,o),
(525,772,o),
(525,706,cs),
(525,633,o),
(463,574,o),
(323,580,c),
(323,206,l),
(577,196,o),
(725,293,o),
(725,559,cs),
(725,790,o),
(613,925,o),
(350,925,cs),
(86,925,o),
(-25,788,o),
(-25,481,cs)
);
}
);
width = 900;
}
);
unicode = 64;
},
{
glyphname = A;
layers = (
{
layerId = "4ABAD10E-E2F0-4AE3-B256-BB359D6F81D7";
shapes = (
{
closed = 1;
nodes = (
(325,1000,l),
(83,758,ls),
(35,710,o),
(0,625,o),
(0,557,cs),
(0,0,l),
(200,0,l),
(200,593,ls),
(200,640,o),
(225,700,o),
(258,733,cs),
(350,825,l),
(442,733,ls),
(475,700,o),
(500,640,o),
(500,593,cs),
(500,0,l),
(700,0,l),
(700,557,ls),
(700,625,o),
(665,710,o),
(617,758,cs),
(375,1000,l)
);
},
{
closed = 1;
nodes = (
(100,400,l),
(625,400,l),
(625,500,l),
(100,500,l)
);
}
);
width = 900;
}
);
unicode = 65;
},
{
glyphname = B;
layers = (
{
layerId = "4ABAD10E-E2F0-4AE3-B256-BB359D6F81D7";
shapes = (
{
closed = 1;
nodes = (
(300,300,l),
(300,875,ls),
(300,890,o),
(313,900,o),
(331,900,cs),
(363,900,ls),
(460,900,o),
(500,856,o),
(500,750,cs),
(500,645,o),
(459,600,o),
(360,600,cs),
(250,600,l),
(250,544,l),
(411,544,ls),
(604,544,o),
(700,620,o),
(700,772,cs),
(700,925,o),
(604,1000,o),
(407,1000,cs),
(0,1000,l),
(0,900,l),
(75,900,ls),
(89,900,o),
(100,889,o),
(100,875,cs),
(100,300,l)
);
},
{
closed = 1;
nodes = (
(300,700,l),
(100,700,l),
(100,125,ls),
(100,111,o),
(89,100,o),
(75,100,cs),
(0,100,l),
(0,0,l),
(430,0,ls),
(638,0,o),
(740,94,o),
(740,287,cs),
(740,478,o),
(635,574,o),
(425,574,cs),
(250,574,l),
(250,500,l),
(377,500,ls),
(491,500,o),
(540,440,o),
(540,300,cs),
(540,159,o),
(492,100,o),
(376,100,cs),
(337,100,ls),
(316,100,o),
(300,110,o),
(300,125,cs)
);
}
);
width = 900;
}
);
unicode = 66;
},
{
glyphname = C;
layers = (
{
layerId = "4ABAD10E-E2F0-4AE3-B256-BB359D6F81D7";
shapes = (
{
closed = 1;
nodes = (
(550,300,l),
(526,146,o),
(474,75,o),
(373,75,cs),
(239,75,o),
(175,202,o),
(175,500,cs),
(175,799,o),
(239,925,o),
(373,925,cs),
(474,925,o),
(526,854,o),
(550,700,c),
(711,700,l),
(674,922,o),
(563,1025,o),
(363,1025,cs),
(103,1025,o),
(-25,852,o),
(-25,502,cs),
(-25,150,o),
(104,-25,o),
(364,-25,cs),
(564,-25,o),
(674,78,o),
(711,300,c)
);
}
);
width = 900;
}
);
unicode = 67;
},
{
glyphname = D;
layers = (
{
layerId = "4ABAD10E-E2F0-4AE3-B256-BB359D6F81D7";
shapes = (
{
closed = 1;
nodes = (
(348,0,ls),
(619,0,o),
(735,149,o),
(735,500,cs),
(735,852,o),
(619,1000,o),
(348,1000,cs),
(0,1000,l),
(0,900,l),
(75,900,ls),
(89,900,o),
(100,889,o),
(100,875,cs),
(100,125,ls),
(100,111,o),
(90,100,o),
(75,100,cs),
(0,100,l),
(0,0,l)
);
},
{
closed = 1;
nodes = (
(328,100,ls),
(312,100,o),
(300,111,o),
(300,125,cs),
(300,875,ls),
(300,890,o),
(312,900,o),
(328,900,cs),
(342,900,ls),
(478,900,o),
(535,782,o),
(535,500,cs),
(535,220,o),
(478,100,o),
(342,100,cs)
);
}
);
width = 900;
}
);
unicode = 68;
},
{
glyphname = E;
layers = (
{
layerId = "4ABAD10E-E2F0-4AE3-B256-BB359D6F81D7";
shapes = (
{
closed = 1;
nodes = (
(300,500,l),
(376,500,ls),
(406,500,o),
(425,480,o),
(425,450,cs),
(425,400,l),
(525,400,l),
(525,700,l),
(425,700,l),
(425,650,ls),
(425,622,o),
(406,600,o),
(376,600,cs),
(300,600,l),
(300,875,ls),
(300,890,o),
(311,900,o),
(325,900,cs),
(401,900,ls),
(531,900,o),
(601,830,o),
(601,700,c),
(701,700,l),
(701,1000,l),
(1,1000,l),
(1,900,l),
(75,900,ls),
(89,900,o),
(100,889,o),
(100,875,cs),
(100,125,ls),
(100,111,o),
(90,100,o),
(75,100,cs),
(0,100,l),
(0,0,l),
(701,0,l),
(701,300,l),
(601,300,l),
(601,170,o),
(531,100,o),
(401,100,cs),
(325,100,ls),
(311,100,o),
(300,111,o),
(300,125,cs)
);
}
);
width = 900;
}
);
unicode = 69;
},
{
glyphname = F;
layers = (
{
layerId = "4ABAD10E-E2F0-4AE3-B256-BB359D6F81D7";
shapes = (
{
closed = 1;
nodes = (
(300,500,l),
(375,500,ls),
(405,500,o),
(425,480,o),
(425,450,cs),
(425,400,l),
(525,400,l),
(525,700,l),
(425,700,l),
(425,650,ls),
(425,622,o),
(405,600,o),
(375,600,cs),
(300,600,l),
(300,875,ls),
(300,890,o),
(311,900,o),
(325,900,cs),
(400,900,ls),
(530,900,o),
(600,830,o),
(600,700,c),
(700,700,l),
(700,1000,l),
(0,1000,l),
(0,900,l),
(75,900,ls),
(89,900,o),
(100,889,o),
(100,875,cs),
(100,125,ls),
(100,111,o),
(90,100,o),
(75,100,cs),
(0,100,l),
(0,0,l),
(401,0,l),
(401,100,l),
(325,100,ls),
(311,100,o),
(300,111,o),
(300,125,cs)
);
}
);
width = 900;
}
);
unicode = 70;
},
{
glyphname = G;
layers = (
{
layerId = "4ABAD10E-E2F0-4AE3-B256-BB359D6F81D7";
shapes = (
{
closed = 1;
nodes = (
(500,300,l),
(500,154,o),
(447,75,o),
(349,75,cs),
(224,75,o),
(175,202,o),
(175,478,cs),
(175,799,o),
(241,925,o),
(367,925,cs),
(468,925,o),
(533,845,o),
(550,700,c),
(711,700,l),
(674,922,o),
(563,1025,o),
(363,1025,cs),
(103,1025,o),
(-25,852,o),
(-25,483,cs),
(-25,141,o),
(85,-25,o),
(305,-25,cs),
(485,-25,o),
(575,86,o),
(575,300,c)
);
},
{
closed = 1;
nodes = (
(500,200,l),
(625,0,l),
(700,0,l),
(700,500,l),
(500,500,l)
);
},
{
closed = 1;
nodes = (
(300,400,l),
(600,400,l),
(600,500,l),
(300,500,l)
);
}
);
width = 900;
}
);
unicode = 71;
},
{
glyphname = H;
layers = (
{
layerId = "4ABAD10E-E2F0-4AE3-B256-BB359D6F81D7";
shapes = (
{
closed = 1;
nodes = (
(0,0,l),
(199,0,l),
(199,1000,l),
(0,1000,l)
);
},
{
closed = 1;
nodes = (
(100,500,l),
(600,500,l),
(600,600,l),
(100,600,l)
);
},
{
closed = 1;
nodes = (
(500,0,l),
(700,0,l),
(700,1000,l),
(500,1000,l)
);
}
);
width = 900;
}
);
unicode = 72;
},
{
glyphname = I;
layers = (
{
layerId = "4ABAD10E-E2F0-4AE3-B256-BB359D6F81D7";
shapes = (
{
closed = 1;
nodes = (
(275,900,ls),
(289,900,o),
(300,889,o),
(300,875,cs),
(300,125,ls),
(300,111,o),
(290,100,o),
(275,100,cs),
(200,100,l),
(200,0,l),
(600,0,l),
(600,100,l),
(525,100,ls),
(511,100,o),
(500,111,o),
(500,125,cs),
(500,875,ls),
(500,890,o),
(511,900,o),
(525,900,cs),
(600,900,l),
(600,1000,l),
(200,1000,l),
(200,900,l)
);
}
);
width = 900;
}
);
unicode = 73;
},
{
glyphname = J;
layers = (
{
layerId = "4ABAD10E-E2F0-4AE3-B256-BB359D6F81D7";
shapes = (
{
closed = 1;
nodes = (
(0,220,ls),
(0,61,o),
(105,-25,o),
(300,-25,cs),
(495,-25,o),
(600,61,o),
(600,220,cs),
(600,1000,l),
(400,1000,l),
(400,220,ls),
(400,114,o),
(373,75,o),
(300,75,cs),
(227,75,o),
(200,114,o),
(200,220,cs),
(200,399,l),
(0,399,l)
);
},
{
closed = 1;
nodes = (
(375,900,ls),
(389,900,o),
(400,889,o),
(400,875,cs),
(400,600,l),
(600,600,l),
(600,875,ls),
(600,890,o),
(611,900,o),
(625,900,cs),
(700,900,l),
(700,1000,l),
(300,1000,l),
(300,900,l)
);
}
);
width = 900;
}
);
unicode = 74;
},
{
glyphname = K;
layers = (
{
layerId = "4ABAD10E-E2F0-4AE3-B256-BB359D6F81D7";
shapes = (
{
closed = 1;
nodes = (
(75,900,ls),
(89,900,o),
(100,889,o),
(100,875,cs),
(100,125,ls),
(100,111,o),
(90,100,o),
(75,100,cs),
(0,100,l),
(0,0,l),
(300,0,l),
(300,1000,l),
(0,1000,l),
(0,900,l)
);
},
{
closed = 1;
nodes = (
(556,0,l),
(790,0,l),
(440,625,l),
(280,500,l)
);
},
{
closed = 1;
nodes = (
(587,1000,l),
(280,500,l),
(445,500,l),
(752,1000,l)
);
}
);
width = 900;
}
);
unicode = 75;
},
{
glyphname = L;
layers = (
{
layerId = "4ABAD10E-E2F0-4AE3-B256-BB359D6F81D7";
shapes = (
{
closed = 1;
nodes = (
(300,875,ls),
(300,890,o),
(311,900,o),
(325,900,cs),
(401,900,l),
(400,1000,l),
(1,1000,l),
(1,900,l),
(75,900,ls),
(89,900,o),
(100,889,o),
(100,875,cs),
(100,125,ls),
(100,111,o),
(90,100,o),
(75,100,cs),
(0,100,l),
(0,0,l),
(701,0,l),
(701,300,l),
(601,300,l),
(601,170,o),
(531,100,o),
(401,100,cs),
(325,100,ls),
(311,100,o),
(300,111,o),
(300,125,cs)
);
}
);
width = 900;
}
);
unicode = 76;
},
{
glyphname = M;
layers = (
{
layerId = "4ABAD10E-E2F0-4AE3-B256-BB359D6F81D7";
shapes = (
{
closed = 1;
nodes = (
(0,0,l),
(199,0,l),
(200,650,l),
(400,450,l),
(600,650,l),
(601,0,l),
(800,0,l),
(800,1000,l),
(675,1000,l),
(400,725,l),
(125,1000,l),
(0,1000,l)
);
}
);
width = 900;
}
);
unicode = 77;
},
{
glyphname = N;
layers = (
{
layerId = "4ABAD10E-E2F0-4AE3-B256-BB359D6F81D7";
shapes = (
{
closed = 1;
nodes = (
(0,0,l),
(199,0,l),
(200,650,l),
(500,350,l),
(500,0,l),
(700,0,l),
(700,1000,l),
(500,1000,l),
(500,625,l),
(125,1000,l),
(0,1000,l)
);
}
);
width = 900;
}
);
unicode = 78;
},
{
glyphname = O;
layers = (
{
layerId = "4ABAD10E-E2F0-4AE3-B256-BB359D6F81D7";
shapes = (
{
closed = 1;
nodes = (
(-25,132,o),
(87,-25,o),
(351,-25,cs),
(613,-25,o),
(725,132,o),
(725,500,cs),
(725,869,o),
(613,1025,o),
(351,1025,cs),
(86,1025,o),
(-25,869,o),
(-25,500,cs)
);
},
{
closed = 1;
nodes = (
(175,799,o),
(227,925,o),
(350,925,cs),
(473,925,o),
(525,799,o),
(525,500,cs),
(525,203,o),
(473,75,o),
(350,75,cs),
(227,75,o),
(175,203,o),
(175,500,cs)
);
}
);
width = 900;
}
);
unicode = 79;
},
{
glyphname = P;
layers = (
{
layerId = "4ABAD10E-E2F0-4AE3-B256-BB359D6F81D7";
shapes = (
{
closed = 1;
nodes = (
(0,0,l),
(400,0,l),
(400,100,l),
(325,100,ls),
(310,100,o),
(300,111,o),
(300,125,cs),
(300,875,ls),
(300,890,o),
(315,900,o),
(335,900,cs),
(371,900,ls),
(480,900,o),
(525,856,o),
(525,750,cs),
(525,645,o),
(479,600,o),
(370,600,cs),
(250,600,l),
(250,500,l),
(420,500,ls),
(623,500,o),
(725,583,o),
(725,750,cs),
(725,918,o),
(625,1000,o),
(421,1000,cs),
(0,1000,l),
(0,900,l),
(75,900,ls),
(89,900,o),
(100,889,o),
(100,875,cs),
(100,125,ls),
(100,111,o),
(90,100,o),
(75,100,cs),
(0,100,l)
);
}
);
width = 900;
}
);
unicode = 80;
},
{
glyphname = Q;
layers = (
{
layerId = "4ABAD10E-E2F0-4AE3-B256-BB359D6F81D7";
shapes = (
{
closed = 1;
nodes = (
(-25,132,o),
(87,-25,o),
(351,-25,cs),
(613,-25,o),
(725,132,o),
(725,500,cs),
(725,869,o),
(613,1025,o),
(351,1025,cs),
(86,1025,o),
(-25,869,o),
(-25,500,cs)
);
},
{
closed = 1;
nodes = (
(175,799,o),
(227,925,o),
(350,925,cs),
(473,925,o),
(525,799,o),
(525,500,cs),
(525,203,o),
(473,75,o),
(350,75,cs),
(227,75,o),
(175,203,o),
(175,500,cs)
);
},
{
closed = 1;
nodes = (
(550,-200,l),
(725,-200,l),
(425,300,l),
(250,300,l)
);
}
);
width = 900;
}
);
unicode = 81;
},
{
glyphname = R;
layers = (
{
layerId = "4ABAD10E-E2F0-4AE3-B256-BB359D6F81D7";
shapes = (
{
closed = 1;
nodes = (
(0,0,l),
(300,0,l),
(300,875,ls),
(300,890,o),
(315,900,o),
(335,900,cs),
(371,900,ls),
(480,900,o),
(525,856,o),
(525,750,cs),
(525,645,o),
(479,600,o),
(370,600,cs),
(250,600,l),
(250,500,l),
(420,500,ls),
(613,500,o),
(725,591,o),
(725,759,cs),
(725,918,o),
(625,1000,o),
(421,1000,cs),
(0,1000,l),
(0,900,l),
(75,900,ls),
(89,900,o),
(100,889,o),
(100,875,cs),
(100,125,ls),
(100,111,o),
(90,100,o),
(75,100,cs),
(0,100,l)
);
},
{
closed = 1;
nodes = (
(575,0,l),
(790,0,l),
(540,550,l),
(325,550,l)
);
}
);
width = 900;
}
);
unicode = 82;
},
{
glyphname = S;
layers = (
{
layerId = "4ABAD10E-E2F0-4AE3-B256-BB359D6F81D7";
shapes = (
{
closed = 1;
nodes = (
(683,700,l),
(683,885,o),
(528,1025,o),
(322,1025,cs),
(139,1025,o),
(10,915,o),
(10,754,cs),
(10,443,o),
(488,473,o),
(488,220,cs),
(488,132,o),
(431,75,o),
(341,75,cs),
(234,75,o),
(175,155,o),
(175,300,c),
(-10,300,l),
(-10,107,o),
(135,-25,o),
(347,-25,cs),
(550,-25,o),
(688,95,o),
(688,272,cs),
(688,601,o),
(210,577,o),
(210,805,cs),
(210,877,o),
(258,925,o),
(334,925,cs),
(436,925,o),
(498,839,o),
(498,700,c)
);
}
);
width = 900;
}
);
unicode = 83;
},
{
glyphname = T;
layers = (
{
layerId = "4ABAD10E-E2F0-4AE3-B256-BB359D6F81D7";
shapes = (
{
closed = 1;
nodes = (
(175,0,l),
(574,0,l),
(575,100,l),
(499,100,ls),
(487,100,o),
(478,107,o),
(475,118,c),
(475,900,l),
(480,900,ls),
(589,900,o),
(649,830,o),
(649,700,c),
(749,700,l),
(749,1000,l),
(0,1000,l),
(0,700,l),
(100,700,l),
(100,830,o),
(159,900,o),
(268,900,cs),
(274,900,l),
(274,118,l),
(271,107,o),
(262,100,o),
(250,100,cs),
(174,100,l)
);
}
);
width = 900;
}
);
unicode = 84;
},
{
glyphname = U;
layers = (
{
layerId = "4ABAD10E-E2F0-4AE3-B256-BB359D6F81D7";
shapes = (
{
closed = 1;
nodes = (
(0,250,ls),
(0,71,o),
(122,-25,o),
(350,-25,cs),
(578,-25,o),
(700,71,o),
(700,250,cs),
(700,1000,l),
(500,1000,l),
(500,250,ls),
(500,122,o),
(460,75,o),
(350,75,cs),
(240,75,o),
(200,122,o),
(200,250,cs),
(200,1000,l),
(0,1000,l)
);
}
);
width = 900;
}
);
unicode = 85;
},
{
glyphname = V;
layers = (
{
layerId = "4ABAD10E-E2F0-4AE3-B256-BB359D6F81D7";
shapes = (
{
closed = 1;
nodes = (
(325,0,l),
(375,0,l),
(617,242,ls),
(665,290,o),
(700,375,o),
(700,443,cs),
(700,1000,l),
(500,1000,l),
(500,407,ls),
(500,360,o),
(475,300,o),
(442,267,cs),
(350,175,l),
(258,267,ls),
(225,300,o),
(200,360,o),
(200,407,cs),
(200,1000,l),
(0,1000,l),
(0,443,ls),
(0,375,o),
(35,290,o),
(83,242,cs)
);
}
);
width = 900;
}
);
unicode = 86;
},
{
glyphname = W;
layers = (
{
layerId = "4ABAD10E-E2F0-4AE3-B256-BB359D6F81D7";
shapes = (
{
closed = 1;
nodes = (
(175,0,l),
(300,0,l),
(391,182,ls),
(417,234,o),
(425,343,o),
(425,411,cs),
(425,500,l),
(300,500,l),
(300,350,ls),
(300,319,o),
(293,281,o),
(281,259,cs),
(250,200,l),
(219,259,ls),
(207,281,o),
(200,319,o),
(200,350,cs),
(200,1000,l),
(0,1000,l),
(0,411,ls),
(0,343,o),
(29,241,o),
(59,192,cs)
);
},
{
closed = 1;
nodes = (
(625,0,l),
(741,192,ls),
(771,241,o),
(800,343,o),
(800,411,cs),
(800,1000,l),
(600,1000,l),
(600,350,ls),
(600,319,o),
(593,281,o),
(581,259,cs),
(550,200,l),
(519,259,ls),
(507,281,o),
(500,319,o),
(500,350,cs),
(500,500,l),
(375,500,l),
(375,411,ls),
(375,343,o),
(383,234,o),
(409,182,cs),
(500,0,l)
);
}
);
width = 900;
}
);
unicode = 87;
},
{
glyphname = X;
layers = (
{
layerId = "4ABAD10E-E2F0-4AE3-B256-BB359D6F81D7";
shapes = (
{
closed = 1;
nodes = (
(481,502,l),
(617,627,ls),
(664,670,o),
(700,749,o),
(700,819,cs),
(700,1000,l),
(500,1000,l),
(500,794,ls),
(500,744,o),
(475,695,o),
(442,668,cs),
(350,595,l),
(258,668,ls),
(225,695,o),
(200,744,o),
(200,794,cs),
(200,1000,l),
(0,1000,l),
(0,819,ls),
(0,749,o),
(36,670,o),
(83,627,c),
(219,502,l)
);
},
{
closed = 1;
nodes = (
(248,557,l),
(83,405,ls),
(36,362,o),
(0,283,o),
(0,213,cs),
(0,0,l),
(200,0,l),
(200,229,ls),
(200,279,o),
(225,328,o),
(258,355,cs),
(350,428,l),
(442,355,ls),
(475,328,o),
(500,279,o),
(500,229,cs),
(500,0,l),
(700,0,l),
(700,213,ls),
(700,283,o),
(664,362,o),
(617,405,cs),
(452,557,l),
(350,530,l)
);
}
);
width = 900;
}
);
unicode = 88;
},
{
glyphname = Y;
layers = (
{
layerId = "4ABAD10E-E2F0-4AE3-B256-BB359D6F81D7";
shapes = (
{
closed = 1;
nodes = (
(250,550,l),
(250,125,ls),
(250,111,o),
(240,100,o),
(225,100,cs),
(150,100,l),
(150,0,l),
(550,0,l),
(550,100,l),
(475,100,ls),
(461,100,o),
(450,111,o),
(450,125,cs),
(450,550,l)
);
},
{
closed = 1;
nodes = (
(325,377,l),
(375,377,l),
(617,600,ls),
(664,643,o),
(700,722,o),
(700,792,cs),
(700,1000,l),
(500,1000,l),
(500,751,ls),
(500,701,o),
(475,652,o),
(442,625,cs),
(350,552,l),
(258,625,ls),
(225,652,o),
(200,701,o),
(200,751,cs),
(200,1000,l),
(0,1000,l),
(0,792,ls),
(0,722,o),
(36,643,o),
(83,600,cs)
);
}
);
width = 900;
}
);
unicode = 89;
},
{
glyphname = Z;
layers = (
{
layerId = "4ABAD10E-E2F0-4AE3-B256-BB359D6F81D7";
shapes = (
{
closed = 1;
nodes = (
(0,100,l),
(0,0,l),
(701,0,l),
(701,300,l),
(601,300,l),
(601,170,o),
(531,100,o),
(401,100,c)
);
},
{
closed = 1;
nodes = (
(700,900,l),
(700,1000,l),
(-1,1000,l),
(-1,700,l),
(99,700,l),
(99,830,o),
(169,900,o),
(299,900,c)
);
},
{
closed = 1;
nodes = (
(0,100,l),
(200,60,l),
(700,900,l),
(500,940,l)
);
}
);
width = 900;
}
);
unicode = 90;
},
{
glyphname = bracketleft;
layers = (
{
layerId = "4ABAD10E-E2F0-4AE3-B256-BB359D6F81D7";
shapes = (
{
closed = 1;
nodes = (
(200,0,l),
(400,0,l),
(400,1000,l),
(200,1000,l)
);
},
{
closed = 1;
nodes = (
(275,900,l),
(600,900,l),
(600,1000,l),
(275,1000,l)
);
},
{
closed = 1;
nodes = (
(275,0,l),
(600,0,l),
(600,100,l),
(275,100,l)
);
}
);
width = 900;
}
);
unicode = 91;
},
{
glyphname = backslash;
layers = (
{
layerId = "4ABAD10E-E2F0-4AE3-B256-BB359D6F81D7";
shapes = (
{
closed = 1;
nodes = (
(525,0,l),
(0,1000,l),
(175,1000,l),
(700,0,l)
);
}
);
width = 900;
}
);
unicode = 92;
},
{
glyphname = bracketright;
layers = (
{
layerId = "4ABAD10E-E2F0-4AE3-B256-BB359D6F81D7";
shapes = (
{
closed = 1;
nodes = (
(600,0,l),
(600,1000,l),
(400,1000,l),
(400,0,l)
);
},
{
closed = 1;
nodes = (
(525,900,l),
(525,1000,l),
(200,1000,l),
(200,900,l)
);
},
{
closed = 1;
nodes = (
(525,0,l),
(525,100,l),
(200,100,l),
(200,0,l)
);
}
);
width = 900;
}
);
unicode = 93;
},
{
glyphname = asciicircum;
layers = (
{
layerId = "4ABAD10E-E2F0-4AE3-B256-BB359D6F81D7";
shapes = (
{
closed = 1;
nodes = (
(425,1100,l),
(650,800,l),
(510,800,l),
(350,1025,l),
(190,800,l),
(50,800,l),
(275,1100,l)
);
}
);
width = 900;
}
);
unicode = 94;
},
{
glyphname = underscore;
layers = (
{
layerId = "4ABAD10E-E2F0-4AE3-B256-BB359D6F81D7";
shapes = (
{
closed = 1;
nodes = (
(800,-200,l),
(800,-100,l),
(0,-100,l),
(0,-200,l)
);
}
);
width = 900;
}
);
unicode = 95;
},
{
glyphname = grave;
layers = (
{
layerId = "4ABAD10E-E2F0-4AE3-B256-BB359D6F81D7";
shapes = (
{
closed = 1;
nodes = (
(375,900,l),
(525,900,l),
(325,1200,l),
(175,1200,l)
);
}
);
width = 900;
}
);
unicode = 96;
},
{
glyphname = a;
layers = (
{
layerId = "4ABAD10E-E2F0-4AE3-B256-BB359D6F81D7";
shapes = (
{
closed = 1;
nodes = (
(100,575,l),
(100,575,o),
(173,625,o),
(271,625,cs),
(357,625,o),
(400,587,o),
(400,495,cs),
(400,255,l),
(400,144,l),
(500,0,l),
(700,0,l),
(700,100,l),
(625,100,ls),
(611,100,o),
(600,111,o),
(600,125,cs),
(600,485,ls),
(600,629,o),
(487,725,o),
(320,725,cs),
(200,725,o),
(100,675,o),
(100,675,c)
);
},
{
closed = 1;
nodes = (
(425,489,l),
(272,466,ls),
(70,436,o),
(-8,351,o),
(-8,219,cs),
(-8,72,o),
(88,-25,o),
(230,-25,cs),
(371,-25,o),
(475,70,o),
(475,200,c),
(400,200,l),
(400,128,o),
(353,75,o),
(288,75,cs),
(221,75,o),
(178,133,o),
(178,221,cs),
(178,310,o),
(222,365,o),
(316,381,cs),
(425,399,l)
);
}
);
width = 900;
}
);
unicode = 97;
},
{
glyphname = b;
layers = (
{
layerId = "4ABAD10E-E2F0-4AE3-B256-BB359D6F81D7";
shapes = (
{
closed = 1;
nodes = (
(75,900,ls),
(89,900,o),
(100,889,o),
(100,875,cs),
(100,0,l),
(220,0,l),
(275,100,l),
(300,100,l),
(300,129,l),
(290,154,l),
(290,600,l),
(300,625,l),
(300,1000,l),
(0,1000,l),
(0,900,l)
);
},
{
closed = 1;
nodes = (
(219,110,o),
(310,-25,o),
(471,-25,cs),
(631,-25,o),
(722,109,o),
(722,350,cs),
(722,592,o),
(631,725,o),
(471,725,cs),
(308,725,o),
(219,592,o),
(219,350,cs)
);
},
{
closed = 1;
nodes = (
(290,525,o),
(328,615,o),
(405,615,cs),
(480,615,o),
(522,524,o),
(522,350,cs),
(522,176,o),
(482,85,o),
(407,85,cs),
(330,85,o),
(290,177,o),
(290,350,cs)
);
}
);
width = 900;
}
);
unicode = 98;
},
{
glyphname = c;
layers = (
{
layerId = "4ABAD10E-E2F0-4AE3-B256-BB359D6F81D7";
shapes = (
{
closed = 1;
nodes = (
(533,200,l),
(506,117,o),
(452,75,o),
(371,75,cs),
(250,75,o),
(188,169,o),
(188,353,cs),
(188,534,o),
(248,625,o),
(369,625,cs),
(451,625,o),
(506,583,o),
(533,500,c),
(692,500,l),
(647,646,o),
(528,725,o),
(349,725,cs),
(116,725,o),
(-12,592,o),
(-12,352,cs),
(-12,110,o),
(118,-25,o),
(351,-25,cs),
(528,-25,o),
(647,53,o),
(692,200,c)
);
}
);
width = 900;
}
);
unicode = 99;
},
{
glyphname = d;
layers = (
{
layerId = "4ABAD10E-E2F0-4AE3-B256-BB359D6F81D7";
shapes = (
{
closed = 1;
nodes = (
(450,0,l),
(700,0,l),
(700,100,l),
(625,100,ls),
(611,100,o),
(600,111,o),
(600,125,cs),
(600,1000,l),
(300,1000,l),
(300,900,l),
(375,900,ls),
(389,900,o),
(400,889,o),
(400,875,cs),
(400,625,l),
(410,600,l),
(410,154,l),
(421,129,l)
);
},
{
closed = 1;
nodes = (
(481,592,o),
(392,725,o),
(229,725,cs),
(69,725,o),
(-22,592,o),
(-22,350,cs),
(-22,109,o),
(69,-25,o),
(229,-25,cs),
(390,-25,o),
(481,110,o),
(481,350,cs)
);
},
{
closed = 1;
nodes = (
(410,177,o),
(370,85,o),
(293,85,cs),
(218,85,o),
(178,176,o),
(178,350,cs),
(178,524,o),
(220,615,o),
(295,615,cs),
(372,615,o),
(410,525,o),
(410,350,cs)
);
}
);
width = 900;
}
);
unicode = 100;
},
{
glyphname = e;
layers = (
{
layerId = "4ABAD10E-E2F0-4AE3-B256-BB359D6F81D7";
shapes = (
{
closed = 1;
nodes = (
(565,200,l),
(541,111,o),
(482,65,o),
(391,65,cs),
(256,65,o),
(188,165,o),
(188,364,cs),
(188,543,o),
(243,635,o),
(350,635,cs),
(456,635,o),
(511,544,o),
(511,370,c),
(711,370,l),
(711,594,o),
(577,725,o),
(347,725,cs),
(116,725,o),
(-12,592,o),
(-12,352,cs),
(-12,110,o),
(118,-25,o),
(351,-25,cs),
(528,-25,o),
(647,53,o),
(692,200,c)
);
},
{
closed = 1;
nodes = (
(136,370,l),
(600,370,l),
(600,465,l),
(136,465,l)
);
}
);
width = 900;
}
);
unicode = 101;
},
{
glyphname = f;
layers = (
{
layerId = "4ABAD10E-E2F0-4AE3-B256-BB359D6F81D7";
shapes = (
{
closed = 1;
nodes = (
(100,675,ls),
(100,657,o),
(93,650,o),
(75,650,cs),
(0,650,l),
(0,550,l),
(100,550,l),
(100,125,ls),
(100,111,o),
(89,100,o),
(75,100,cs),
(0,100,l),
(0,0,l),
(400,0,l),
(400,100,l),
(325,100,ls),
(311,100,o),
(300,111,o),
(300,125,cs),
(300,550,l),
(450,550,l),
(450,650,l),
(300,650,l),
(300,790,ls),
(300,882,o),
(335,925,o),
(390,925,cs),
(445,925,o),
(475,880,o),
(475,775,c),
(625,775,l),
(625,932,o),
(515,1025,o),
(363,1025,cs),
(208,1025,o),
(100,923,o),
(100,748,cs)
);
}
);
width = 900;
}
);
unicode = 102;
},
{
glyphname = g;
layers = (
{
layerId = "4ABAD10E-E2F0-4AE3-B256-BB359D6F81D7";
shapes = (
{
closed = 1;
nodes = (
(4,-100,l),
(41,-236,o),
(135,-310,o),
(296,-310,cs),
(482,-310,o),
(600,-212,o),
(600,-60,cs),
(600,575,ls),
(600,589,o),
(611,600,o),
(625,600,cs),
(700,600,l),
(700,700,l),
(500,700,l),
(410,546,l),
(410,150,l),
(400,125,l),
(400,-60,ls),
(400,-157,o),
(366,-210,o),
(283,-210,cs),
(215,-210,o),
(169,-174,o),
(149,-100,c)
);
},
{
closed = 1;
nodes = (
(495,398,l),
(495,609,o),
(402,725,o),
(241,725,cs),
(69,725,o),
(-22,594,o),
(-22,360,cs),
(-22,125,o),
(69,-5,o),
(229,-5,cs),
(386,-5,o),
(475,114,o),
(481,333,c)
);
},
{
closed = 1;
nodes = (
(410,191,o),
(372,105,o),
(295,105,cs),
(220,105,o),
(178,192,o),
(178,360,cs),
(178,528,o),
(218,615,o),
(293,615,cs),
(370,615,o),
(410,527,o),
(410,360,cs)
);
}
);
width = 900;
}
);
unicode = 103;
},
{
glyphname = h;
layers = (
{
layerId = "4ABAD10E-E2F0-4AE3-B256-BB359D6F81D7";
shapes = (
{
closed = 1;
nodes = (
(75,900,ls),
(89,900,o),
(100,889,o),
(100,875,cs),
(100,125,ls),
(100,111,o),
(90,100,o),
(75,100,cs),
(0,100,l),
(0,0,l),
(300,0,l),
(300,1000,l),
(0,1000,l),
(0,900,l)
);
},
{
closed = 1;
nodes = (
(300,475,l),
(300,551,o),
(340,600,o),
(400,600,cs),
(463,600,o),
(500,553,o),
(500,475,cs),
(500,0,l),
(700,0,l),
(700,500,ls),
(700,625,o),
(597,725,o),
(473,725,cs),
(353,725,o),
(250,631,o),
(250,475,c)
);
}
);
width = 900;
}
);
unicode = 104;
},
{
glyphname = i;
layers = (
{
layerId = "4ABAD10E-E2F0-4AE3-B256-BB359D6F81D7";
shapes = (
{
closed = 1;
nodes = (
(275,600,ls),
(289,600,o),
(300,589,o),
(300,575,cs),
(300,125,ls),
(300,111,o),
(290,100,o),
(275,100,cs),
(200,100,l),
(200,0,l),
(600,0,l),
(600,100,l),
(525,100,ls),
(511,100,o),
(500,111,o),
(500,125,cs),
(500,700,l),
(200,700,l),
(200,600,l)
);
},
{
closed = 1;
nodes = (
(288,837,o),
(338,787,o),
(400,787,cs),
(462,787,o),
(513,837,o),
(513,900,cs),
(513,962,o),
(462,1012,o),
(400,1012,cs),
(338,1012,o),
(288,962,o),
(288,900,cs)
);
}
);
width = 900;
}
);
unicode = 105;
},
{
glyphname = j;
layers = (
{
layerId = "4ABAD10E-E2F0-4AE3-B256-BB359D6F81D7";
shapes = (
{
closed = 1;
nodes = (
(475,600,ls),
(489,600,o),
(500,589,o),
(500,576,cs),
(500,-60,ls),
(500,-168,o),
(463,-225,o),
(388,-225,cs),
(312,-225,o),
(275,-170,o),
(275,-60,cs),
(275,0,l),
(125,0,l),
(125,-60,ls),
(125,-230,o),
(236,-325,o),
(413,-325,cs),
(592,-325,o),
(700,-232,o),
(700,-60,cs),
(700,700,l),
(400,700,l),
(400,600,l)
);
},
{
closed = 1;
nodes = (
(488,837,o),
(538,787,o),
(600,787,cs),
(662,787,o),
(713,837,o),
(713,900,cs),
(713,962,o),
(662,1012,o),
(600,1012,cs),
(538,1012,o),
(488,962,o),
(488,900,cs)
);
}
);
width = 900;
}
);
unicode = 106;
},
{
glyphname = k;
layers = (
{
layerId = "4ABAD10E-E2F0-4AE3-B256-BB359D6F81D7";
shapes = (
{
closed = 1;
nodes = (
(75,900,ls),
(89,900,o),
(100,889,o),
(100,875,cs),
(100,125,ls),
(100,111,o),
(90,100,o),
(75,100,cs),
(0,100,l),
(0,0,l),
(300,0,l),
(300,1000,l),
(0,1000,l),
(0,900,l)
);
},
{
closed = 1;
nodes = (
(536,0,l),
(790,0,l),
(460,468,l),
(280,380,l)
);
},
{
closed = 1;
nodes = (
(567,700,l),
(280,380,l),
(465,380,l),
(752,700,l)
);
}
);
width = 900;
}
);
unicode = 107;
},
{
glyphname = l;
layers = (
{
layerId = "4ABAD10E-E2F0-4AE3-B256-BB359D6F81D7";
shapes = (
{
closed = 1;
nodes = (
(275,900,ls),
(289,900,o),
(300,889,o),
(300,875,cs),
(300,125,ls),
(300,111,o),
(290,100,o),
(275,100,cs),
(200,100,l),
(200,0,l),
(600,0,l),
(600,100,l),
(525,100,ls),
(511,100,o),
(500,111,o),
(500,125,cs),
(500,1000,l),
(200,1000,l),
(200,900,l)
);
}
);
width = 900;
}
);
unicode = 108;
},
{
glyphname = m;
layers = (
{
layerId = "4ABAD10E-E2F0-4AE3-B256-BB359D6F81D7";
shapes = (
{
closed = 1;
nodes = (
(0,571,l),
(0,0,l),
(175,0,l),
(175,574,l),
(88,700,l),
(0,700,l)
);
},
{
closed = 1;
nodes = (
(175,525,l),
(175,571,o),
(203,600,o),
(245,600,cs),
(288,600,o),
(313,572,o),
(313,525,cs),
(313,0,l),
(487,0,l),
(487,525,ls),
(487,636,o),
(404,725,o),
(302,725,cs),
(208,725,o),
(125,650,o),
(125,525,c)
);
},
{
closed = 1;
nodes = (
(487,525,l),
(487,571,o),
(515,600,o),
(557,600,cs),
(601,600,o),
(625,572,o),
(625,525,cs),
(625,0,l),
(800,0,l),
(800,525,ls),
(800,644,o),
(725,725,o),
(616,725,cs),
(511,725,o),
(425,650,o),
(425,525,c)
);
}
);
width = 900;
}
);
unicode = 109;
},
{
glyphname = n;
layers = (
{
layerId = "4ABAD10E-E2F0-4AE3-B256-BB359D6F81D7";
shapes = (
{
closed = 1;
nodes = (
(75,600,ls),
(89,600,o),
(100,587,o),
(100,571,cs),
(100,0,l),
(300,0,l),
(300,574,l),
(275,590,l),
(200,700,l),
(0,700,l),
(0,600,l)
);
},
{
closed = 1;
nodes = (
(300,475,l),
(300,551,o),
(340,600,o),
(400,600,cs),
(463,600,o),
(500,553,o),
(500,475,cs),
(500,0,l),
(700,0,l),
(700,500,ls),
(700,625,o),
(591,725,o),
(461,725,cs),
(334,725,o),
(225,631,o),
(225,475,c)
);
}
);
width = 900;
}
);
unicode = 110;
},
{
glyphname = o;
layers = (
{
layerId = "4ABAD10E-E2F0-4AE3-B256-BB359D6F81D7";
shapes = (
{
closed = 1;
nodes = (
(-12,110,o),
(118,-25,o),
(351,-25,cs),
(583,-25,o),
(713,109,o),
(713,350,cs),
(713,592,o),
(582,725,o),
(351,725,cs),
(116,725,o),
(-12,592,o),
(-12,350,cs)
);
},
{
closed = 1;
nodes = (
(188,533,o),
(241,625,o),
(350,625,cs),
(457,625,o),
(513,532,o),
(513,350,cs),
(513,168,o),
(458,75,o),
(351,75,cs),
(243,75,o),
(188,169,o),
(188,350,cs)
);
}
);
width = 900;
}
);
unicode = 111;
},
{
glyphname = p;
layers = (
{
layerId = "4ABAD10E-E2F0-4AE3-B256-BB359D6F81D7";
shapes = (
{
closed = 1;
nodes = (
(0,-300,l),
(400,-300,l),
(400,-200,l),
(325,-200,ls),
(311,-200,o),
(300,-189,o),
(300,-175,cs),
(300,75,l),
(290,100,l),
(290,546,l),
(279,571,l),
(250,700,l),
(0,700,l),
(0,600,l),
(75,600,ls),
(89,600,o),
(100,589,o),
(100,575,cs),
(100,-175,ls),
(100,-189,o),
(89,-200,o),
(75,-200,cs),
(0,-200,l)
);
},
{
closed = 1;
nodes = (
(219,108,o),
(308,-25,o),
(471,-25,cs),
(631,-25,o),
(722,108,o),
(722,350,cs),
(722,591,o),
(631,725,o),
(471,725,cs),
(310,725,o),
(219,590,o),
(219,350,cs)
);
},
{
closed = 1;
nodes = (
(290,523,o),
(330,615,o),
(407,615,cs),
(482,615,o),
(522,524,o),
(522,350,cs),
(522,176,o),
(480,85,o),
(405,85,cs),
(328,85,o),
(290,175,o),
(290,350,cs)
);
}
);
width = 900;
}
);
unicode = 112;
},
{
glyphname = q;
layers = (
{
layerId = "4ABAD10E-E2F0-4AE3-B256-BB359D6F81D7";
shapes = (
{
closed = 1;
nodes = (
(700,-300,l),
(700,-200,l),
(625,-200,ls),
(611,-200,o),
(600,-189,o),
(600,-175,cs),
(600,575,ls),
(600,589,o),
(611,600,o),
(625,600,cs),
(700,600,l),
(700,700,l),
(500,700,l),
(410,546,l),
(410,100,l),
(400,75,l),
(400,-175,ls),
(400,-189,o),
(389,-200,o),
(375,-200,cs),
(300,-200,l),
(300,-300,l)
);
},
{
closed = 1;
nodes = (
(495,389,l),
(495,606,o),
(402,725,o),
(240,725,cs),
(69,725,o),
(-22,591,o),
(-22,350,cs),
(-22,108,o),
(69,-25,o),
(229,-25,cs),
(386,-25,o),
(475,98,o),
(481,323,c)
);
},
{
closed = 1;
nodes = (
(410,175,o),
(372,85,o),
(295,85,cs),
(220,85,o),
(178,176,o),
(178,350,cs),
(178,524,o),
(218,615,o),
(293,615,cs),
(370,615,o),
(410,523,o),
(410,350,cs)
);
}
);
width = 900;
}
);
unicode = 113;
},
{
glyphname = r;
layers = (
{
layerId = "4ABAD10E-E2F0-4AE3-B256-BB359D6F81D7";
shapes = (
{
closed = 1;
nodes = (
(75,600,ls),
(89,600,o),
(100,587,o),
(100,571,cs),
(100,125,ls),
(100,111,o),
(90,100,o),
(75,100,cs),
(0,100,l),
(0,0,l),
(400,0,l),
(400,100,l),
(325,100,ls),
(311,100,o),
(300,111,o),
(300,125,cs),
(300,574,l),
(295,590,l),
(220,700,l),
(0,700,l),
(0,600,l)
);
},
{
closed = 1;
nodes = (
(300,325,l),
(300,500,ls),
(300,580,o),
(338,625,o),
(404,625,cs),
(468,625,o),
(500,576,o),
(500,477,cs),
(500,425,l),
(700,425,l),
(700,477,ls),
(700,637,o),
(610,725,o),
(470,725,cs),
(325,725,o),
(240,641,o),
(240,477,c)
);
}
);
width = 900;
}
);
unicode = 114;
},
{
glyphname = s;
layers = (
{
layerId = "4ABAD10E-E2F0-4AE3-B256-BB359D6F81D7";
shapes = (
{
closed = 1;
nodes = (
(0,200,l),
(19,76,o),
(154,-25,o),
(362,-25,cs),
(557,-25,o),
(686,64,o),
(686,216,cs),
(686,319,o),
(627,378,o),
(472,415,cs),
(295,457,ls),
(242,470,o),
(210,498,o),
(210,538,cs),
(210,591,o),
(268,625,o),
(340,625,cs),
(435,625,o),
(488,567,o),
(500,500,c),
(685,500,l),
(658,618,o),
(514,724,o),
(320,724,cs),
(141,724,o),
(10,633,o),
(10,501,cs),
(10,406,o),
(77,343,o),
(214,307,cs),
(402,258,ls),
(450,245,o),
(478,212,o),
(478,167,cs),
(478,113,o),
(437,75,o),
(357,75,cs),
(259,75,o),
(197,131,o),
(187,200,c)
);
}
);
width = 900;
}
);
unicode = 115;
},
{
glyphname = t;
layers = (
{
layerId = "4ABAD10E-E2F0-4AE3-B256-BB359D6F81D7";
shapes = (
{
closed = 1;
nodes = (
(286,900,ls),
(286,760,o),
(233,700,o),
(111,700,c),
(0,700,l),
(0,600,l),
(200,600,l),
(200,210,ls),
(200,58,o),
(294,-25,o),
(450,-25,cs),
(603,-25,o),
(700,59,o),
(700,210,cs),
(700,250,l),
(550,250,l),
(550,190,ls),
(550,113,o),
(525,75,o),
(475,75,cs),
(425,75,o),
(400,114,o),
(400,190,cs),
(400,600,l),
(600,600,l),
(600,700,l),
(400,700,l),
(400,1000,l),
(286,1000,l)
);
}
);
width = 900;
}
);
unicode = 116;
},
{
glyphname = u;
layers = (
{
layerId = "4ABAD10E-E2F0-4AE3-B256-BB359D6F81D7";
shapes = (
{
closed = 1;
nodes = (
(625,100,ls),
(611,100,o),
(600,113,o),
(600,129,cs),
(600,700,l),
(400,700,l),
(400,126,l),
(425,110,l),
(500,0,l),
(700,0,l),
(700,100,l)
);
},
{
closed = 1;
nodes = (
(400,225,l),
(400,149,o),
(360,100,o),
(300,100,cs),
(237,100,o),
(200,147,o),
(200,225,cs),
(200,700,l),
(0,700,l),
(0,200,ls),
(0,69,o),
(102,-25,o),
(234,-25,cs),
(366,-25,o),
(475,69,o),
(475,225,c)
);
}
);
width = 900;
}
);
unicode = 117;
},
{
glyphname = v;
layers = (
{
layerId = "4ABAD10E-E2F0-4AE3-B256-BB359D6F81D7";
shapes = (
{
closed = 1;
nodes = (
(325,0,l),
(375,0,l),
(617,242,ls),
(665,290,o),
(700,375,o),
(700,443,cs),
(700,700,l),
(500,700,l),
(500,407,ls),
(500,360,o),
(475,300,o),
(442,267,cs),
(350,175,l),
(258,267,ls),
(225,300,o),
(200,360,o),
(200,407,cs),
(200,700,l),
(0,700,l),
(0,443,ls),
(0,375,o),
(35,290,o),
(83,242,cs)
);
}
);
width = 900;
}
);
unicode = 118;
},
{
glyphname = w;
layers = (
{
layerId = "4ABAD10E-E2F0-4AE3-B256-BB359D6F81D7";
shapes = (
{
closed = 1;
nodes = (
(175,0,l),
(300,0,l),
(391,182,ls),
(417,234,o),
(425,268,o),
(425,336,cs),
(425,500,l),
(300,500,l),
(300,325,ls),
(300,294,o),
(293,256,o),
(281,234,cs),
(250,175,l),
(219,234,ls),
(207,256,o),
(200,294,o),
(200,325,cs),
(200,700,l),
(0,700,l),
(0,411,ls),
(0,343,o),
(29,241,o),
(59,192,cs)
);
},
{
closed = 1;
nodes = (
(625,0,l),
(741,192,ls),
(771,241,o),
(800,343,o),
(800,411,cs),
(800,700,l),
(600,700,l),
(600,325,ls),
(600,294,o),
(593,256,o),
(581,234,cs),
(550,175,l),
(519,234,ls),
(507,256,o),
(500,294,o),
(500,325,cs),
(500,500,l),
(375,500,l),
(375,336,ls),
(375,268,o),
(383,234,o),
(409,182,cs),
(500,0,l)
);
}
);
width = 900;
}
);
unicode = 119;
},
{
glyphname = x;
layers = (
{
layerId = "4ABAD10E-E2F0-4AE3-B256-BB359D6F81D7";
shapes = (
{
closed = 1;
nodes = (
(150,0,l),
(750,700,l),
(590,700,l),
(0,0,l)
);
},
{
closed = 1;
nodes = (
(510,0,l),
(750,0,l),
(240,700,l),
(0,700,l)
);
}
);
width = 900;
}
);
unicode = 120;
},
{
glyphname = y;
layers = (
{
layerId = "4ABAD10E-E2F0-4AE3-B256-BB359D6F81D7";
shapes = (
{
closed = 1;
nodes = (
(50,-290,l),
(50,-290,o),
(160,-325,o),
(299,-325,cs),
(553,-325,o),
(700,-209,o),
(700,-35,cs),
(700,700,l),
(500,700,l),
(500,-35,ls),
(500,-173,o),
(436,-225,o),
(276,-225,cs),
(140,-225,o),
(50,-187,o),
(50,-187,c)
);
},
{
closed = 1;
nodes = (
(500,275,l),
(500,169,o),
(440,100,o),
(350,100,cs),
(256,100,o),
(200,166,o),
(200,275,cs),
(200,700,l),
(0,700,l),
(0,250,ls),
(0,90,o),
(123,-25,o),
(284,-25,cs),
(443,-25,o),
(575,88,o),
(575,275,c)
);
}
);
width = 900;
}
);
unicode = 121;
},
{
glyphname = z;
layers = (
{
layerId = "4ABAD10E-E2F0-4AE3-B256-BB359D6F81D7";
shapes = (
{
closed = 1;
nodes = (
(0,100,l),
(0,0,l),
(701,0,l),
(700,250,l),
(601,250,l),
(601,153,o),
(549,100,o),
(451,100,c)
);
},
{
closed = 1;
nodes = (
(700,600,l),
(700,700,l),
(-1,700,l),
(0,450,l),
(99,450,l),
(99,548,o),
(152,600,o),
(249,600,c)
);
},
{
closed = 1;
nodes = (
(0,100,l),
(200,50,l),
(700,600,l),
(500,650,l)
);
}
);
width = 900;
}
);
unicode = 122;
},
{
glyphname = braceleft;
layers = (
{
layerId = "4ABAD10E-E2F0-4AE3-B256-BB359D6F81D7";
shapes = (
{
closed = 1;
nodes = (
(500,833,ls),
(500,872,o),
(528,900,o),
(567,900,cs),
(700,900,l),
(700,1000,l),
(463,1000,ls),
(368,1000,o),
(300,932,o),
(300,837,cs),
(300,617,ls),
(300,578,o),
(272,550,o),
(233,550,cs),
(100,550,l),
(100,490,l),
(375,492,l),
(448,492,o),
(500,544,o),
(500,617,c)
);
},
{
closed = 1;
nodes = (
(500,383,l),
(500,456,o),
(448,508,o),
(375,508,c),
(100,510,l),
(100,450,l),
(233,450,ls),
(272,450,o),
(300,422,o),
(300,383,cs),
(300,163,ls),
(300,68,o),
(368,0,o),
(463,0,cs),
(700,0,l),
(700,100,l),
(567,100,ls),
(528,100,o),
(500,128,o),
(500,167,cs)
);
}
);
width = 900;
}
);
unicode = 123;
},
{
glyphname = bar;
layers = (
{
layerId = "4ABAD10E-E2F0-4AE3-B256-BB359D6F81D7";
shapes = (
{
closed = 1;
nodes = (
(300,600,l),
(500,600,l),
(500,1000,l),
(300,1000,l)
);
},
{
closed = 1;
nodes = (
(300,0,l),
(500,0,l),
(500,500,l),
(300,500,l)
);
}
);
width = 900;
}
);
unicode = 124;
},
{
glyphname = braceright;
layers = (
{
layerId = "4ABAD10E-E2F0-4AE3-B256-BB359D6F81D7";
shapes = (
{
closed = 1;
nodes = (
(300,617,l),
(300,544,o),
(352,492,o),
(425,492,c),
(700,490,l),
(700,550,l),
(567,550,ls),
(528,550,o),
(500,578,o),
(500,617,cs),
(500,837,ls),
(500,932,o),
(432,1000,o),
(337,1000,cs),
(100,1000,l),
(100,900,l),
(233,900,ls),
(272,900,o),
(300,872,o),
(300,833,cs)
);
},
{
closed = 1;
nodes = (
(300,167,ls),
(300,128,o),
(272,100,o),
(233,100,cs),
(100,100,l),
(100,0,l),
(337,0,ls),
(432,0,o),
(500,68,o),
(500,163,cs),
(500,383,ls),
(500,422,o),
(528,450,o),
(567,450,cs),
(700,450,l),
(700,510,l),
(425,508,l),
(352,508,o),
(300,456,o),
(300,383,c)
);
}
);
width = 900;
}
);
unicode = 125;
},
{
glyphname = asciitilde;
layers = (
{
layerId = "4ABAD10E-E2F0-4AE3-B256-BB359D6F81D7";
shapes = (
{
closed = 1;
nodes = (
(0,830,l),
(47,871,o),
(134,900,o),
(189,900,cs),
(290,900,o),
(345,800,o),
(495,800,cs),
(571,800,o),
(649,826,o),
(700,867,c),
(700,967,l),
(649,925,o),
(551,897,o),
(494,897,cs),
(385,897,o),
(330,1000,o),
(188,1000,cs),
(114,1000,o),
(47,972,o),
(0,932,c)
);
}
);
width = 900;
}
);
unicode = 126;
},
{
glyphname = uni007F;
layers = (
{
layerId = "4ABAD10E-E2F0-4AE3-B256-BB359D6F81D7";
shapes = (
{
closed = 1;
nodes = (
(150,250,l),
(150,420,l),
(350,620,l),
(550,420,l),
(550,250,l)
);
},
{
closed = 1;
nodes = (
(0,100,l),
(700,100,l),
(701,476,l),
(350,827,l),
(-1,476,l)
);
}
);
width = 900;
}
);
unicode = 127;
},
{
glyphname = exclamdown;
layers = (
{
layerId = "4ABAD10E-E2F0-4AE3-B256-BB359D6F81D7";
shapes = (
{
closed = 1;
nodes = (
(345,697,l),
(325,399,o),
(225,294,o),
(225,167,cs),
(225,62,o),
(294,-23,o),
(400,-23,cs),
(506,-23,o),
(575,62,o),
(575,167,cs),
(575,294,o),
(475,399,o),
(455,697,c)
);
},
{
closed = 1;
nodes = (
(288,835,o),
(338,785,o),
(400,785,cs),
(462,785,o),
(513,835,o),
(513,897,cs),
(513,960,o),
(462,1010,o),
(400,1010,cs),
(338,1010,o),
(288,960,o),
(288,897,cs)
);
}
);
width = 900;
}
);
unicode = 161;
},
{
glyphname = cent;
layers = (
{
layerId = "4ABAD10E-E2F0-4AE3-B256-BB359D6F81D7";
shapes = (
{
closed = 1;
nodes = (
(633,400,l),
(606,317,o),
(535,275,o),
(428,275,cs),
(269,275,o),
(188,369,o),
(188,553,cs),
(188,734,o),
(267,825,o),
(426,825,cs),
(534,825,o),
(606,783,o),
(633,700,c),
(792,700,l),
(747,846,o),
(610,925,o),
(403,925,cs),
(135,925,o),
(-12,792,o),
(-12,552,cs),
(-12,310,o),
(138,175,o),
(406,175,cs),
(610,175,o),
(747,253,o),
(792,400,c)
);
},
{
closed = 1;
nodes = (
(300,875,l),
(498,875,l),
(498,1100,l),
(300,1100,l)
);
},
{
closed = 1;
nodes = (
(300,0,l),
(498,0,l),
(498,225,l),
(300,225,l)
);
}
);
width = 900;
}
);
unicode = 162;
},
{
glyphname = sterling;
layers = (
{
layerId = "4ABAD10E-E2F0-4AE3-B256-BB359D6F81D7";
shapes = (
{
closed = 1;
nodes = (
(100,725,ls),
(100,708,o),
(93,700,o),
(75,700,cs),
(0,700,l),
(0,600,l),
(100,600,l),
(100,125,ls),
(100,111,o),
(89,100,o),
(75,100,cs),
(0,100,l),
(0,0,l),
(700,0,l),
(700,100,l),
(225,100,l),
(175,75,l),
(245,75,o),
(300,130,o),
(300,200,c),
(300,600,l),
(450,600,l),
(450,700,l),
(300,700,l),
(300,890,ls),
(300,982,o),
(335,1025,o),
(390,1025,cs),
(445,1025,o),
(475,980,o),
(475,875,c),
(625,875,l),
(625,1032,o),
(515,1125,o),
(363,1125,cs),
(208,1125,o),
(100,1023,o),
(100,848,cs)
);
}
);
width = 900;
}
);
unicode = 163;
},
{
glyphname = yen;
layers = (
{
layerId = "4ABAD10E-E2F0-4AE3-B256-BB359D6F81D7";
shapes = (
{
closed = 1;
nodes = (
(250,730,l),
(250,0,l),
(450,0,l),
(450,730,l)
);
},
{
closed = 1;
nodes = (
(218,1000,l),
(-25,1000,l),
(280,617,l),
(405,617,l),
(456,698,l)
);
},
{
closed = 1;
nodes = (
(596,1000,l),
(291,617,l),
(420,617,l),
(725,1000,l)
);
},
{
closed = 1;
nodes = (
(0,475,l),
(700,475,l),
(700,575,l),
(0,575,l)
);
},
{
closed = 1;
nodes = (
(0,275,l),
(700,275,l),
(700,375,l),
(0,375,l)
);
}
);
width = 900;
}
);
unicode = 165;
},
{
glyphname = section;
layers = (
{
layerId = "4ABAD10E-E2F0-4AE3-B256-BB359D6F81D7";
shapes = (
{
closed = 1;
nodes = (
(250,333,l),
(291,317,o),
(339,309,o),
(392,309,cs),
(569,309,o),
(686,397,o),
(686,531,cs),
(686,795,o),
(230,712,o),
(230,899,cs),
(230,963,o),
(284,1009,o),
(353,1009,cs),
(439,1009,o),
(489,936,o),
(500,851,c),
(685,851,l),
(659,983,o),
(519,1100,o),
(327,1100,cs),
(157,1100,o),
(30,1008,o),
(30,861,cs),
(30,580,o),
(498,715,o),
(498,483,cs),
(498,411,o),
(453,361,o),
(366,361,cs),
(320,361,o),
(280,375,o),
(250,397,c)
);
},
{
closed = 1;
nodes = (
(446,676,l),
(405,692,o),
(357,700,o),
(304,700,cs),
(127,700,o),
(10,611,o),
(10,475,cs),
(10,207,o),
(466,291,o),
(466,102,cs),
(466,37,o),
(412,-10,o),
(343,-10,cs),
(257,-10,o),
(207,63,o),
(196,148,c),
(11,148,l),
(37,16,o),
(177,-101,o),
(369,-101,cs),
(539,-101,o),
(666,-9,o),
(666,138,cs),
(666,419,o),
(198,284,o),
(198,516,cs),
(198,588,o),
(243,638,o),
(330,638,cs),
(376,638,o),
(416,624,o),
(446,602,c)
);
}
);
width = 900;
}
);
unicode = 167;
},
{
glyphname = ordfeminine;
layers = (
{
layerId = "4ABAD10E-E2F0-4AE3-B256-BB359D6F81D7";
shapes = (
{
closed = 1;
nodes = (
(495,700,l),
(700,700,l),
(700,800,l),
(645,800,ls),
(631,800,o),
(620,811,o),
(620,825,cs),
(620,1100,l),
(495,1100,l),
(466,971,l),
(466,829,l)
);
},
{
closed = 1;
nodes = (
(520,1039,o),
(446,1115,o),
(310,1115,cs),
(175,1115,o),
(100,1039,o),
(100,900,cs),
(100,761,o),
(175,685,o),
(310,685,cs),
(445,685,o),
(520,762,o),
(520,900,cs)
);
},
{
closed = 1;
nodes = (
(466,818,o),
(432,775,o),
(371,775,cs),
(309,775,o),
(275,817,o),
(275,900,cs),
(275,983,o),
(309,1025,o),
(371,1025,cs),
(435,1025,o),
(466,983,o),
(466,900,cs)
);
},
{
closed = 1;
nodes = (
(100,500,l),
(700,500,l),
(700,600,l),
(100,600,l)
);
}
);
width = 900;
}
);
unicode = 170;
},
{
glyphname = guillemotleft;
layers = (
{
layerId = "4ABAD10E-E2F0-4AE3-B256-BB359D6F81D7";
shapes = (
{
closed = 1;
nodes = (
(226,700,l),
(-24,450,l),
(226,200,l),
(426,200,l),
(176,450,l),
(426,700,l)
);
},
{
closed = 1;
nodes = (
(576,700,l),
(326,450,l),
(576,200,l),
(776,200,l),
(526,450,l),
(776,700,l)
);
}
);
width = 900;
}
);
unicode = 171;
},
{
glyphname = logicalnot;
layers = (
{
layerId = "4ABAD10E-E2F0-4AE3-B256-BB359D6F81D7";
shapes = (
{
closed = 1;
nodes = (
(0,500,l),
(0,600,l),
(700,600,l),
(700,100,l),
(500,100,l),
(500,500,l)
);
}
);
width = 900;
}
);
unicode = 172;
},
{
glyphname = degree;
layers = (
{
layerId = "4ABAD10E-E2F0-4AE3-B256-BB359D6F81D7";
shapes = (
{
closed = 1;
nodes = (
(87,772,o),
(181,700,o),
(350,700,cs),
(518,700,o),
(612,771,o),
(612,900,cs),
(612,1029,o),
(517,1100,o),
(350,1100,cs),
(180,1100,o),
(87,1029,o),
(87,900,cs)
);
},
{
closed = 1;
nodes = (
(267,967,o),
(295,1000,o),
(354,1000,cs),
(411,1000,o),
(442,966,o),
(442,900,cs),
(442,834,o),
(412,800,o),
(355,800,cs),
(297,800,o),
(267,834,o),
(267,900,cs)
);
}
);
width = 900;
}
);
unicode = 176;
},
{
glyphname = plusminus;
layers = (
{
layerId = "4ABAD10E-E2F0-4AE3-B256-BB359D6F81D7";
shapes = (
{
closed = 1;
nodes = (
(0,0,l),
(0,100,l),
(800,100,l),
(800,0,l)
);
},
{
closed = 1;
nodes = (
(100,500,l),
(100,600,l),
(300,600,l),
(300,800,l),
(500,800,l),
(500,600,l),
(700,600,l),
(700,500,l),
(500,500,l),
(500,300,l),
(300,300,l),
(300,500,l)
);
}
);
width = 900;
}
);
unicode = 177;
},
{
glyphname = uni00B2;
layers = (
{
layerId = "4ABAD10E-E2F0-4AE3-B256-BB359D6F81D7";
shapes = (
{
closed = 1;
nodes = (
(0,600,l),
(0,500,l),
(521,500,l),
(520,700,l),
(421,700,l),
(421,622,o),
(398,600,o),
(320,600,cs)
);
},
{
closed = 1;
nodes = (
(161,580,l),
(161,727,o),
(501,742,o),
(501,941,cs),
(501,1044,o),
(409,1100,o),
(265,1100,cs),
(97,1100,o),
(0,1023,o),
(-1,895,c),
(160,895,l),
(160,963,o),
(196,1000,o),
(268,1000,cs),
(310,1000,o),
(341,987,o),
(341,951,cs),
(341,832,o),
(0,819,o),
(0,600,c)
);
}
);
width = 900;
}
);
unicode = 178;
},
{
glyphname = mu;
layers = (
{
layerId = "4ABAD10E-E2F0-4AE3-B256-BB359D6F81D7";
shapes = (
{
closed = 1;
nodes = (
(0,0,l),
(0,-100,l),
(170,-100,ls),
(250,-100,o),
(300,-51,o),
(300,26,cs),
(300,800,l),
(100,800,l),
(100,29,ls),
(100,13,o),
(89,0,o),
(75,0,cs)
);
},
{
closed = 1;
nodes = (
(225,405,l),
(225,249,o),
(334,155,o),
(461,155,cs),
(591,155,o),
(700,255,o),
(700,380,cs),
(700,800,l),
(500,800,l),
(500,405,ls),
(500,327,o),
(463,280,o),
(400,280,cs),
(340,280,o),
(300,329,o),
(300,405,c)
);
}
);
width = 900;
}
);
unicode = 181;
},
{
glyphname = paragraph;
layers = (
{
layerId = "4ABAD10E-E2F0-4AE3-B256-BB359D6F81D7";
shapes = (
{
closed = 1;
nodes = (
(500,0,l),
(500,1000,l),
(241,1000,l),
(76,1000,o),
(-5,918,o),
(-5,750,cs),
(-5,583,o),
(71,500,o),
(223,500,cs),
(350,500,l),
(350,600,l),
(282,600,ls),
(221,600,o),
(195,645,o),
(195,750,cs),
(195,856,o),
(216,900,o),
(267,900,cs),
(284,900,ls),
(293,900,o),
(300,890,o),
(300,875,cs),
(300,0,l)
);
},
{
closed = 1;
nodes = (
(600,0,l),
(800,0,l),
(800,1000,l),
(600,1000,l)
);
},
{
closed = 1;
nodes = (
(350,900,l),
(667,900,l),
(667,1000,l),
(350,1000,l)
);
}
);
width = 900;
}
);
unicode = 182;
},
{
glyphname = periodcentered;
layers = (
{
layerId = "4ABAD10E-E2F0-4AE3-B256-BB359D6F81D7";
shapes = (
{
closed = 1;
nodes = (
(300,300,l),
(500,300,l),
(500,400,l),
(300,400,l)
);
}
);
width = 900;
}
);
unicode = 183;
},
{
glyphname = ordmasculine;
layers = (
{
layerId = "4ABAD10E-E2F0-4AE3-B256-BB359D6F81D7";
shapes = (
{
closed = 1;
nodes = (
(100,500,l),
(600,500,l),
(600,600,l),
(100,600,l)
);
},
{
closed = 1;
nodes = (
(87,772,o),
(181,700,o),
(350,700,cs),
(518,700,o),
(612,771,o),
(612,900,cs),
(612,1029,o),
(517,1100,o),
(350,1100,cs),
(180,1100,o),
(87,1029,o),
(87,900,cs)
);
},
{
closed = 1;
nodes = (
(267,967,o),
(295,1000,o),
(354,1000,cs),
(411,1000,o),
(442,966,o),
(442,900,cs),
(442,834,o),
(412,800,o),
(355,800,cs),
(297,800,o),
(267,834,o),
(267,900,cs)
);
}
);
width = 900;
}
);
unicode = 186;
},
{
glyphname = guillemotright;
layers = (
{
layerId = "4ABAD10E-E2F0-4AE3-B256-BB359D6F81D7";
shapes = (
{
closed = 1;
nodes = (
(505,700,l),
(305,700,l),
(555,450,l),
(305,200,l),
(505,200,l),
(755,450,l)
);
},
{
closed = 1;
nodes = (
(155,700,l),
(-45,700,l),
(205,450,l),
(-45,200,l),
(155,200,l),
(405,450,l)
);
}
);
width = 900;
}
);
unicode = 187;
},
{
glyphname = onequarter;
layers = (
{
layerId = "4ABAD10E-E2F0-4AE3-B256-BB359D6F81D7";
shapes = (
{
closed = 1;
nodes = (
(25,600,l),
(175,600,l),
(175,1100,l),
(25,1100,l)
);
},
{
closed = 1;
nodes = (
(0,55,l),
(700,755,l),
(700,955,l),
(0,255,l)
);
},
{
closed = 1;
nodes = (
(525,-200,l),
(675,-200,l),
(675,400,l),
(525,400,l)
);
},
{
closed = 1;
nodes = (
(525,400,l),
(200,50,l),
(200,0,l),
(650,0,l),
(650,97,l),
(374,97,l),
(592,347,l)
);
}
);
width = 900;
}
);
unicode = 188;
},
{
glyphname = onehalf;
layers = (
{
layerId = "4ABAD10E-E2F0-4AE3-B256-BB359D6F81D7";
shapes = (
{
closed = 1;
nodes = (
(300,-100,l),
(300,-200,l),
(800,-200,l),
(800,-100,l)
);
},
{
closed = 1;
nodes = (
(461,-120,l),
(727,7,o),
(801,67,o),
(801,155,cs),
(801,254,o),
(709,310,o),
(565,310,cs),
(397,310,o),
(300,233,o),
(299,105,c),
(460,105,l),
(460,173,o),
(496,210,o),
(568,210,cs),
(610,210,o),
(641,197,o),
(641,157,cs),
(641,99,o),
(577,51,o),
(300,-100,c)
);
},
{
closed = 1;
nodes = (
(25,600,l),
(175,600,l),
(175,1100,l),
(25,1100,l)
);
},
{
closed = 1;
nodes = (
(0,55,l),
(700,755,l),
(700,955,l),
(0,255,l)
);
}
);
width = 900;
}
);
unicode = 189;
},
{
glyphname = questiondown;
layers = (
{
layerId = "4ABAD10E-E2F0-4AE3-B256-BB359D6F81D7";
shapes = (
{
closed = 1;
nodes = (
(482,975,o),
(432,1025,o),
(370,1025,cs),
(308,1025,o),
(257,975,o),
(257,912,cs),
(257,850,o),
(308,800,o),
(370,800,cs),
(432,800,o),
(482,850,o),
(482,912,cs)
);
},
{
closed = 1;
nodes = (
(515,312,l),
(515,173,o),
(446,87,o),
(329,87,cs),
(248,87,o),
(195,128,o),
(195,217,cs),
(195,420,o),
(470,380,o),
(470,712,c),
(270,712,l),
(270,412,o),
(-5,494,o),
(-5,254,cs),
(-5,86,o),
(130,-13,o),
(325,-13,cs),
(557,-13,o),
(700,127,o),
(700,312,c)
);
}
);
width = 900;
}
);
unicode = 191;
},
{
glyphname = Adieresis;
layers = (
{
layerId = "4ABAD10E-E2F0-4AE3-B256-BB359D6F81D7";
shapes = (
{
closed = 1;
nodes = (
(325,900,l),
(83,658,ls),
(35,610,o),
(0,525,o),
(0,457,cs),
(0,0,l),
(200,0,l),
(200,493,ls),
(200,540,o),
(225,600,o),
(258,633,cs),
(350,725,l),
(442,633,ls),
(475,600,o),
(500,540,o),
(500,493,cs),
(500,0,l),
(700,0,l),
(700,457,ls),
(700,525,o),
(665,610,o),
(617,658,cs),
(375,900,l)
);
},
{
closed = 1;
nodes = (
(100,300,l),
(625,300,l),
(625,400,l),
(100,400,l)
);
},
{
closed = 1;
nodes = (
(112,1004,o),
(151,965,o),
(200,965,cs),
(248,965,o),
(287,1004,o),
(287,1053,cs),
(287,1101,o),
(248,1140,o),
(200,1140,cs),
(151,1140,o),
(112,1101,o),
(112,1053,cs)
);
},
{
closed = 1;
nodes = (
(412,1004,o),
(451,965,o),
(500,965,cs),
(548,965,o),
(587,1004,o),
(587,1053,cs),
(587,1101,o),
(548,1140,o),
(500,1140,cs),
(451,1140,o),
(412,1101,o),
(412,1053,cs)
);
}
);
width = 900;
}
);
unicode = 196;
},
{
glyphname = Aring;
layers = (
{
layerId = "4ABAD10E-E2F0-4AE3-B256-BB359D6F81D7";
shapes = (
{
closed = 1;
nodes = (
(225,800,l),
(83,658,ls),
(35,610,o),
(0,525,o),
(0,457,cs),
(0,0,l),
(200,0,l),
(200,493,ls),
(200,540,o),
(225,600,o),
(258,633,cs),
(350,725,l),
(442,633,ls),
(475,600,o),
(500,540,o),
(500,493,cs),
(500,0,l),
(700,0,l),
(700,457,ls),
(700,525,o),
(665,610,o),
(617,658,cs),
(475,800,l)
);
},
{
closed = 1;
nodes = (
(100,300,l),
(625,300,l),
(625,400,l),
(100,400,l)
);
},
{
closed = 1;
nodes = (
(141,941,o),
(211,899,o),
(350,899,cs),
(489,899,o),
(559,941,o),
(559,1025,cs),
(559,1107,o),
(488,1149,o),
(350,1149,cs),
(212,1149,o),
(141,1107,o),
(141,1025,cs)
);
},
{
closed = 1;
nodes = (
(272,1059,o),
(302,1081,o),
(350,1081,cs),
(398,1081,o),
(428,1059,o),
(428,1025,cs),
(428,990,o),
(398,968,o),
(350,968,cs),
(302,968,o),
(272,990,o),
(272,1025,cs)
);
}
);
width = 900;
}
);
unicode = 197;
},
{
glyphname = AE;
layers = (
{
layerId = "4ABAD10E-E2F0-4AE3-B256-BB359D6F81D7";
shapes = (
{
closed = 1;
nodes = (
(325,1000,l),
(83,758,ls),
(35,710,o),
(0,625,o),
(0,557,cs),
(0,0,l),
(200,0,l),
(200,593,ls),
(200,640,o),
(225,700,o),
(258,733,cs),
(350,825,l),
(350,1000,l)
);
},
{
closed = 1;
nodes = (
(100,450,l),
(700,450,l),
(700,550,l),
(100,550,l)
);
},
{
closed = 1;
nodes = (
(350,0,l),
(550,0,l),
(550,1000,l),
(350,1000,l)
);
},
{
closed = 1;
nodes = (
(425,900,l),
(700,900,l),
(700,1000,l),
(425,1000,l)
);
},
{
closed = 1;
nodes = (
(425,0,l),
(700,0,l),
(700,100,l),
(425,100,l)
);
}
);
width = 900;
}
);
unicode = 198;
},
{
glyphname = Ccedilla;
layers = (
{
layerId = "4ABAD10E-E2F0-4AE3-B256-BB359D6F81D7";
shapes = (
{
closed = 1;
nodes = (
(550,400,l),
(526,246,o),
(474,175,o),
(370,175,cs),
(239,175,o),
(175,288,o),
(175,552,cs),
(175,815,o),
(239,925,o),
(369,925,cs),
(474,925,o),
(526,854,o),
(550,700,c),
(711,700,l),
(674,922,o),
(563,1025,o),
(357,1025,cs),
(103,1025,o),
(-25,868,o),
(-25,551,cs),
(-25,233,o),
(104,75,o),
(359,75,cs),
(564,75,o),
(674,178,o),
(711,400,c)
);
},
{
closed = 1;
nodes = (
(300,85,l),
(300,-15,l),
(373,-14,o),
(425,-29,o),
(425,-67,cs),
(425,-102,o),
(383,-120,o),
(325,-120,cs),
(264,-120,o),
(205,-95,o),
(175,-70,c),
(175,-170,l),
(209,-195,o),
(279,-220,o),
(350,-220,cs),
(495,-220,o),
(600,-162,o),
(600,-74,cs),
(600,0,o),
(526,31,o),
(425,35,c),
(425,110,l)
);
}
);
width = 900;
}
);
unicode = 199;
},
{
glyphname = Eacute;
layers = (
{
layerId = "4ABAD10E-E2F0-4AE3-B256-BB359D6F81D7";
shapes = (
{
closed = 1;
nodes = (
(300,400,l),
(600,400,l),
(600,500,l),
(300,500,l),
(300,675,ls),
(300,690,o),
(311,700,o),
(325,700,cs),
(501,700,ls),
(567,700,o),
(601,666,o),
(601,600,c),
(701,600,l),
(701,800,l),
(1,800,l),
(1,700,l),
(75,700,ls),
(89,700,o),
(100,689,o),
(100,675,cs),
(100,121,ls),
(100,109,o),
(90,100,o),
(75,100,cs),
(0,100,l),
(0,0,l),
(701,0,l),
(701,200,l),
(601,200,l),
(601,135,o),
(566,100,o),
(501,100,cs),
(325,100,ls),
(311,100,o),
(300,111,o),
(300,125,cs)
);
},
{
closed = 1;
nodes = (
(350,900,l),
(600,1150,l),
(425,1150,l),
(175,900,l)
);
}
);
width = 900;
}
);
unicode = 201;
},
{
glyphname = Ntilde;
layers = (
{
layerId = "4ABAD10E-E2F0-4AE3-B256-BB359D6F81D7";
shapes = (
{
closed = 1;
nodes = (
(0,0,l),
(199,0,l),
(200,550,l),
(500,250,l),
(500,0,l),
(700,0,l),
(700,900,l),
(500,900,l),
(500,525,l),
(125,900,l),
(0,900,l)
);
},
{
closed = 1;
nodes = (
(0,1030,l),
(47,1071,o),
(134,1100,o),
(189,1100,cs),
(290,1100,o),
(345,1000,o),
(495,1000,cs),
(571,1000,o),
(649,1026,o),
(700,1067,c),
(700,1167,l),
(649,1125,o),
(551,1097,o),
(494,1097,cs),
(385,1097,o),
(330,1200,o),
(188,1200,cs),
(114,1200,o),
(47,1172,o),
(0,1132,c)
);
}
);
width = 900;
}
);
unicode = 209;
},
{
glyphname = Odieresis;
layers = (
{
layerId = "4ABAD10E-E2F0-4AE3-B256-BB359D6F81D7";
shapes = (
{
closed = 1;
nodes = (
(-25,117,o),
(87,-25,o),
(351,-25,cs),
(613,-25,o),
(725,117,o),
(725,450,cs),
(725,784,o),
(613,925,o),
(351,925,cs),
(86,925,o),
(-25,784,o),
(-25,450,cs)
);
},
{
closed = 1;
nodes = (
(175,714,o),
(227,825,o),
(350,825,cs),
(473,825,o),
(525,714,o),
(525,450,cs),
(525,188,o),
(473,75,o),
(350,75,cs),
(227,75,o),
(175,188,o),
(175,450,cs)
);
},
{
closed = 1;
nodes = (
(112,1034,o),
(151,995,o),
(200,995,cs),
(248,995,o),
(287,1034,o),
(287,1083,cs),
(287,1131,o),
(248,1170,o),
(200,1170,cs),
(151,1170,o),
(112,1131,o),
(112,1083,cs)
);
},
{
closed = 1;
nodes = (
(412,1034,o),
(451,995,o),
(500,995,cs),
(548,995,o),
(587,1034,o),
(587,1083,cs),
(587,1131,o),
(548,1170,o),
(500,1170,cs),
(451,1170,o),
(412,1131,o),
(412,1083,cs)
);
}
);
width = 900;
}
);
unicode = 214;
},
{
glyphname = Udieresis;
layers = (
{
layerId = "4ABAD10E-E2F0-4AE3-B256-BB359D6F81D7";
shapes = (
{
closed = 1;
nodes = (
(0,250,ls),
(0,71,o),
(122,-25,o),
(350,-25,cs),
(578,-25,o),
(700,71,o),
(700,250,cs),
(700,900,l),
(500,900,l),
(500,250,ls),
(500,122,o),
(460,75,o),
(350,75,cs),
(240,75,o),
(200,122,o),
(200,250,cs),
(200,900,l),
(0,900,l)
);
},
{
closed = 1;
nodes = (
(112,1034,o),
(151,995,o),
(200,995,cs),
(248,995,o),
(287,1034,o),
(287,1083,cs),
(287,1131,o),
(248,1170,o),
(200,1170,cs),
(151,1170,o),
(112,1131,o),
(112,1083,cs)
);
},
{
closed = 1;
nodes = (
(412,1034,o),
(451,995,o),
(500,995,cs),
(548,995,o),
(587,1034,o),
(587,1083,cs),
(587,1131,o),
(548,1170,o),
(500,1170,cs),
(451,1170,o),
(412,1131,o),
(412,1083,cs)
);
}
);
width = 900;
}
);
unicode = 220;
},
{
glyphname = germandbls;
layers = (
{
layerId = "4ABAD10E-E2F0-4AE3-B256-BB359D6F81D7";
shapes = (
{
closed = 1;
nodes = (
(300,545,l),
(332,545,ls),
(527,545,o),
(621,631,o),
(621,786,cs),
(621,940,o),
(508,1025,o),
(311,1025,cs),
(123,1025,o),
(0,922,o),
(0,775,cs),
(0,0,l),
(200,0,l),
(200,775,ls),
(200,860,o),
(248,925,o),
(309,925,cs),
(382,925,o),
(421,869,o),
(421,763,cs),
(421,655,o),
(393,600,o),
(319,600,cs),
(300,600,l)
);
},
{
closed = 1;
nodes = (
(300,500,l),
(348,500,ls),
(468,500,o),
(512,432,o),
(512,298,cs),
(512,164,o),
(451,95,o),
(330,95,c),
(330,-5,l),
(575,-5,o),
(712,99,o),
(712,290,cs),
(712,481,o),
(591,585,o),
(348,585,cs),
(300,585,l)
);
}
);
width = 900;
}
);
unicode = 223;
},
{
glyphname = agrave;
layers = (
{
layerId = "4ABAD10E-E2F0-4AE3-B256-BB359D6F81D7";
shapes = (
{
closed = 1;
nodes = (
(100,575,l),
(100,575,o),
(173,625,o),
(271,625,cs),
(357,625,o),
(400,587,o),
(400,495,cs),
(400,255,l),
(400,144,l),
(500,0,l),
(700,0,l),
(700,100,l),
(625,100,ls),
(611,100,o),
(600,111,o),
(600,125,cs),
(600,485,ls),
(600,629,o),
(487,725,o),
(320,725,cs),
(200,725,o),
(100,675,o),
(100,675,c)
);
},
{
closed = 1;
nodes = (
(425,489,l),
(272,466,ls),
(70,436,o),
(-8,351,o),
(-8,219,cs),
(-8,72,o),
(88,-25,o),
(230,-25,cs),
(371,-25,o),
(475,70,o),
(475,200,c),
(400,200,l),
(400,128,o),
(353,75,o),
(288,75,cs),
(221,75,o),
(178,133,o),
(178,221,cs),
(178,310,o),
(222,365,o),
(316,381,cs),
(425,399,l)
);
},
{
closed = 1;
nodes = (
(325,850,l),
(500,850,l),
(250,1100,l),
(75,1100,l)
);
}
);
width = 900;
}
);
unicode = 224;
},
{
glyphname = aacute;
layers = (
{
layerId = "4ABAD10E-E2F0-4AE3-B256-BB359D6F81D7";
shapes = (
{
closed = 1;
nodes = (
(100,575,l),
(100,575,o),
(173,625,o),
(271,625,cs),
(357,625,o),
(400,587,o),
(400,495,cs),
(400,255,l),
(400,144,l),
(500,0,l),
(700,0,l),
(700,100,l),
(625,100,ls),
(611,100,o),
(600,111,o),
(600,125,cs),
(600,485,ls),
(600,629,o),
(487,725,o),
(320,725,cs),
(200,725,o),
(100,675,o),
(100,675,c)
);
},
{
closed = 1;
nodes = (
(425,489,l),
(272,466,ls),
(70,436,o),
(-8,351,o),
(-8,219,cs),
(-8,72,o),
(88,-25,o),
(230,-25,cs),
(371,-25,o),
(475,70,o),
(475,200,c),
(400,200,l),
(400,128,o),
(353,75,o),
(288,75,cs),
(221,75,o),
(178,133,o),
(178,221,cs),
(178,310,o),
(222,365,o),
(316,381,cs),
(425,399,l)
);
},
{
closed = 1;
nodes = (
(350,850,l),
(600,1100,l),
(425,1100,l),
(175,850,l)
);
}
);
width = 900;
}
);
unicode = 225;
},
{
glyphname = acircumflex;
layers = (
{
layerId = "4ABAD10E-E2F0-4AE3-B256-BB359D6F81D7";
shapes = (
{
closed = 1;
nodes = (
(254,1100,l),
(75,850,l),
(200,850,l),
(325,1025,l),
(450,850,l),
(575,850,l),
(396,1100,l)
);
},
{
closed = 1;
nodes = (
(100,575,l),
(100,575,o),
(173,625,o),
(271,625,cs),
(357,625,o),
(400,587,o),
(400,495,cs),
(400,255,l),
(400,144,l),
(500,0,l),
(700,0,l),
(700,100,l),
(625,100,ls),
(611,100,o),
(600,111,o),
(600,125,cs),
(600,485,ls),
(600,629,o),
(487,725,o),
(320,725,cs),
(200,725,o),
(100,675,o),
(100,675,c)
);
},
{
closed = 1;
nodes = (
(425,489,l),
(272,466,ls),
(70,436,o),
(-8,351,o),
(-8,219,cs),
(-8,72,o),
(88,-25,o),
(230,-25,cs),
(371,-25,o),
(475,70,o),
(475,200,c),
(400,200,l),
(400,128,o),
(353,75,o),
(288,75,cs),
(221,75,o),
(178,133,o),
(178,221,cs),
(178,310,o),
(222,365,o),
(316,381,cs),
(425,399,l)
);
}
);
width = 900;
}
);
unicode = 226;
},
{
glyphname = adieresis;
layers = (
{
layerId = "4ABAD10E-E2F0-4AE3-B256-BB359D6F81D7";
shapes = (
{
closed = 1;
nodes = (
(100,575,l),
(100,575,o),
(173,625,o),
(271,625,cs),
(357,625,o),
(400,587,o),
(400,495,cs),
(400,255,l),
(400,144,l),
(500,0,l),
(700,0,l),
(700,100,l),
(625,100,ls),
(611,100,o),
(600,111,o),
(600,125,cs),
(600,485,ls),
(600,629,o),
(487,725,o),
(320,725,cs),
(200,725,o),
(100,675,o),
(100,675,c)
);
},
{
closed = 1;
nodes = (
(425,489,l),
(272,466,ls),
(70,436,o),
(-8,351,o),
(-8,219,cs),
(-8,72,o),
(88,-25,o),
(230,-25,cs),
(371,-25,o),
(475,70,o),
(475,200,c),
(400,200,l),
(400,128,o),
(353,75,o),
(288,75,cs),
(221,75,o),
(178,133,o),
(178,221,cs),
(178,310,o),
(222,365,o),
(316,381,cs),
(425,399,l)
);
},
{
closed = 1;
nodes = (
(100,864,o),
(139,825,o),
(188,825,cs),
(236,825,o),
(275,864,o),
(275,913,cs),
(275,961,o),
(236,1000,o),
(188,1000,cs),
(139,1000,o),
(100,961,o),
(100,913,cs)
);
},
{
closed = 1;
nodes = (
(400,864,o),
(439,825,o),
(488,825,cs),
(536,825,o),
(575,864,o),
(575,913,cs),
(575,961,o),
(536,1000,o),
(488,1000,cs),
(439,1000,o),
(400,961,o),
(400,913,cs)
);
}
);
width = 900;
}
);
unicode = 228;
},
{
glyphname = aring;
layers = (
{
layerId = "4ABAD10E-E2F0-4AE3-B256-BB359D6F81D7";
shapes = (
{
closed = 1;
nodes = (
(100,575,l),
(100,575,o),
(173,625,o),
(271,625,cs),
(357,625,o),
(400,587,o),
(400,495,cs),
(400,255,l),
(400,144,l),
(500,0,l),
(700,0,l),
(700,100,l),
(625,100,ls),
(611,100,o),
(600,111,o),
(600,125,cs),
(600,485,ls),
(600,629,o),
(487,725,o),
(320,725,cs),
(200,725,o),
(100,675,o),
(100,675,c)
);
},
{
closed = 1;
nodes = (
(425,489,l),
(272,466,ls),
(70,436,o),
(-8,351,o),
(-8,219,cs),
(-8,72,o),
(88,-25,o),
(230,-25,cs),
(371,-25,o),
(475,70,o),
(475,200,c),
(400,200,l),
(400,128,o),
(353,75,o),
(288,75,cs),
(221,75,o),
(178,133,o),
(178,221,cs),
(178,310,o),
(222,365,o),
(316,381,cs),
(425,399,l)
);
},
{
closed = 1;
nodes = (
(141,867,o),
(211,825,o),
(350,825,cs),
(489,825,o),
(559,867,o),
(559,951,cs),
(559,1033,o),
(488,1075,o),
(350,1075,cs),
(212,1075,o),
(141,1033,o),
(141,951,cs)
);
},
{
closed = 1;
nodes = (
(272,985,o),
(302,1007,o),
(350,1007,cs),
(398,1007,o),
(428,985,o),
(428,951,cs),
(428,916,o),
(398,894,o),
(350,894,cs),
(302,894,o),
(272,916,o),
(272,951,cs)
);
}
);
width = 900;
}
);
unicode = 229;
},
{
glyphname = ae;
layers = (
{
layerId = "4ABAD10E-E2F0-4AE3-B256-BB359D6F81D7";
shapes = (
{
closed = 1;
nodes = (
(100,575,l),
(100,575,o),
(154,625,o),
(226,625,cs),
(288,625,o),
(320,587,o),
(320,495,cs),
(320,255,l),
(320,144,l),
(480,125,l),
(480,485,ls),
(480,629,o),
(395,725,o),
(268,725,cs),
(176,725,o),
(100,675,o),
(100,675,c)
);
},
{
closed = 1;
nodes = (
(345,489,l),
(220,466,ls),
(56,436,o),
(-8,351,o),
(-8,223,cs),
(-8,72,o),
(80,-25,o),
(211,-25,cs),
(341,-25,o),
(435,70,o),
(435,200,c),
(320,200,l),
(320,128,o),
(286,75,o),
(239,75,cs),
(190,75,o),
(158,133,o),
(158,220,cs),
(158,310,o),
(192,366,o),
(262,381,cs),
(345,399,l)
);
},
{
closed = 1;
nodes = (
(712,200,l),
(702,111,o),
(672,65,o),
(624,65,cs),
(554,65,o),
(518,165,o),
(518,366,cs),
(518,543,o),
(546,635,o),
(600,635,cs),
(653,635,o),
(681,544,o),
(681,370,c),
(811,370,l),
(811,594,o),
(729,725,o),
(589,725,cs),
(447,725,o),
(368,592,o),
(368,353,cs),
(368,110,o),
(449,-25,o),
(596,-25,cs),
(708,-25,o),
(782,53,o),
(809,200,c)
);
},
{
closed = 1;
nodes = (
(460,370,l),
(700,370,l),
(700,465,l),
(460,465,l)
);
}
);
width = 900;
}
);
unicode = 230;
},
{
glyphname = ccedilla;
layers = (
{
layerId = "4ABAD10E-E2F0-4AE3-B256-BB359D6F81D7";
shapes = (
{
closed = 1;
nodes = (
(533,420,l),
(514,337,o),
(475,295,o),
(413,295,cs),
(332,295,o),
(288,367,o),
(288,507,cs),
(288,646,o),
(331,715,o),
(412,715,cs),
(475,715,o),
(514,673,o),
(533,590,c),
(692,590,l),
(653,736,o),
(551,815,o),
(389,815,cs),
(198,815,o),
(88,705,o),
(88,507,cs),
(88,307,o),
(200,195,o),
(391,195,cs),
(551,195,o),
(653,273,o),
(692,420,c)
);
},
{
closed = 1;
nodes = (
(350,205,l),
(350,105,l),
(423,106,o),
(475,91,o),
(475,53,cs),
(475,18,o),
(433,0,o),
(375,0,cs),
(314,0,o),
(255,25,o),
(225,50,c),
(225,-50,l),
(259,-75,o),
(329,-100,o),
(400,-100,cs),
(545,-100,o),
(650,-42,o),
(650,46,cs),
(650,120,o),
(576,151,o),
(475,155,c),
(475,230,l)
);
}
);
width = 900;
}
);
unicode = 231;
},
{
glyphname = egrave;
layers = (
{
layerId = "4ABAD10E-E2F0-4AE3-B256-BB359D6F81D7";
shapes = (
{
closed = 1;
nodes = (
(565,200,l),
(541,111,o),
(482,65,o),
(391,65,cs),
(256,65,o),
(188,165,o),
(188,364,cs),
(188,543,o),
(243,635,o),
(350,635,cs),
(456,635,o),
(511,544,o),
(511,370,c),
(711,370,l),
(711,594,o),
(577,725,o),
(347,725,cs),
(116,725,o),
(-12,592,o),
(-12,352,cs),
(-12,110,o),
(118,-25,o),
(351,-25,cs),
(528,-25,o),
(647,53,o),
(692,200,c)
);
},
{
closed = 1;
nodes = (
(136,370,l),
(600,370,l),
(600,465,l),
(136,465,l)
);
},
{
closed = 1;
nodes = (
(325,850,l),
(500,850,l),
(250,1100,l),
(75,1100,l)
);
}
);
width = 900;
}
);
unicode = 232;
},
{
glyphname = eacute;
layers = (
{
layerId = "4ABAD10E-E2F0-4AE3-B256-BB359D6F81D7";
shapes = (
{
closed = 1;
nodes = (
(565,200,l),
(541,111,o),
(482,65,o),
(391,65,cs),
(256,65,o),
(188,165,o),
(188,364,cs),
(188,543,o),
(243,635,o),
(350,635,cs),
(456,635,o),
(511,544,o),
(511,370,c),
(711,370,l),
(711,594,o),
(577,725,o),
(347,725,cs),
(116,725,o),
(-12,592,o),
(-12,352,cs),
(-12,110,o),
(118,-25,o),
(351,-25,cs),
(528,-25,o),
(647,53,o),
(692,200,c)
);
},
{
closed = 1;
nodes = (
(136,370,l),
(600,370,l),
(600,465,l),
(136,465,l)
);
},
{
closed = 1;
nodes = (
(350,850,l),
(600,1100,l),
(425,1100,l),
(175,850,l)
);
}
);
width = 900;
}
);
unicode = 233;
},
{
glyphname = ecircumflex;
layers = (
{
layerId = "4ABAD10E-E2F0-4AE3-B256-BB359D6F81D7";
shapes = (
{
closed = 1;
nodes = (
(565,200,l),
(541,111,o),
(482,65,o),
(391,65,cs),
(256,65,o),
(188,165,o),
(188,364,cs),
(188,543,o),
(243,635,o),
(350,635,cs),
(456,635,o),
(511,544,o),
(511,370,c),
(711,370,l),
(711,594,o),
(577,725,o),
(347,725,cs),
(116,725,o),
(-12,592,o),
(-12,352,cs),
(-12,110,o),
(118,-25,o),
(351,-25,cs),
(528,-25,o),
(647,53,o),
(692,200,c)
);
},
{
closed = 1;
nodes = (
(136,370,l),
(600,370,l),
(600,465,l),
(136,465,l)
);
},
{
closed = 1;
nodes = (
(285,1100,l),
(106,850,l),
(231,850,l),
(356,1025,l),
(481,850,l),
(606,850,l),
(427,1100,l)
);
}
);
width = 900;
}
);
unicode = 234;
},
{
glyphname = edieresis;
layers = (
{
layerId = "4ABAD10E-E2F0-4AE3-B256-BB359D6F81D7";
shapes = (
{
closed = 1;
nodes = (
(565,200,l),
(541,111,o),
(482,65,o),
(391,65,cs),
(256,65,o),
(188,165,o),
(188,364,cs),
(188,543,o),
(243,635,o),
(350,635,cs),
(456,635,o),
(511,544,o),
(511,370,c),
(711,370,l),
(711,594,o),
(577,725,o),
(347,725,cs),
(116,725,o),
(-12,592,o),
(-12,352,cs),
(-12,110,o),
(118,-25,o),
(351,-25,cs),
(528,-25,o),
(647,53,o),
(692,200,c)
);
},
{
closed = 1;
nodes = (
(136,370,l),
(600,370,l),
(600,465,l),
(136,465,l)
);
},
{
closed = 1;
nodes = (
(112,864,o),
(151,825,o),
(200,825,cs),
(248,825,o),
(287,864,o),
(287,913,cs),
(287,961,o),
(248,1000,o),
(200,1000,cs),
(151,1000,o),
(112,961,o),
(112,913,cs)
);
},
{
closed = 1;
nodes = (
(412,864,o),
(451,825,o),
(500,825,cs),
(548,825,o),
(587,864,o),
(587,913,cs),
(587,961,o),
(548,1000,o),
(500,1000,cs),
(451,1000,o),
(412,961,o),
(412,913,cs)
);
}
);
width = 900;
}
);
unicode = 235;
},
{
glyphname = igrave;
layers = (
{
layerId = "4ABAD10E-E2F0-4AE3-B256-BB359D6F81D7";
shapes = (
{
closed = 1;
nodes = (
(275,600,ls),
(289,600,o),
(300,589,o),
(300,575,cs),
(300,125,ls),
(300,111,o),
(290,100,o),
(275,100,cs),
(200,100,l),
(200,0,l),
(600,0,l),
(600,100,l),
(525,100,ls),
(511,100,o),
(500,111,o),
(500,125,cs),
(500,700,l),
(200,700,l),
(200,600,l)
);
},
{
closed = 1;
nodes = (
(325,850,l),
(500,850,l),
(250,1100,l),
(75,1100,l)
);
}
);
width = 900;
}
);
unicode = 236;
},
{
glyphname = iacute;
layers = (
{
layerId = "4ABAD10E-E2F0-4AE3-B256-BB359D6F81D7";
shapes = (
{
closed = 1;
nodes = (
(275,600,ls),
(289,600,o),
(300,589,o),
(300,575,cs),
(300,125,ls),
(300,111,o),
(290,100,o),
(275,100,cs),
(200,100,l),
(200,0,l),
(600,0,l),
(600,100,l),
(525,100,ls),
(511,100,o),
(500,111,o),
(500,125,cs),
(500,700,l),
(200,700,l),
(200,600,l)
);
},
{
closed = 1;
nodes = (
(450,850,l),
(700,1100,l),
(525,1100,l),
(275,850,l)
);
}
);
width = 900;
}
);
unicode = 237;
},
{
glyphname = icircumflex;
layers = (
{
layerId = "4ABAD10E-E2F0-4AE3-B256-BB359D6F81D7";
shapes = (
{
closed = 1;
nodes = (
(275,600,ls),
(289,600,o),
(300,589,o),
(300,575,cs),
(300,125,ls),
(300,111,o),
(290,100,o),
(275,100,cs),
(200,100,l),
(200,0,l),
(600,0,l),
(600,100,l),
(525,100,ls),
(511,100,o),
(500,111,o),
(500,125,cs),
(500,700,l),
(200,700,l),
(200,600,l)
);
},
{
closed = 1;
nodes = (
(314,1100,l),
(135,850,l),
(260,850,l),
(385,1025,l),
(510,850,l),
(635,850,l),
(456,1100,l)
);
}
);
width = 900;
}
);
unicode = 238;
},
{
glyphname = idieresis;
layers = (
{
layerId = "4ABAD10E-E2F0-4AE3-B256-BB359D6F81D7";
shapes = (
{
closed = 1;
nodes = (
(275,600,ls),
(289,600,o),
(300,589,o),
(300,575,cs),
(300,125,ls),
(300,111,o),
(290,100,o),
(275,100,cs),
(200,100,l),
(200,0,l),
(600,0,l),
(600,100,l),
(525,100,ls),
(511,100,o),
(500,111,o),
(500,125,cs),
(500,700,l),
(200,700,l),
(200,600,l)
);
},
{
closed = 1;
nodes = (
(149,864,o),
(188,825,o),
(237,825,cs),
(285,825,o),
(324,864,o),
(324,913,cs),
(324,961,o),
(285,1000,o),
(237,1000,cs),
(188,1000,o),
(149,961,o),
(149,913,cs)
);
},
{
closed = 1;
nodes = (
(449,864,o),
(488,825,o),
(537,825,cs),
(585,825,o),
(624,864,o),
(624,913,cs),
(624,961,o),
(585,1000,o),
(537,1000,cs),
(488,1000,o),
(449,961,o),
(449,913,cs)
);
}
);
width = 900;
}
);
unicode = 239;
},
{
glyphname = ntilde;
layers = (
{
layerId = "4ABAD10E-E2F0-4AE3-B256-BB359D6F81D7";
shapes = (
{
closed = 1;
nodes = (
(75,600,ls),
(89,600,o),
(100,587,o),
(100,571,cs),
(100,0,l),
(300,0,l),
(300,574,l),
(275,590,l),
(200,700,l),
(0,700,l),
(0,600,l)
);
},
{
closed = 1;
nodes = (
(300,475,l),
(300,551,o),
(340,600,o),
(400,600,cs),
(463,600,o),
(500,553,o),
(500,475,cs),
(500,0,l),
(700,0,l),
(700,500,ls),
(700,625,o),
(591,725,o),
(461,725,cs),
(334,725,o),
(225,631,o),
(225,475,c)
);
},
{
closed = 1;
nodes = (
(0,830,l),
(47,871,o),
(134,900,o),
(189,900,cs),
(290,900,o),
(345,800,o),
(495,800,cs),
(571,800,o),
(649,826,o),
(700,867,c),
(700,967,l),
(649,925,o),
(551,897,o),
(494,897,cs),
(385,897,o),
(330,1000,o),
(188,1000,cs),
(114,1000,o),
(47,972,o),
(0,932,c)
);
}
);
width = 900;
}
);
unicode = 241;
},
{
glyphname = ograve;
layers = (
{
layerId = "4ABAD10E-E2F0-4AE3-B256-BB359D6F81D7";
shapes = (
{
closed = 1;
nodes = (
(-12,110,o),
(118,-25,o),
(351,-25,cs),
(583,-25,o),
(713,109,o),
(713,350,cs),
(713,592,o),
(582,725,o),
(351,725,cs),
(116,725,o),
(-12,592,o),
(-12,350,cs)
);
},
{
closed = 1;
nodes = (
(188,533,o),
(241,625,o),
(350,625,cs),
(457,625,o),
(513,532,o),
(513,350,cs),
(513,168,o),
(458,75,o),
(351,75,cs),
(243,75,o),
(188,169,o),
(188,350,cs)
);
},
{
closed = 1;
nodes = (
(325,850,l),
(500,850,l),
(250,1100,l),
(75,1100,l)
);
}
);
width = 900;
}
);
unicode = 242;
},
{
glyphname = oacute;
layers = (
{
layerId = "4ABAD10E-E2F0-4AE3-B256-BB359D6F81D7";
shapes = (
{
closed = 1;
nodes = (
(-12,110,o),
(118,-25,o),
(351,-25,cs),
(583,-25,o),
(713,109,o),
(713,350,cs),
(713,592,o),
(582,725,o),
(351,725,cs),
(116,725,o),
(-12,592,o),
(-12,350,cs)
);
},
{
closed = 1;
nodes = (
(188,533,o),
(241,625,o),
(350,625,cs),
(457,625,o),
(513,532,o),
(513,350,cs),
(513,168,o),
(458,75,o),
(351,75,cs),
(243,75,o),
(188,169,o),
(188,350,cs)
);
},
{
closed = 1;
nodes = (
(350,850,l),
(600,1100,l),
(425,1100,l),
(175,850,l)
);
}
);
width = 900;
}
);
unicode = 243;
},
{
glyphname = ocircumflex;
layers = (
{
layerId = "4ABAD10E-E2F0-4AE3-B256-BB359D6F81D7";
shapes = (
{
closed = 1;
nodes = (
(-12,110,o),
(118,-25,o),
(351,-25,cs),
(583,-25,o),
(713,109,o),
(713,350,cs),
(713,592,o),
(582,725,o),
(351,725,cs),
(116,725,o),
(-12,592,o),
(-12,350,cs)
);
},
{
closed = 1;
nodes = (
(188,533,o),
(241,625,o),
(350,625,cs),
(457,625,o),
(513,532,o),
(513,350,cs),
(513,168,o),
(458,75,o),
(351,75,cs),
(243,75,o),
(188,169,o),
(188,350,cs)
);
},
{
closed = 1;
nodes = (
(284,1100,l),
(105,850,l),
(230,850,l),
(355,1025,l),
(480,850,l),
(605,850,l),
(426,1100,l)
);
}
);
width = 900;
}
);
unicode = 244;
},
{
glyphname = odieresis;
layers = (
{
layerId = "4ABAD10E-E2F0-4AE3-B256-BB359D6F81D7";
shapes = (
{
closed = 1;
nodes = (
(-12,110,o),
(118,-25,o),
(351,-25,cs),
(583,-25,o),
(713,109,o),
(713,350,cs),
(713,592,o),
(582,725,o),
(351,725,cs),
(116,725,o),
(-12,592,o),
(-12,350,cs)
);
},
{
closed = 1;
nodes = (
(188,533,o),
(241,625,o),
(350,625,cs),
(457,625,o),
(513,532,o),
(513,350,cs),
(513,168,o),
(458,75,o),
(351,75,cs),
(243,75,o),
(188,169,o),
(188,350,cs)
);
},
{
closed = 1;
nodes = (
(112,864,o),
(151,825,o),
(200,825,cs),
(248,825,o),
(287,864,o),
(287,913,cs),
(287,961,o),
(248,1000,o),
(200,1000,cs),
(151,1000,o),
(112,961,o),
(112,913,cs)
);
},
{
closed = 1;
nodes = (
(412,864,o),
(451,825,o),
(500,825,cs),
(548,825,o),
(587,864,o),
(587,913,cs),
(587,961,o),
(548,1000,o),
(500,1000,cs),
(451,1000,o),
(412,961,o),
(412,913,cs)
);
}
);
width = 900;
}
);
unicode = 246;
},
{
glyphname = divide;
layers = (
{
layerId = "4ABAD10E-E2F0-4AE3-B256-BB359D6F81D7";
shapes = (
{
closed = 1;
nodes = (
(275,631,o),
(331,575,o),
(400,575,cs),
(469,575,o),
(525,631,o),
(525,700,cs),
(525,769,o),
(469,825,o),
(400,825,cs),
(331,825,o),
(275,769,o),
(275,700,cs)
);
},
{
closed = 1;
nodes = (
(275,131,o),
(331,75,o),
(400,75,cs),
(469,75,o),
(525,131,o),
(525,200,cs),
(525,269,o),
(469,325,o),
(400,325,cs),
(331,325,o),
(275,269,o),
(275,200,cs)
);
},
{
closed = 1;
nodes = (
(100,400,l),
(700,400,l),
(700,500,l),
(100,500,l)
);
}
);
width = 900;
}
);
unicode = 247;
},
{
glyphname = ugrave;
layers = (
{
layerId = "4ABAD10E-E2F0-4AE3-B256-BB359D6F81D7";
shapes = (
{
closed = 1;
nodes = (
(625,100,ls),
(611,100,o),
(600,113,o),
(600,129,cs),
(600,700,l),
(400,700,l),
(400,126,l),
(425,110,l),
(500,0,l),
(700,0,l),
(700,100,l)
);
},
{
closed = 1;
nodes = (
(400,225,l),
(400,149,o),
(360,100,o),
(300,100,cs),
(237,100,o),
(200,147,o),
(200,225,cs),
(200,700,l),
(0,700,l),
(0,200,ls),
(0,69,o),
(102,-25,o),
(234,-25,cs),
(366,-25,o),
(475,69,o),
(475,225,c)
);
},
{
closed = 1;
nodes = (
(325,850,l),
(500,850,l),
(250,1100,l),
(75,1100,l)
);
}
);
width = 900;
}
);
unicode = 249;
},
{
glyphname = uacute;
layers = (
{
layerId = "4ABAD10E-E2F0-4AE3-B256-BB359D6F81D7";
shapes = (
{
closed = 1;
nodes = (
(625,100,ls),
(611,100,o),
(600,113,o),
(600,129,cs),
(600,700,l),
(400,700,l),
(400,126,l),
(425,110,l),
(500,0,l),
(700,0,l),
(700,100,l)
);
},
{
closed = 1;
nodes = (
(400,225,l),
(400,149,o),
(360,100,o),
(300,100,cs),
(237,100,o),
(200,147,o),
(200,225,cs),
(200,700,l),
(0,700,l),
(0,200,ls),
(0,69,o),
(102,-25,o),
(234,-25,cs),
(366,-25,o),
(475,69,o),
(475,225,c)
);
},
{
closed = 1;
nodes = (
(340,850,l),
(590,1100,l),
(415,1100,l),
(165,850,l)
);
}
);
width = 900;
}
);
unicode = 250;
},
{
glyphname = ucircumflex;
layers = (
{
layerId = "4ABAD10E-E2F0-4AE3-B256-BB359D6F81D7";
shapes = (
{
closed = 1;
nodes = (
(625,100,ls),
(611,100,o),
(600,113,o),
(600,129,cs),
(600,700,l),
(400,700,l),
(400,126,l),
(425,110,l),
(500,0,l),
(700,0,l),
(700,100,l)
);
},
{
closed = 1;
nodes = (
(400,225,l),
(400,149,o),
(360,100,o),
(300,100,cs),
(237,100,o),
(200,147,o),
(200,225,cs),
(200,700,l),
(0,700,l),
(0,200,ls),
(0,69,o),
(102,-25,o),
(234,-25,cs),
(366,-25,o),
(475,69,o),
(475,225,c)
);
},
{
closed = 1;
nodes = (
(234,1100,l),
(55,850,l),
(180,850,l),
(305,1025,l),
(430,850,l),
(555,850,l),
(376,1100,l)
);
}
);
width = 900;
}
);
unicode = 251;
},
{
glyphname = udieresis;
layers = (
{
layerId = "4ABAD10E-E2F0-4AE3-B256-BB359D6F81D7";
shapes = (
{
closed = 1;
nodes = (
(625,100,ls),
(611,100,o),
(600,113,o),
(600,129,cs),
(600,700,l),
(400,700,l),
(400,126,l),
(425,110,l),
(500,0,l),
(700,0,l),
(700,100,l)
);
},
{
closed = 1;
nodes = (
(400,225,l),
(400,149,o),
(360,100,o),
(300,100,cs),
(237,100,o),
(200,147,o),
(200,225,cs),
(200,700,l),
(0,700,l),
(0,200,ls),
(0,69,o),
(102,-25,o),
(234,-25,cs),
(366,-25,o),
(475,69,o),
(475,225,c)
);
},
{
closed = 1;
nodes = (
(72,864,o),
(111,825,o),
(160,825,cs),
(208,825,o),
(247,864,o),
(247,913,cs),
(247,961,o),
(208,1000,o),
(160,1000,cs),
(111,1000,o),
(72,961,o),
(72,913,cs)
);
},
{
closed = 1;
nodes = (
(372,864,o),
(411,825,o),
(460,825,cs),
(508,825,o),
(547,864,o),
(547,913,cs),
(547,961,o),
(508,1000,o),
(460,1000,cs),
(411,1000,o),
(372,961,o),
(372,913,cs)
);
}
);
width = 900;
}
);
unicode = 252;
},
{
glyphname = ydieresis;
layers = (
{
layerId = "4ABAD10E-E2F0-4AE3-B256-BB359D6F81D7";
shapes = (
{
closed = 1;
nodes = (
(50,-290,l),
(50,-290,o),
(160,-325,o),
(299,-325,cs),
(553,-325,o),
(700,-209,o),
(700,-35,cs),
(700,700,l),
(500,700,l),
(500,-35,ls),
(500,-173,o),
(436,-225,o),
(276,-225,cs),
(140,-225,o),
(50,-187,o),
(50,-187,c)
);
},
{
closed = 1;
nodes = (
(500,275,l),
(500,169,o),
(440,100,o),
(350,100,cs),
(256,100,o),
(200,166,o),
(200,275,cs),
(200,700,l),
(0,700,l),
(0,250,ls),
(0,90,o),
(123,-25,o),
(284,-25,cs),
(443,-25,o),
(575,88,o),
(575,275,c)
);
},
{
closed = 1;
nodes = (
(112,864,o),
(151,825,o),
(200,825,cs),
(248,825,o),
(287,864,o),
(287,913,cs),
(287,961,o),
(248,1000,o),
(200,1000,cs),
(151,1000,o),
(112,961,o),
(112,913,cs)
);
},
{
closed = 1;
nodes = (
(412,864,o),
(451,825,o),
(500,825,cs),
(548,825,o),
(587,864,o),
(587,913,cs),
(587,961,o),
(548,1000,o),
(500,1000,cs),
(451,1000,o),
(412,961,o),
(412,913,cs)
);
}
);
width = 900;
}
);
unicode = 255;
},
{
glyphname = florin;
layers = (
{
layerId = "4ABAD10E-E2F0-4AE3-B256-BB359D6F81D7";
shapes = (
{
closed = 1;
nodes = (
(0,0,l),
(0,-118,o),
(102,-200,o),
(247,-200,cs),
(396,-200,o),
(500,-98,o),
(500,47,cs),
(500,500,l),
(700,500,l),
(700,600,l),
(500,600,l),
(500,865,ls),
(500,957,o),
(531,1000,o),
(580,1000,cs),
(620,1000,o),
(651,969,o),
(651,900,c),
(800,900,l),
(800,1018,o),
(698,1100,o),
(553,1100,cs),
(404,1100,o),
(300,998,o),
(300,853,cs),
(300,625,ls),
(300,607,o),
(293,600,o),
(275,600,cs),
(100,600,l),
(100,500,l),
(300,500,l),
(300,35,ls),
(300,-57,o),
(269,-100,o),
(220,-100,cs),
(180,-100,o),
(149,-69,o),
(149,0,c)
);
}
);
width = 900;
}
);
unicode = 402;
},
{
glyphname = Gamma;
layers = (
{
layerId = "4ABAD10E-E2F0-4AE3-B256-BB359D6F81D7";
shapes = (
{
closed = 1;
nodes = (
(600,800,ls),
(600,858,o),
(558,900,o),
(500,900,cs),
(200,900,l),
(200,0,l),
(0,0,l),
(0,1000,l),
(700,1000,l),
(700,700,l),
(600,700,l)
);
}
);
width = 900;
}
);
unicode = 915;
},
{
glyphname = Theta;
layers = (
{
layerId = "4ABAD10E-E2F0-4AE3-B256-BB359D6F81D7";
shapes = (
{
closed = 1;
nodes = (
(-25,117,o),
(87,-25,o),
(351,-25,cs),
(613,-25,o),
(725,117,o),
(725,450,cs),
(725,784,o),
(613,925,o),
(351,925,cs),
(86,925,o),
(-25,784,o),
(-25,450,cs)
);
},
{
closed = 1;
nodes = (
(175,714,o),
(227,825,o),
(350,825,cs),
(473,825,o),
(525,714,o),
(525,450,cs),
(525,188,o),
(473,75,o),
(350,75,cs),
(227,75,o),
(175,188,o),
(175,450,cs)
);
},
{
closed = 1;
nodes = (
(100,400,l),
(625,400,l),
(625,500,l),
(100,500,l)
);
}
);
width = 900;
}
);
unicode = 920;
},
{
glyphname = Sigma;
layers = (
{
layerId = "4ABAD10E-E2F0-4AE3-B256-BB359D6F81D7";
shapes = (
{
closed = 1;
nodes = (
(540,450,l),
(200,840,l),
(0,800,l),
(310,450,l),
(0,100,l),
(200,60,l)
);
},
{
closed = 1;
nodes = (
(-1,100,l),
(-1,0,l),
(700,0,l),
(700,200,l),
(600,200,l),
(600,135,o),
(565,100,o),
(500,100,c)
);
},
{
closed = 1;
nodes = (
(0,800,l),
(501,800,l),
(566,800,o),
(601,765,o),
(601,700,c),
(701,700,l),
(701,900,l),
(0,900,l)
);
}
);
width = 900;
}
);
unicode = 931;
},
{
glyphname = Phi;
layers = (
{
layerId = "4ABAD10E-E2F0-4AE3-B256-BB359D6F81D7";
shapes = (
{
closed = 1;
nodes = (
(300,250,l),
(300,118,l),
(297,107,o),
(288,100,o),
(276,100,cs),
(100,100,l),
(101,0,l),
(700,0,l),
(701,100,l),
(525,100,ls),
(513,100,o),
(504,107,o),
(501,118,c),
(501,250,l)
);
},
{
closed = 1;
nodes = (
(88,274,o),
(200,175,o),
(401,175,cs),
(601,175,o),
(713,273,o),
(713,450,cs),
(713,628,o),
(600,725,o),
(401,725,cs),
(198,725,o),
(88,628,o),
(88,450,cs)
);
},
{
closed = 1;
nodes = (
(278,573,o),
(319,635,o),
(400,635,cs),
(480,635,o),
(523,572,o),
(523,450,cs),
(523,328,o),
(481,265,o),
(401,265,cs),
(320,265,o),
(278,329,o),
(278,450,cs)
);
},
{
closed = 1;
nodes = (
(300,650,l),
(501,650,l),
(501,782,l),
(504,793,o),
(513,800,o),
(525,800,cs),
(701,800,l),
(700,900,l),
(101,900,l),
(100,800,l),
(276,800,ls),
(288,800,o),
(297,793,o),
(300,782,c)
);
}
);
width = 900;
}
);
unicode = 934;
},
{
glyphname = uni03A9;
layers = (
{
layerId = "4ABAD10E-E2F0-4AE3-B256-BB359D6F81D7";
shapes = (
{
closed = 1;
nodes = (
(100,111,o),
(89,100,o),
(75,100,cs),
(0,100,l),
(0,0,l),
(300,0,l),
(300,375,o),
(200,414,o),
(200,643,cs),
(200,804,o),
(249,900,o),
(350,900,cs),
(451,900,o),
(500,804,o),
(500,643,cs),
(500,414,o),
(400,375,o),
(400,0,c),
(700,0,l),
(700,100,l),
(625,100,ls),
(611,100,o),
(600,111,o),
(600,125,cs),
(600,335,o),
(700,461,o),
(700,634,cs),
(700,860,o),
(566,1000,o),
(350,1000,cs),
(134,1000,o),
(0,860,o),
(0,634,cs),
(0,461,o),
(100,335,o),
(100,125,cs)
);
}
);
width = 900;
}
);
unicode = 937;
},
{
glyphname = alpha;
layers = (
{
layerId = "4ABAD10E-E2F0-4AE3-B256-BB359D6F81D7";
shapes = (
{
closed = 1;
nodes = (
(475,700,l),
(410,600,l),
(410,154,l),
(500,0,l),
(700,0,l),
(700,100,l),
(625,100,ls),
(611,100,o),
(600,111,o),
(600,125,cs),
(600,700,l)
);
},
{
closed = 1;
nodes = (
(481,377,l),
(475,602,o),
(386,725,o),
(229,725,cs),
(69,725,o),
(-22,592,o),
(-22,350,cs),
(-22,109,o),
(69,-25,o),
(240,-25,cs),
(402,-25,o),
(495,94,o),
(495,311,c)
);
},
{
closed = 1;
nodes = (
(410,177,o),
(370,85,o),
(293,85,cs),
(218,85,o),
(178,176,o),
(178,350,cs),
(178,524,o),
(220,615,o),
(295,615,cs),
(372,615,o),
(410,525,o),
(410,350,cs)
);
}
);
width = 900;
}
);
unicode = 945;
},
{
glyphname = delta;
layers = (
{
layerId = "4ABAD10E-E2F0-4AE3-B256-BB359D6F81D7";
shapes = (
{
closed = 1;
nodes = (
(88,92,o),
(200,-25,o),
(401,-25,cs),
(601,-25,o),
(713,91,o),
(713,300,cs),
(713,510,o),
(600,625,o),
(401,625,cs),
(198,625,o),
(88,510,o),
(88,300,cs)
);
},
{
closed = 1;
nodes = (
(288,450,o),
(325,525,o),
(400,525,cs),
(474,525,o),
(513,449,o),
(513,300,cs),
(513,151,o),
(475,75,o),
(401,75,cs),
(326,75,o),
(288,152,o),
(288,300,cs)
);
},
{
closed = 1;
nodes = (
(700,900,l),
(700,1000,l),
(375,1000,ls),
(261,1000,o),
(200,945,o),
(200,877,cs),
(200,731,o),
(486,650,o),
(486,475,c),
(713,300,l),
(713,667,o),
(400,768,o),
(400,862,cs),
(400,885,o),
(419,900,o),
(450,900,cs)
);
}
);
width = 900;
}
);
unicode = 948;
},
{
glyphname = epsilon;
layers = (
{
layerId = "4ABAD10E-E2F0-4AE3-B256-BB359D6F81D7";
shapes = (
{
closed = 1;
nodes = (
(598,75,l),
(354,75,o),
(275,177,o),
(275,502,cs),
(275,823,o),
(352,925,o),
(598,925,c),
(598,1025,l),
(228,1025,o),
(75,872,o),
(75,501,cs),
(75,130,o),
(228,-25,o),
(598,-25,c)
);
},
{
closed = 1;
nodes = (
(150,450,l),
(600,450,l),
(600,550,l),
(150,550,l)
);
}
);
width = 900;
}
);
unicode = 949;
},
{
glyphname = pi;
layers = (
{
layerId = "4ABAD10E-E2F0-4AE3-B256-BB359D6F81D7";
shapes = (
{
closed = 1;
nodes = (
(400,0,l),
(400,700,l),
(300,700,l),
(300,0,l),
(100,0,l),
(100,700,l),
(0,700,l),
(0,800,l),
(700,800,l),
(700,700,l),
(600,700,l),
(600,0,l)
);
}
);
width = 900;
}
);
unicode = 960;
},
{
glyphname = sigma;
layers = (
{
layerId = "4ABAD10E-E2F0-4AE3-B256-BB359D6F81D7";
shapes = (
{
closed = 1;
nodes = (
(325,350,ls),
(325,158,o),
(303,75,o),
(250,75,cs),
(197,75,o),
(175,154,o),
(175,338,cs),
(175,522,o),
(215,600,o),
(310,600,cs),
(700,600,l),
(700,700,l),
(300,700,ls),
(70,700,o),
(-25,593,o),
(-25,338,cs),
(-25,83,o),
(57,-25,o),
(251,-25,cs),
(443,-25,o),
(525,87,o),
(525,350,cs),
(525,640,l),
(325,640,l)
);
}
);
width = 900;
}
);
unicode = 963;
},
{
glyphname = tau;
layers = (
{
layerId = "4ABAD10E-E2F0-4AE3-B256-BB359D6F81D7";
shapes = (
{
closed = 1;
nodes = (
(300,0,l),
(300,700,l),
(200,700,ls),
(135,700,o),
(100,665,o),
(100,600,c),
(0,600,l),
(0,728,o),
(72,800,o),
(200,800,cs),
(701,800,l),
(701,700,l),
(500,700,l),
(500,0,l)
);
}
);
width = 900;
}
);
unicode = 964;
},
{
glyphname = phi;
layers = (
{
layerId = "4ABAD10E-E2F0-4AE3-B256-BB359D6F81D7";
shapes = (
{
closed = 1;
nodes = (
(332,709,o),
(280,654,o),
(280,523,cs),
(280,-174,l),
(420,-174,l),
(420,508,ls),
(420,575,o),
(439,601,o),
(468,601,cs),
(521,601,o),
(553,517,o),
(553,400,cs),
(553,251,o),
(482,175,o),
(346,175,cs),
(209,175,o),
(138,256,o),
(138,412,cs),
(138,505,o),
(166,571,o),
(225,607,c),
(225,711,l),
(70,675,o),
(-12,568,o),
(-12,400,cs),
(-12,192,o),
(118,75,o),
(351,75,cs),
(583,75,o),
(713,191,o),
(713,400,cs),
(713,564,o),
(586,709,o),
(429,709,cs)
);
}
);
width = 900;
}
);
unicode = 966;
},
{
glyphname = bullet;
layers = (
{
layerId = "4ABAD10E-E2F0-4AE3-B256-BB359D6F81D7";
shapes = (
{
closed = 1;
nodes = (
(175,276,o),
(276,175,o),
(400,175,cs),
(524,175,o),
(625,276,o),
(625,400,cs),
(625,524,o),
(524,625,o),
(400,625,cs),
(276,625,o),
(175,524,o),
(175,400,cs)
);
}
);
width = 900;
}
);
unicode = 8226;
},
{
glyphname = exclamdbl;
layers = (
{
layerId = "4ABAD10E-E2F0-4AE3-B256-BB359D6F81D7";
shapes = (
{
closed = 1;
nodes = (
(256,300,l),
(271,620,o),
(346,734,o),
(346,857,cs),
(346,965,o),
(289,1020,o),
(201,1020,cs),
(113,1020,o),
(56,965,o),
(56,857,cs),
(56,734,o),
(131,620,o),
(146,300,c)
);
},
{
closed = 1;
nodes = (
(89,37,o),
(139,-13,o),
(201,-13,cs),
(263,-13,o),
(314,37,o),
(314,100,cs),
(314,162,o),
(263,212,o),
(201,212,cs),
(139,212,o),
(89,162,o),
(89,100,cs)
);
},
{
closed = 1;
nodes = (
(656,300,l),
(671,620,o),
(746,734,o),
(746,857,cs),
(746,965,o),
(689,1020,o),
(601,1020,cs),
(513,1020,o),
(456,965,o),
(456,857,cs),
(456,734,o),
(531,620,o),
(546,300,c)
);
},
{
closed = 1;
nodes = (
(489,37,o),
(539,-13,o),
(601,-13,cs),
(663,-13,o),
(714,37,o),
(714,100,cs),
(714,162,o),
(663,212,o),
(601,212,cs),
(539,212,o),
(489,162,o),
(489,100,cs)
);
}
);
width = 900;
}
);
unicode = 8252;
},
{
glyphname = uni207F;
layers = (
{
layerId = "4ABAD10E-E2F0-4AE3-B256-BB359D6F81D7";
shapes = (
{
closed = 1;
nodes = (
(75,1000,ls),
(89,1000,o),
(100,987,o),
(100,971,cs),
(100,500,l),
(280,500,l),
(280,974,l),
(187,1100,l),
(0,1100,l),
(0,1000,l)
);
},
{
closed = 1;
nodes = (
(280,915,l),
(280,967,o),
(308,1000,o),
(350,1000,cs),
(394,1000,o),
(420,969,o),
(420,915,cs),
(420,500,l),
(600,500,l),
(600,940,ls),
(600,1043,o),
(512,1125,o),
(406,1125,cs),
(303,1125,o),
(215,1047,o),
(215,915,c)
);
}
);
width = 900;
}
);
unicode = 8319;
},
{
glyphname = peseta;
layers = (
{
layerId = "4ABAD10E-E2F0-4AE3-B256-BB359D6F81D7";
shapes = (
{
closed = 1;
nodes = (
(0,0,l),
(400,0,l),
(400,100,l),
(325,100,ls),
(310,100,o),
(300,111,o),
(300,125,cs),
(300,975,l),
(300,990,o),
(311,1000,o),
(325,1000,c),
(408,1000,ls),
(491,1000,o),
(525,971,o),
(525,900,cs),
(525,830,o),
(497,800,o),
(430,800,cs),
(250,800,l),
(250,700,l),
(480,700,ls),
(643,700,o),
(725,766,o),
(725,900,cs),
(725,1034,o),
(645,1100,o),
(481,1100,cs),
(0,1100,l),
(0,1000,l),
(75,1000,ls),
(89,1000,o),
(100,989,o),
(100,975,cs),
(100,125,ls),
(100,111,o),
(90,100,o),
(75,100,cs),
(0,100,l)
);
},
{
closed = 1;
nodes = (
(400,499,l),
(400,399,l),
(500,399,l),
(500,150,l),
(500,61,o),
(569,0,o),
(676,0,c),
(800,0,l),
(800,99,l),
(694,99,o),
(700,88,o),
(700,214,cs),
(700,399,l),
(800,399,l),
(800,499,l),
(700,499,l),
(700,649,l),
(586,649,l),
(586,550,o),
(527,499,o),
(411,499,c)
);
}
);
width = 900;
}
);
unicode = 8359;
},
{
glyphname = arrowleft;
layers = (
{
layerId = "4ABAD10E-E2F0-4AE3-B256-BB359D6F81D7";
shapes = (
{
closed = 1;
nodes = (
(275,150,l),
(275,400,l),
(700,400,l),
(700,500,l),
(275,500,l),
(275,750,l),
(-25,450,l)
);
}
);
width = 900;
}
);
unicode = 8592;
},
{
glyphname = arrowup;
layers = (
{
layerId = "4ABAD10E-E2F0-4AE3-B256-BB359D6F81D7";
shapes = (
{
closed = 1;
nodes = (
(50,700,l),
(400,1050,l),
(750,700,l),
(500,700,l),
(500,0,l),
(300,0,l),
(300,700,l)
);
}
);
width = 900;
}
);
unicode = 8593;
},
{
glyphname = arrowright;
layers = (
{
layerId = "4ABAD10E-E2F0-4AE3-B256-BB359D6F81D7";
shapes = (
{
closed = 1;
nodes = (
(425,150,l),
(725,450,l),
(425,750,l),
(425,500,l),
(0,500,l),
(0,400,l),
(425,400,l)
);
}
);
width = 900;
}
);
unicode = 8594;
},
{
glyphname = arrowdown;
layers = (
{
layerId = "4ABAD10E-E2F0-4AE3-B256-BB359D6F81D7";
shapes = (
{
closed = 1;
nodes = (
(50,300,l),
(300,300,l),
(300,1000,l),
(500,1000,l),
(500,300,l),
(750,300,l),
(400,-50,l)
);
}
);
width = 900;
}
);
unicode = 8595;
},
{
glyphname = arrowboth;
layers = (
{
layerId = "4ABAD10E-E2F0-4AE3-B256-BB359D6F81D7";
shapes = (
{
closed = 1;
nodes = (
(525,150,l),
(825,450,l),
(525,750,l),
(525,500,l),
(100,500,l),
(100,400,l),
(525,400,l)
);
},
{
closed = 1;
nodes = (
(275,150,l),
(275,400,l),
(700,400,l),
(700,500,l),
(275,500,l),
(275,750,l),
(-25,450,l)
);
}
);
width = 900;
}
);
unicode = 8596;
},
{
glyphname = arrowupdn;
lastChange = "2024-12-06 16:14:07 +0000";
layers = (
{
layerId = "4ABAD10E-E2F0-4AE3-B256-BB359D6F81D7";
shapes = (
{
closed = 1;
nodes = (
(50,400,l),
(300,400,l),
(300,700,l),
(50,700,l),
(400,1050,l),
(750,700,l),
(500,700,l),
(500,400,l),
(750,400,l),
(400,50,l)
);
}
);
width = 900;
}
);
unicode = 8597;
},
{
glyphname = arrowupdnbse;
lastChange = "2024-12-06 16:13:47 +0000";
layers = (
{
layerId = "4ABAD10E-E2F0-4AE3-B256-BB359D6F81D7";
shapes = (
{
closed = 1;
nodes = (
(50,500,l),
(300,500,l),
(300,700,l),
(50,700,l),
(400,1050,l),
(750,700,l),
(500,700,l),
(500,500,l),
(750,500,l),
(400,150,l)
);
},
{
closed = 1;
nodes = (
(100,100,l),
(700,100,l),
(700,0,l),
(100,0,l)
);
}
);
width = 900;
}
);
unicode = 8616;
},
{
glyphname = uni2219;
layers = (
{
layerId = "4ABAD10E-E2F0-4AE3-B256-BB359D6F81D7";
shapes = (
{
closed = 1;
nodes = (
(300,300,l),
(500,300,l),
(500,500,l),
(300,500,l)
);
}
);
width = 900;
}
);
unicode = 8729;
},
{
glyphname = radical;
layers = (
{
layerId = "4ABAD10E-E2F0-4AE3-B256-BB359D6F81D7";
shapes = (
{
closed = 1;
nodes = (
(0,500,l),
(137,500,l),
(400,150,l),
(400,1100,l),
(800,1100,l),
(800,1000,l),
(600,1000,l),
(600,0,l),
(375,0,l)
);
}
);
width = 900;
}
);
unicode = 8730;
},
{
glyphname = infinity;
layers = (
{
layerId = "4ABAD10E-E2F0-4AE3-B256-BB359D6F81D7";
shapes = (
{
closed = 1;
nodes = (
(366,200,o),
(446,290,o),
(446,450,cs),
(446,610,o),
(367,700,o),
(223,700,cs),
(79,700,o),
(0,609,o),
(0,450,cs),
(0,287,o),
(79,200,o),
(223,200,cs)
);
},
{
closed = 1;
nodes = (
(186,351,o),
(150,382,o),
(150,449,cs),
(150,515,o),
(189,549,o),
(261,549,cs),
(336,549,o),
(372,515,o),
(372,450,cs),
(372,385,o),
(333,351,o),
(261,351,cs)
);
},
{
closed = 1;
nodes = (
(739,200,o),
(818,287,o),
(818,450,cs),
(818,609,o),
(739,700,o),
(595,700,cs),
(451,700,o),
(372,610,o),
(372,450,cs),
(372,290,o),
(452,200,o),
(595,200,cs)
);
},
{
closed = 1;
nodes = (
(485,351,o),
(446,385,o),
(446,450,cs),
(446,515,o),
(482,549,o),
(557,549,cs),
(629,549,o),
(668,515,o),
(668,449,cs),
(668,382,o),
(632,351,o),
(557,351,cs)
);
}
);
width = 900;
}
);
unicode = 8734;
},
{
glyphname = orthogonal;
layers = (
{
layerId = "4ABAD10E-E2F0-4AE3-B256-BB359D6F81D7";
shapes = (
{
closed = 1;
nodes = (
(0,200,l),
(0,600,l),
(200,600,l),
(200,300,l),
(700,300,l),
(700,200,l)
);
}
);
width = 900;
}
);
unicode = 8735;
},
{
glyphname = intersection;
layers = (
{
layerId = "4ABAD10E-E2F0-4AE3-B256-BB359D6F81D7";
shapes = (
{
closed = 1;
nodes = (
(0,-25,l),
(200,-25,l),
(200,625,ls),
(200,753,o),
(240,800,o),
(350,800,cs),
(460,800,o),
(500,753,o),
(500,625,cs),
(500,-25,l),
(700,-25,l),
(700,625,ls),
(700,804,o),
(578,900,o),
(350,900,cs),
(122,900,o),
(0,804,o),
(0,625,cs)
);
}
);
width = 900;
}
);
unicode = 8745;
},
{
glyphname = approxequal;
layers = (
{
layerId = "4ABAD10E-E2F0-4AE3-B256-BB359D6F81D7";
shapes = (
{
closed = 1;
nodes = (
(0,530,l),
(47,571,o),
(134,600,o),
(189,600,cs),
(290,600,o),
(345,500,o),
(495,500,cs),
(571,500,o),
(649,526,o),
(700,567,c),
(700,667,l),
(649,625,o),
(551,597,o),
(494,597,cs),
(385,597,o),
(330,700,o),
(188,700,cs),
(114,700,o),
(47,672,o),
(0,632,c)
);
},
{
closed = 1;
nodes = (
(0,230,l),
(47,271,o),
(134,300,o),
(189,300,cs),
(290,300,o),
(345,200,o),
(495,200,cs),
(571,200,o),
(649,226,o),
(700,267,c),
(700,367,l),
(649,325,o),
(551,297,o),
(494,297,cs),
(385,297,o),
(330,400,o),
(188,400,cs),
(114,400,o),
(47,372,o),
(0,332,c)
);
}
);
width = 900;
}
);
unicode = 8776;
},
{
glyphname = equivalence;
layers = (
{
layerId = "4ABAD10E-E2F0-4AE3-B256-BB359D6F81D7";
shapes = (
{
closed = 1;
nodes = (
(0,100,l),
(0,200,l),
(700,200,l),
(700,100,l)
);
},
{
closed = 1;
nodes = (
(0,400,l),
(0,500,l),
(700,500,l),
(700,400,l)
);
},
{
closed = 1;
nodes = (
(0,700,l),
(0,800,l),
(700,800,l),
(700,700,l)
);
}
);
width = 900;
}
);
unicode = 8801;
},
{
glyphname = lessequal;
layers = (
{
layerId = "4ABAD10E-E2F0-4AE3-B256-BB359D6F81D7";
shapes = (
{
closed = 1;
nodes = (
(650,200,l),
(300,550,l),
(650,900,l),
(450,900,l),
(100,550,l),
(450,200,l)
);
},
{
closed = 1;
nodes = (
(100,0,l),
(700,0,l),
(700,100,l),
(100,100,l)
);
}
);
width = 900;
}
);
unicode = 8804;
},
{
glyphname = greaterequal;
layers = (
{
layerId = "4ABAD10E-E2F0-4AE3-B256-BB359D6F81D7";
shapes = (
{
closed = 1;
nodes = (
(150,200,l),
(350,200,l),
(700,550,l),
(350,900,l),
(150,900,l),
(500,550,l)
);
},
{
closed = 1;
nodes = (
(100,0,l),
(700,0,l),
(700,100,l),
(100,100,l)
);
}
);
width = 900;
}
);
unicode = 8805;
},
{
glyphname = house;
layers = (
{
layerId = "4ABAD10E-E2F0-4AE3-B256-BB359D6F81D7";
shapes = (
{
closed = 1;
nodes = (
(150,250,l),
(150,420,l),
(350,620,l),
(550,420,l),
(550,250,l)
);
},
{
closed = 1;
nodes = (
(0,100,l),
(700,100,l),
(701,476,l),
(350,827,l),
(-1,476,l)
);
}
);
width = 900;
}
);
unicode = 8962;
},
{
glyphname = revlogicalnot;
layers = (
{
layerId = "4ABAD10E-E2F0-4AE3-B256-BB359D6F81D7";
shapes = (
{
closed = 1;
nodes = (
(0,100,l),
(0,600,l),
(700,600,l),
(700,500,l),
(200,500,l),
(200,100,l)
);
}
);
width = 900;
}
);
unicode = 8976;
},
{
glyphname = integraltp;
layers = (
{
layerId = "4ABAD10E-E2F0-4AE3-B256-BB359D6F81D7";
shapes = (
{
closed = 1;
nodes = (
(800,825,ls),
(800,939,o),
(713,1000,o),
(550,1000,cs),
(388,1000,o),
(300,939,o),
(300,825,cs),
(300,-400,l),
(500,-400,l),
(500,825,ls),
(500,880,o),
(514,900,o),
(550,900,cs),
(587,900,o),
(600,880,o),
(600,825,cs),
(600,700,l),
(800,700,l)
);
}
);
width = 900;
}
);
unicode = 8992;
},
{
glyphname = integralbt;
layers = (
{
layerId = "4ABAD10E-E2F0-4AE3-B256-BB359D6F81D7";
shapes = (
{
closed = 1;
nodes = (
(0,175,ls),
(0,61,o),
(87,0,o),
(250,0,cs),
(412,0,o),
(500,61,o),
(500,175,cs),
(500,1200,l),
(300,1200,l),
(300,175,ls),
(300,120,o),
(286,100,o),
(250,100,cs),
(213,100,o),
(200,120,o),
(200,175,cs),
(200,400,l),
(0,400,l)
);
}
);
width = 900;
}
);
unicode = 8993;
},
{
glyphname = SF100000;
layers = (
{
layerId = "4ABAD10E-E2F0-4AE3-B256-BB359D6F81D7";
shapes = (
{
closed = 1;
nodes = (
(0,400,l),
(900,400,l),
(900,500,l),
(0,500,l)
);
}
);
width = 900;
}
);
unicode = 9472;
},
{
glyphname = SF110000;
layers = (
{
layerId = "4ABAD10E-E2F0-4AE3-B256-BB359D6F81D7";
shapes = (
{
closed = 1;
nodes = (
(300,-400,l),
(500,-400,l),
(500,1200,l),
(300,1200,l)
);
}
);
width = 900;
}
);
unicode = 9474;
},
{
glyphname = SF010000;
layers = (
{
layerId = "4ABAD10E-E2F0-4AE3-B256-BB359D6F81D7";
shapes = (
{
closed = 1;
nodes = (
(400,400,l),
(900,400,l),
(900,500,l),
(400,500,l)
);
},
{
closed = 1;
nodes = (
(300,-400,l),
(500,-400,l),
(500,500,l),
(300,500,l)
);
}
);
width = 900;
}
);
unicode = 9484;
},
{
glyphname = SF030000;
layers = (
{
layerId = "4ABAD10E-E2F0-4AE3-B256-BB359D6F81D7";
shapes = (
{
closed = 1;
nodes = (
(0,400,l),
(425,400,l),
(425,500,l),
(0,500,l)
);
},
{
closed = 1;
nodes = (
(300,-400,l),
(500,-400,l),
(500,500,l),
(300,500,l)
);
}
);
width = 900;
}
);
unicode = 9488;
},
{
glyphname = SF020000;
layers = (
{
layerId = "4ABAD10E-E2F0-4AE3-B256-BB359D6F81D7";
shapes = (
{
closed = 1;
nodes = (
(400,400,l),
(900,400,l),
(900,500,l),
(400,500,l)
);
},
{
closed = 1;
nodes = (
(300,400,l),
(500,400,l),
(500,1200,l),
(300,1200,l)
);
}
);
width = 900;
}
);
unicode = 9492;
},
{
glyphname = SF040000;
layers = (
{
layerId = "4ABAD10E-E2F0-4AE3-B256-BB359D6F81D7";
shapes = (
{
closed = 1;
nodes = (
(0,400,l),
(425,400,l),
(425,500,l),
(0,500,l)
);
},
{
closed = 1;
nodes = (
(300,400,l),
(500,400,l),
(500,1200,l),
(300,1200,l)
);
}
);
width = 900;
}
);
unicode = 9496;
},
{
glyphname = SF080000;
layers = (
{
layerId = "4ABAD10E-E2F0-4AE3-B256-BB359D6F81D7";
shapes = (
{
closed = 1;
nodes = (
(400,400,l),
(900,400,l),
(900,500,l),
(400,500,l)
);
},
{
closed = 1;
nodes = (
(300,-400,l),
(500,-400,l),
(500,1200,l),
(300,1200,l)
);
}
);
width = 900;
}
);
unicode = 9500;
},
{
glyphname = SF090000;
layers = (
{
layerId = "4ABAD10E-E2F0-4AE3-B256-BB359D6F81D7";
shapes = (
{
closed = 1;
nodes = (
(0,400,l),
(400,400,l),
(400,500,l),
(0,500,l)
);
},
{
closed = 1;
nodes = (
(300,-400,l),
(500,-400,l),
(500,1200,l),
(300,1200,l)
);
}
);
width = 900;
}
);
unicode = 9508;
},
{
glyphname = SF060000;
layers = (
{
layerId = "4ABAD10E-E2F0-4AE3-B256-BB359D6F81D7";
shapes = (
{
closed = 1;
nodes = (
(0,400,l),
(900,400,l),
(900,500,l),
(0,500,l)
);
},
{
closed = 1;
nodes = (
(300,-400,l),
(500,-400,l),
(500,500,l),
(300,500,l)
);
}
);
width = 900;
}
);
unicode = 9516;
},
{
glyphname = SF070000;
layers = (
{
layerId = "4ABAD10E-E2F0-4AE3-B256-BB359D6F81D7";
shapes = (
{
closed = 1;
nodes = (
(0,400,l),
(900,400,l),
(900,500,l),
(0,500,l)
);
},
{
closed = 1;
nodes = (
(300,450,l),
(500,450,l),
(500,1200,l),
(300,1200,l)
);
}
);
width = 900;
}
);
unicode = 9524;
},
{
glyphname = SF050000;
layers = (
{
layerId = "4ABAD10E-E2F0-4AE3-B256-BB359D6F81D7";
shapes = (
{
closed = 1;
nodes = (
(0,400,l),
(900,400,l),
(900,500,l),
(0,500,l)
);
},
{
closed = 1;
nodes = (
(300,-400,l),
(500,-400,l),
(500,1200,l),
(300,1200,l)
);
}
);
width = 900;
}
);
unicode = 9532;
},
{
glyphname = SF430000;
layers = (
{
layerId = "4ABAD10E-E2F0-4AE3-B256-BB359D6F81D7";
shapes = (
{
closed = 1;
nodes = (
(0,400,l),
(900,400,l),
(900,500,l),
(0,500,l)
);
},
{
closed = 1;
nodes = (
(0,600,l),
(900,600,l),
(900,700,l),
(0,700,l)
);
}
);
width = 900;
}
);
unicode = 9552;
},
{
glyphname = SF240000;
layers = (
{
layerId = "4ABAD10E-E2F0-4AE3-B256-BB359D6F81D7";
shapes = (
{
closed = 1;
nodes = (
(200,-400,l),
(400,-400,l),
(400,1200,l),
(200,1200,l)
);
},
{
closed = 1;
nodes = (
(500,-400,l),
(700,-400,l),
(700,1200,l),
(500,1200,l)
);
}
);
width = 900;
}
);
unicode = 9553;
},
{
glyphname = SF510000;
layers = (
{
layerId = "4ABAD10E-E2F0-4AE3-B256-BB359D6F81D7";
shapes = (
{
closed = 1;
nodes = (
(425,400,l),
(900,400,l),
(900,500,l),
(425,500,l)
);
},
{
closed = 1;
nodes = (
(425,600,l),
(900,600,l),
(900,700,l),
(425,700,l)
);
},
{
closed = 1;
nodes = (
(300,-400,l),
(500,-400,l),
(500,700,l),
(300,700,l)
);
}
);
width = 900;
}
);
unicode = 9554;
},
{
glyphname = SF520000;
layers = (
{
layerId = "4ABAD10E-E2F0-4AE3-B256-BB359D6F81D7";
shapes = (
{
closed = 1;
nodes = (
(200,400,l),
(900,400,l),
(900,500,l),
(200,500,l)
);
},
{
closed = 1;
nodes = (
(200,-400,l),
(400,-400,l),
(400,450,l),
(200,450,l)
);
},
{
closed = 1;
nodes = (
(500,-400,l),
(700,-400,l),
(700,450,l),
(500,450,l)
);
}
);
width = 900;
}
);
unicode = 9555;
},
{
glyphname = SF390000;
layers = (
{
layerId = "4ABAD10E-E2F0-4AE3-B256-BB359D6F81D7";
shapes = (
{
closed = 1;
nodes = (
(500,400,l),
(900,400,l),
(900,500,l),
(500,500,l)
);
},
{
closed = 1;
nodes = (
(325,600,l),
(900,600,l),
(900,700,l),
(325,700,l)
);
},
{
closed = 1;
nodes = (
(200,-400,l),
(400,-400,l),
(400,700,l),
(200,700,l)
);
},
{
closed = 1;
nodes = (
(500,-400,l),
(700,-400,l),
(700,500,l),
(500,500,l)
);
}
);
width = 900;
}
);
unicode = 9556;
},
{
glyphname = SF220000;
layers = (
{
layerId = "4ABAD10E-E2F0-4AE3-B256-BB359D6F81D7";
shapes = (
{
closed = 1;
nodes = (
(0,400,l),
(400,400,l),
(400,500,l),
(0,500,l)
);
},
{
closed = 1;
nodes = (
(0,600,l),
(400,600,l),
(400,700,l),
(0,700,l)
);
},
{
closed = 1;
nodes = (
(300,-400,l),
(500,-400,l),
(500,700,l),
(300,700,l)
);
}
);
width = 900;
}
);
unicode = 9557;
},
{
glyphname = SF210000;
layers = (
{
layerId = "4ABAD10E-E2F0-4AE3-B256-BB359D6F81D7";
shapes = (
{
closed = 1;
nodes = (
(0,400,l),
(700,400,l),
(700,500,l),
(0,500,l)
);
},
{
closed = 1;
nodes = (
(200,-400,l),
(400,-400,l),
(400,450,l),
(200,450,l)
);
},
{
closed = 1;
nodes = (
(500,-400,l),
(700,-400,l),
(700,450,l),
(500,450,l)
);
}
);
width = 900;
}
);
unicode = 9558;
},
{
glyphname = SF250000;
layers = (
{
layerId = "4ABAD10E-E2F0-4AE3-B256-BB359D6F81D7";
shapes = (
{
closed = 1;
nodes = (
(400,400,l),
(400,500,l),
(0,500,l),
(0,400,l)
);
},
{
closed = 1;
nodes = (
(575,600,l),
(575,700,l),
(0,700,l),
(0,600,l)
);
},
{
closed = 1;
nodes = (
(700,-400,l),
(700,700,l),
(500,700,l),
(500,-400,l)
);
},
{
closed = 1;
nodes = (
(400,-400,l),
(400,500,l),
(200,500,l),
(200,-400,l)
);
}
);
width = 900;
}
);
unicode = 9559;
},
{
glyphname = SF500000;
layers = (
{
layerId = "4ABAD10E-E2F0-4AE3-B256-BB359D6F81D7";
shapes = (
{
closed = 1;
nodes = (
(425,400,l),
(900,400,l),
(900,500,l),
(425,500,l)
);
},
{
closed = 1;
nodes = (
(425,600,l),
(900,600,l),
(900,700,l),
(425,700,l)
);
},
{
closed = 1;
nodes = (
(300,400,l),
(500,400,l),
(500,1200,l),
(300,1200,l)
);
}
);
width = 900;
}
);
unicode = 9560;
},
{
glyphname = SF490000;
layers = (
{
layerId = "4ABAD10E-E2F0-4AE3-B256-BB359D6F81D7";
shapes = (
{
closed = 1;
nodes = (
(200,400,l),
(900,400,l),
(900,500,l),
(200,500,l)
);
},
{
closed = 1;
nodes = (
(200,475,l),
(400,475,l),
(400,1200,l),
(200,1200,l)
);
},
{
closed = 1;
nodes = (
(500,475,l),
(700,475,l),
(700,1200,l),
(500,1200,l)
);
}
);
width = 900;
}
);
unicode = 9561;
},
{
glyphname = SF380000;
layers = (
{
layerId = "4ABAD10E-E2F0-4AE3-B256-BB359D6F81D7";
shapes = (
{
closed = 1;
nodes = (
(500,700,l),
(500,600,l),
(900,600,l),
(900,700,l)
);
},
{
closed = 1;
nodes = (
(325,500,l),
(325,400,l),
(900,400,l),
(900,500,l)
);
},
{
closed = 1;
nodes = (
(200,1200,l),
(200,400,l),
(400,400,l),
(400,1200,l)
);
},
{
closed = 1;
nodes = (
(500,1200,l),
(500,600,l),
(700,600,l),
(700,1200,l)
);
}
);
width = 900;
}
);
unicode = 9562;
},
{
glyphname = SF280000;
layers = (
{
layerId = "4ABAD10E-E2F0-4AE3-B256-BB359D6F81D7";
shapes = (
{
closed = 1;
nodes = (
(0,400,l),
(475,400,l),
(475,500,l),
(0,500,l)
);
},
{
closed = 1;
nodes = (
(0,600,l),
(475,600,l),
(475,700,l),
(0,700,l)
);
},
{
closed = 1;
nodes = (
(300,400,l),
(500,400,l),
(500,1200,l),
(300,1200,l)
);
}
);
width = 900;
}
);
unicode = 9563;
},
{
glyphname = SF270000;
layers = (
{
layerId = "4ABAD10E-E2F0-4AE3-B256-BB359D6F81D7";
shapes = (
{
closed = 1;
nodes = (
(0,400,l),
(700,400,l),
(700,500,l),
(0,500,l)
);
},
{
closed = 1;
nodes = (
(200,475,l),
(400,475,l),
(400,1200,l),
(200,1200,l)
);
},
{
closed = 1;
nodes = (
(500,475,l),
(700,475,l),
(700,1200,l),
(500,1200,l)
);
}
);
width = 900;
}
);
unicode = 9564;
},
{
glyphname = SF260000;
layers = (
{
layerId = "4ABAD10E-E2F0-4AE3-B256-BB359D6F81D7";
shapes = (
{
closed = 1;
nodes = (
(400,700,l),
(0,700,l),
(0,600,l),
(400,600,l)
);
},
{
closed = 1;
nodes = (
(575,500,l),
(0,500,l),
(0,400,l),
(575,400,l)
);
},
{
closed = 1;
nodes = (
(700,1200,l),
(500,1200,l),
(500,400,l),
(700,400,l)
);
},
{
closed = 1;
nodes = (
(400,1200,l),
(200,1200,l),
(200,600,l),
(400,600,l)
);
}
);
width = 900;
}
);
unicode = 9565;
},
{
glyphname = SF360000;
layers = (
{
layerId = "4ABAD10E-E2F0-4AE3-B256-BB359D6F81D7";
shapes = (
{
closed = 1;
nodes = (
(425,400,l),
(900,400,l),
(900,500,l),
(425,500,l)
);
},
{
closed = 1;
nodes = (
(425,600,l),
(900,600,l),
(900,700,l),
(425,700,l)
);
},
{
closed = 1;
nodes = (
(300,-400,l),
(500,-400,l),
(500,1200,l),
(300,1200,l)
);
}
);
width = 900;
}
);
unicode = 9566;
},
{
glyphname = SF370000;
layers = (
{
layerId = "4ABAD10E-E2F0-4AE3-B256-BB359D6F81D7";
shapes = (
{
closed = 1;
nodes = (
(500,400,l),
(900,400,l),
(900,500,l),
(500,500,l)
);
},
{
closed = 1;
nodes = (
(200,-400,l),
(400,-400,l),
(400,1200,l),
(200,1200,l)
);
},
{
closed = 1;
nodes = (
(500,-400,l),
(700,-400,l),
(700,1200,l),
(500,1200,l)
);
}
);
width = 900;
}
);
unicode = 9567;
},
{
glyphname = SF420000;
layers = (
{
layerId = "4ABAD10E-E2F0-4AE3-B256-BB359D6F81D7";
shapes = (
{
closed = 1;
nodes = (
(500,700,l),
(500,600,l),
(900,600,l),
(900,700,l)
);
},
{
closed = 1;
nodes = (
(200,1200,l),
(200,-400,l),
(400,-400,l),
(400,1200,l)
);
},
{
closed = 1;
nodes = (
(500,1200,l),
(500,600,l),
(700,600,l),
(700,1200,l)
);
},
{
closed = 1;
nodes = (
(500,400,l),
(900,400,l),
(900,500,l),
(500,500,l)
);
},
{
closed = 1;
nodes = (
(500,-400,l),
(700,-400,l),
(700,500,l),
(500,500,l)
);
}
);
width = 900;
}
);
unicode = 9568;
},
{
glyphname = SF190000;
layers = (
{
layerId = "4ABAD10E-E2F0-4AE3-B256-BB359D6F81D7";
shapes = (
{
closed = 1;
nodes = (
(0,400,l),
(475,400,l),
(475,500,l),
(0,500,l)
);
},
{
closed = 1;
nodes = (
(0,600,l),
(475,600,l),
(475,700,l),
(0,700,l)
);
},
{
closed = 1;
nodes = (
(300,-400,l),
(500,-400,l),
(500,1200,l),
(300,1200,l)
);
}
);
width = 900;
}
);
unicode = 9569;
},
{
glyphname = SF200000;
layers = (
{
layerId = "4ABAD10E-E2F0-4AE3-B256-BB359D6F81D7";
shapes = (
{
closed = 1;
nodes = (
(0,400,l),
(300,400,l),
(300,500,l),
(0,500,l)
);
},
{
closed = 1;
nodes = (
(200,-400,l),
(400,-400,l),
(400,1200,l),
(200,1200,l)
);
},
{
closed = 1;
nodes = (
(500,-400,l),
(700,-400,l),
(700,1200,l),
(500,1200,l)
);
}
);
width = 900;
}
);
unicode = 9570;
},
{
glyphname = SF230000;
layers = (
{
layerId = "4ABAD10E-E2F0-4AE3-B256-BB359D6F81D7";
shapes = (
{
closed = 1;
nodes = (
(400,700,l),
(0,700,l),
(0,600,l),
(400,600,l)
);
},
{
closed = 1;
nodes = (
(700,1200,l),
(500,1200,l),
(500,-400,l),
(700,-400,l)
);
},
{
closed = 1;
nodes = (
(400,1200,l),
(200,1200,l),
(200,600,l),
(400,600,l)
);
},
{
closed = 1;
nodes = (
(400,400,l),
(400,500,l),
(0,500,l),
(0,400,l)
);
},
{
closed = 1;
nodes = (
(400,-400,l),
(400,500,l),
(200,500,l),
(200,-400,l)
);
}
);
width = 900;
}
);
unicode = 9571;
},
{
glyphname = SF470000;
layers = (
{
layerId = "4ABAD10E-E2F0-4AE3-B256-BB359D6F81D7";
shapes = (
{
closed = 1;
nodes = (
(0,400,l),
(900,400,l),
(900,500,l),
(0,500,l)
);
},
{
closed = 1;
nodes = (
(0,600,l),
(900,600,l),
(900,700,l),
(0,700,l)
);
},
{
closed = 1;
nodes = (
(300,-400,l),
(500,-400,l),
(500,500,l),
(300,500,l)
);
}
);
width = 900;
}
);
unicode = 9572;
},
{
glyphname = SF480000;
layers = (
{
layerId = "4ABAD10E-E2F0-4AE3-B256-BB359D6F81D7";
shapes = (
{
closed = 1;
nodes = (
(0,400,l),
(900,400,l),
(900,500,l),
(0,500,l)
);
},
{
closed = 1;
nodes = (
(200,-400,l),
(400,-400,l),
(400,500,l),
(200,500,l)
);
},
{
closed = 1;
nodes = (
(500,-400,l),
(700,-400,l),
(700,500,l),
(500,500,l)
);
}
);
width = 900;
}
);
unicode = 9573;
},
{
glyphname = SF410000;
layers = (
{
layerId = "4ABAD10E-E2F0-4AE3-B256-BB359D6F81D7";
shapes = (
{
closed = 1;
nodes = (
(0,400,l),
(300,400,l),
(300,500,l),
(0,500,l)
);
},
{
closed = 1;
nodes = (
(200,-400,l),
(400,-400,l),
(400,500,l),
(200,500,l)
);
},
{
closed = 1;
nodes = (
(500,-400,l),
(700,-400,l),
(700,500,l),
(500,500,l)
);
},
{
closed = 1;
nodes = (
(600,400,l),
(900,400,l),
(900,500,l),
(600,500,l)
);
},
{
closed = 1;
nodes = (
(0,600,l),
(900,600,l),
(900,700,l),
(0,700,l)
);
}
);
width = 900;
}
);
unicode = 9574;
},
{
glyphname = SF450000;
layers = (
{
layerId = "4ABAD10E-E2F0-4AE3-B256-BB359D6F81D7";
shapes = (
{
closed = 1;
nodes = (
(0,600,l),
(900,600,l),
(900,700,l),
(0,700,l)
);
},
{
closed = 1;
nodes = (
(0,400,l),
(900,400,l),
(900,500,l),
(0,500,l)
);
},
{
closed = 1;
nodes = (
(300,650,l),
(500,650,l),
(500,1200,l),
(300,1200,l)
);
}
);
width = 900;
}
);
unicode = 9575;
},
{
glyphname = SF460000;
layers = (
{
layerId = "4ABAD10E-E2F0-4AE3-B256-BB359D6F81D7";
shapes = (
{
closed = 1;
nodes = (
(0,400,l),
(900,400,l),
(900,500,l),
(0,500,l)
);
},
{
closed = 1;
nodes = (
(200,450,l),
(400,450,l),
(400,1200,l),
(200,1200,l)
);
},
{
closed = 1;
nodes = (
(500,450,l),
(700,450,l),
(700,1200,l),
(500,1200,l)
);
}
);
width = 900;
}
);
unicode = 9576;
},
{
glyphname = SF400000;
layers = (
{
layerId = "4ABAD10E-E2F0-4AE3-B256-BB359D6F81D7";
shapes = (
{
closed = 1;
nodes = (
(0,600,l),
(400,600,l),
(400,700,l),
(0,700,l)
);
},
{
closed = 1;
nodes = (
(0,400,l),
(900,400,l),
(900,500,l),
(0,500,l)
);
},
{
closed = 1;
nodes = (
(200,650,l),
(400,650,l),
(400,1200,l),
(200,1200,l)
);
},
{
closed = 1;
nodes = (
(900,600,l),
(900,700,l),
(500,700,l),
(500,600,l)
);
},
{
closed = 1;
nodes = (
(700,650,l),
(700,1200,l),
(500,1200,l),
(500,650,l)
);
}
);
width = 900;
}
);
unicode = 9577;
},
{
glyphname = SF540000;
layers = (
{
layerId = "4ABAD10E-E2F0-4AE3-B256-BB359D6F81D7";
shapes = (
{
closed = 1;
nodes = (
(0,400,l),
(900,400,l),
(900,500,l),
(0,500,l)
);
},
{
closed = 1;
nodes = (
(0,600,l),
(900,600,l),
(900,700,l),
(0,700,l)
);
},
{
closed = 1;
nodes = (
(300,-400,l),
(500,-400,l),
(500,1200,l),
(300,1200,l)
);
}
);
width = 900;
}
);
unicode = 9578;
},
{
glyphname = SF530000;
layers = (
{
layerId = "4ABAD10E-E2F0-4AE3-B256-BB359D6F81D7";
shapes = (
{
closed = 1;
nodes = (
(200,-400,l),
(400,-400,l),
(400,1200,l),
(200,1200,l)
);
},
{
closed = 1;
nodes = (
(500,-400,l),
(700,-400,l),
(700,1200,l),
(500,1200,l)
);
},
{
closed = 1;
nodes = (
(0,400,l),
(900,400,l),
(900,500,l),
(0,500,l)
);
}
);
width = 900;
}
);
unicode = 9579;
},
{
glyphname = SF440000;
layers = (
{
layerId = "4ABAD10E-E2F0-4AE3-B256-BB359D6F81D7";
shapes = (
{
closed = 1;
nodes = (
(0,600,l),
(400,600,l),
(400,700,l),
(0,700,l)
);
},
{
closed = 1;
nodes = (
(200,650,l),
(400,650,l),
(400,1200,l),
(200,1200,l)
);
},
{
closed = 1;
nodes = (
(900,600,l),
(900,700,l),
(500,700,l),
(500,600,l)
);
},
{
closed = 1;
nodes = (
(700,650,l),
(700,1200,l),
(500,1200,l),
(500,650,l)
);
},
{
closed = 1;
nodes = (
(0,500,l),
(0,400,l),
(400,400,l),
(400,500,l)
);
},
{
closed = 1;
nodes = (
(200,450,l),
(200,-400,l),
(400,-400,l),
(400,450,l)
);
},
{
closed = 1;
nodes = (
(900,500,l),
(500,500,l),
(500,400,l),
(900,400,l)
);
},
{
closed = 1;
nodes = (
(700,450,l),
(500,450,l),
(500,-400,l),
(700,-400,l)
);
}
);
width = 900;
}
);
unicode = 9580;
},
{
glyphname = upblock;
layers = (
{
layerId = "4ABAD10E-E2F0-4AE3-B256-BB359D6F81D7";
shapes = (
{
closed = 1;
nodes = (
(0,500,l),
(900,500,l),
(900,1200,l),
(0,1200,l)
);
}
);
width = 900;
}
);
unicode = 9600;
},
{
glyphname = dnblock;
layers = (
{
layerId = "4ABAD10E-E2F0-4AE3-B256-BB359D6F81D7";
shapes = (
{
closed = 1;
nodes = (
(0,-400,l),
(900,-400,l),
(900,500,l),
(0,500,l)
);
}
);
width = 900;
}
);
unicode = 9604;
},
{
glyphname = block;
layers = (
{
layerId = "4ABAD10E-E2F0-4AE3-B256-BB359D6F81D7";
shapes = (
{
closed = 1;
nodes = (
(0,-400,l),
(900,-400,l),
(900,1200,l),
(0,1200,l)
);
}
);
width = 900;
}
);
unicode = 9608;
},
{
glyphname = lfblock;
layers = (
{
layerId = "4ABAD10E-E2F0-4AE3-B256-BB359D6F81D7";
shapes = (
{
closed = 1;
nodes = (
(0,-400,l),
(400,-400,l),
(400,1200,l),
(0,1200,l)
);
}
);
width = 900;
}
);
unicode = 9612;
},
{
glyphname = rtblock;
layers = (
{
layerId = "4ABAD10E-E2F0-4AE3-B256-BB359D6F81D7";
shapes = (
{
closed = 1;
nodes = (
(400,-400,l),
(900,-400,l),
(900,1200,l),
(400,1200,l)
);
}
);
width = 900;
}
);
unicode = 9616;
},
{
glyphname = ltshade;
layers = (
{
layerId = "4ABAD10E-E2F0-4AE3-B256-BB359D6F81D7";
shapes = (
{
closed = 1;
nodes = (
(300,1122,o),
(322,1100,o),
(350,1100,cs),
(378,1100,o),
(400,1122,o),
(400,1150,cs),
(400,1178,o),
(378,1200,o),
(350,1200,cs),
(322,1200,o),
(300,1178,o),
(300,1150,cs)
);
},
{
closed = 1;
nodes = (
(100,1022,o),
(122,1000,o),
(150,1000,cs),
(178,1000,o),
(200,1022,o),
(200,1050,cs),
(200,1078,o),
(178,1100,o),
(150,1100,cs),
(122,1100,o),
(100,1078,o),
(100,1050,cs)
);
},
{
closed = 1;
nodes = (
(300,922,o),
(322,900,o),
(350,900,cs),
(378,900,o),
(400,922,o),
(400,950,cs),
(400,978,o),
(378,1000,o),
(350,1000,cs),
(322,1000,o),
(300,978,o),
(300,950,cs)
);
},
{
closed = 1;
nodes = (
(100,822,o),
(122,800,o),
(150,800,cs),
(178,800,o),
(200,822,o),
(200,850,cs),
(200,878,o),
(178,900,o),
(150,900,cs),
(122,900,o),
(100,878,o),
(100,850,cs)
);
},
{
closed = 1;
nodes = (
(700,1122,o),
(722,1100,o),
(750,1100,cs),
(778,1100,o),
(800,1122,o),
(800,1150,cs),
(800,1178,o),
(778,1200,o),
(750,1200,cs),
(722,1200,o),
(700,1178,o),
(700,1150,cs)
);
},
{
closed = 1;
nodes = (
(500,1022,o),
(522,1000,o),
(550,1000,cs),
(578,1000,o),
(600,1022,o),
(600,1050,cs),
(600,1078,o),
(578,1100,o),
(550,1100,cs),
(522,1100,o),
(500,1078,o),
(500,1050,cs)
);
},
{
closed = 1;
nodes = (
(700,922,o),
(722,900,o),
(750,900,cs),
(778,900,o),
(800,922,o),
(800,950,cs),
(800,978,o),
(778,1000,o),
(750,1000,cs),
(722,1000,o),
(700,978,o),
(700,950,cs)
);
},
{
closed = 1;
nodes = (
(500,822,o),
(522,800,o),
(550,800,cs),
(578,800,o),
(600,822,o),
(600,850,cs),
(600,878,o),
(578,900,o),
(550,900,cs),
(522,900,o),
(500,878,o),
(500,850,cs)
);
},
{
closed = 1;
nodes = (
(300,722,o),
(322,700,o),
(350,700,cs),
(378,700,o),
(400,722,o),
(400,750,cs),
(400,778,o),
(378,800,o),
(350,800,cs),
(322,800,o),
(300,778,o),
(300,750,cs)
);
},
{
closed = 1;
nodes = (
(100,622,o),
(122,600,o),
(150,600,cs),
(178,600,o),
(200,622,o),
(200,650,cs),
(200,678,o),
(178,700,o),
(150,700,cs),
(122,700,o),
(100,678,o),
(100,650,cs)
);
},
{
closed = 1;
nodes = (
(300,522,o),
(322,500,o),
(350,500,cs),
(378,500,o),
(400,522,o),
(400,550,cs),
(400,578,o),
(378,600,o),
(350,600,cs),
(322,600,o),
(300,578,o),
(300,550,cs)
);
},
{
closed = 1;
nodes = (
(100,422,o),
(122,400,o),
(150,400,cs),
(178,400,o),
(200,422,o),
(200,450,cs),
(200,478,o),
(178,500,o),
(150,500,cs),
(122,500,o),
(100,478,o),
(100,450,cs)
);
},
{
closed = 1;
nodes = (
(700,722,o),
(722,700,o),
(750,700,cs),
(778,700,o),
(800,722,o),
(800,750,cs),
(800,778,o),
(778,800,o),
(750,800,cs),
(722,800,o),
(700,778,o),
(700,750,cs)
);
},
{
closed = 1;
nodes = (
(500,622,o),
(522,600,o),
(550,600,cs),
(578,600,o),
(600,622,o),
(600,650,cs),
(600,678,o),
(578,700,o),
(550,700,cs),
(522,700,o),
(500,678,o),
(500,650,cs)
);
},
{
closed = 1;
nodes = (
(700,522,o),
(722,500,o),
(750,500,cs),
(778,500,o),
(800,522,o),
(800,550,cs),
(800,578,o),
(778,600,o),
(750,600,cs),
(722,600,o),
(700,578,o),
(700,550,cs)
);
},
{
closed = 1;
nodes = (
(500,422,o),
(522,400,o),
(550,400,cs),
(578,400,o),
(600,422,o),
(600,450,cs),
(600,478,o),
(578,500,o),
(550,500,cs),
(522,500,o),
(500,478,o),
(500,450,cs)
);
},
{
closed = 1;
nodes = (
(300,322,o),
(322,300,o),
(350,300,cs),
(378,300,o),
(400,322,o),
(400,350,cs),
(400,378,o),
(378,400,o),
(350,400,cs),
(322,400,o),
(300,378,o),
(300,350,cs)
);
},
{
closed = 1;
nodes = (
(100,222,o),
(122,200,o),
(150,200,cs),
(178,200,o),
(200,222,o),
(200,250,cs),
(200,278,o),
(178,300,o),
(150,300,cs),
(122,300,o),
(100,278,o),
(100,250,cs)
);
},
{
closed = 1;
nodes = (
(300,122,o),
(322,100,o),
(350,100,cs),
(378,100,o),
(400,122,o),
(400,150,cs),
(400,178,o),
(378,200,o),
(350,200,cs),
(322,200,o),
(300,178,o),
(300,150,cs)
);
},
{
closed = 1;
nodes = (
(100,22,o),
(122,0,o),
(150,0,cs),
(178,0,o),
(200,22,o),
(200,50,cs),
(200,78,o),
(178,100,o),
(150,100,cs),
(122,100,o),
(100,78,o),
(100,50,cs)
);
},
{
closed = 1;
nodes = (
(700,322,o),
(722,300,o),
(750,300,cs),
(778,300,o),
(800,322,o),
(800,350,cs),
(800,378,o),
(778,400,o),
(750,400,cs),
(722,400,o),
(700,378,o),
(700,350,cs)
);
},
{
closed = 1;
nodes = (
(500,222,o),
(522,200,o),
(550,200,cs),
(578,200,o),
(600,222,o),
(600,250,cs),
(600,278,o),
(578,300,o),
(550,300,cs),
(522,300,o),
(500,278,o),
(500,250,cs)
);
},
{
closed = 1;
nodes = (
(700,122,o),
(722,100,o),
(750,100,cs),
(778,100,o),
(800,122,o),
(800,150,cs),
(800,178,o),
(778,200,o),
(750,200,cs),
(722,200,o),
(700,178,o),
(700,150,cs)
);
},
{
closed = 1;
nodes = (
(500,22,o),
(522,0,o),
(550,0,cs),
(578,0,o),
(600,22,o),
(600,50,cs),
(600,78,o),
(578,100,o),
(550,100,cs),
(522,100,o),
(500,78,o),
(500,50,cs)
);
},
{
closed = 1;
nodes = (
(300,-78,o),
(322,-100,o),
(350,-100,cs),
(378,-100,o),
(400,-78,o),
(400,-50,cs),
(400,-22,o),
(378,0,o),
(350,0,cs),
(322,0,o),
(300,-22,o),
(300,-50,cs)
);
},
{
closed = 1;
nodes = (
(100,-178,o),
(122,-200,o),
(150,-200,cs),
(178,-200,o),
(200,-178,o),
(200,-150,cs),
(200,-122,o),
(178,-100,o),
(150,-100,cs),
(122,-100,o),
(100,-122,o),
(100,-150,cs)
);
},
{
closed = 1;
nodes = (
(300,-278,o),
(322,-300,o),
(350,-300,cs),
(378,-300,o),
(400,-278,o),
(400,-250,cs),
(400,-222,o),
(378,-200,o),
(350,-200,cs),
(322,-200,o),
(300,-222,o),
(300,-250,cs)
);
},
{
closed = 1;
nodes = (
(100,-378,o),
(122,-400,o),
(150,-400,cs),
(178,-400,o),
(200,-378,o),
(200,-350,cs),
(200,-322,o),
(178,-300,o),
(150,-300,cs),
(122,-300,o),
(100,-322,o),
(100,-350,cs)
);
},
{
closed = 1;
nodes = (
(700,-78,o),
(722,-100,o),
(750,-100,cs),
(778,-100,o),
(800,-78,o),
(800,-50,cs),
(800,-22,o),
(778,0,o),
(750,0,cs),
(722,0,o),
(700,-22,o),
(700,-50,cs)
);
},
{
closed = 1;
nodes = (
(500,-178,o),
(522,-200,o),
(550,-200,cs),
(578,-200,o),
(600,-178,o),
(600,-150,cs),
(600,-122,o),
(578,-100,o),
(550,-100,cs),
(522,-100,o),
(500,-122,o),
(500,-150,cs)
);
},
{
closed = 1;
nodes = (
(700,-278,o),
(722,-300,o),
(750,-300,cs),
(778,-300,o),
(800,-278,o),
(800,-250,cs),
(800,-222,o),
(778,-200,o),
(750,-200,cs),
(722,-200,o),
(700,-222,o),
(700,-250,cs)
);
},
{
closed = 1;
nodes = (
(500,-378,o),
(522,-400,o),
(550,-400,cs),
(578,-400,o),
(600,-378,o),
(600,-350,cs),
(600,-322,o),
(578,-300,o),
(550,-300,cs),
(522,-300,o),
(500,-322,o),
(500,-350,cs)
);
}
);
width = 900;
}
);
unicode = 9617;
},
{
glyphname = shade;
layers = (
{
layerId = "4ABAD10E-E2F0-4AE3-B256-BB359D6F81D7";
shapes = (
{
closed = 1;
nodes = (
(0,200,l),
(0,300,l),
(100,300,l),
(100,200,l)
);
},
{
closed = 1;
nodes = (
(0,0,l),
(0,100,l),
(100,100,l),
(100,0,l)
);
},
{
closed = 1;
nodes = (
(0,-200,l),
(0,-100,l),
(100,-100,l),
(100,-200,l)
);
},
{
closed = 1;
nodes = (
(0,400,l),
(0,500,l),
(100,500,l),
(100,400,l)
);
},
{
closed = 1;
nodes = (
(0,-400,l),
(0,-300,l),
(100,-300,l),
(100,-400,l)
);
},
{
closed = 1;
nodes = (
(0,600,l),
(0,700,l),
(100,700,l),
(100,600,l)
);
},
{
closed = 1;
nodes = (
(0,1000,l),
(0,1100,l),
(100,1100,l),
(100,1000,l)
);
},
{
closed = 1;
nodes = (
(0,800,l),
(0,900,l),
(100,900,l),
(100,800,l)
);
},
{
closed = 1;
nodes = (
(800,200,l),
(800,100,l),
(700,100,l),
(700,200,l)
);
},
{
closed = 1;
nodes = (
(800,0,l),
(800,-100,l),
(700,-100,l),
(700,0,l)
);
},
{
closed = 1;
nodes = (
(800,-200,l),
(800,-300,l),
(700,-300,l),
(700,-200,l)
);
},
{
closed = 1;
nodes = (
(800,500,l),
(700,500,l),
(700,600,l),
(800,600,l)
);
},
{
closed = 1;
nodes = (
(800,400,l),
(800,300,l),
(700,300,l),
(700,400,l)
);
},
{
closed = 1;
nodes = (
(800,700,l),
(700,700,l),
(700,800,l),
(800,800,l)
);
},
{
closed = 1;
nodes = (
(800,1000,l),
(800,900,l),
(700,900,l),
(700,1000,l)
);
},
{
closed = 1;
nodes = (
(800,1200,l),
(800,1100,l),
(700,1100,l),
(700,1200,l)
);
},
{
closed = 1;
nodes = (
(300,1100,l),
(300,1200,l),
(400,1200,l),
(400,1100,l)
);
},
{
closed = 1;
nodes = (
(300,200,l),
(400,200,l),
(400,100,l),
(300,100,l)
);
},
{
closed = 1;
nodes = (
(300,100,l),
(300,0,l),
(200,0,l),
(200,100,l)
);
},
{
closed = 1;
nodes = (
(300,0,l),
(400,0,l),
(400,-100,l),
(300,-100,l)
);
},
{
closed = 1;
nodes = (
(300,-100,l),
(300,-200,l),
(200,-200,l),
(200,-100,l)
);
},
{
closed = 1;
nodes = (
(300,-200,l),
(400,-200,l),
(400,-300,l),
(300,-300,l)
);
},
{
closed = 1;
nodes = (
(300,500,l),
(300,400,l),
(200,400,l),
(200,500,l)
);
},
{
closed = 1;
nodes = (
(300,400,l),
(400,400,l),
(400,300,l),
(300,300,l)
);
},
{
closed = 1;
nodes = (
(300,300,l),
(300,200,l),
(200,200,l),
(200,300,l)
);
},
{
closed = 1;
nodes = (
(300,-300,l),
(300,-400,l),
(200,-400,l),
(200,-300,l)
);
},
{
closed = 1;
nodes = (
(300,700,l),
(300,600,l),
(200,600,l),
(200,700,l)
);
},
{
closed = 1;
nodes = (
(300,600,l),
(400,600,l),
(400,500,l),
(300,500,l)
);
},
{
closed = 1;
nodes = (
(300,1000,l),
(400,1000,l),
(400,900,l),
(300,900,l)
);
},
{
closed = 1;
nodes = (
(300,900,l),
(300,800,l),
(200,800,l),
(200,900,l)
);
},
{
closed = 1;
nodes = (
(300,800,l),
(400,800,l),
(400,700,l),
(300,700,l)
);
},
{
closed = 1;
nodes = (
(600,200,l),
(600,100,l),
(500,100,l),
(500,200,l)
);
},
{
closed = 1;
nodes = (
(600,100,l),
(700,100,l),
(700,0,l),
(600,0,l)
);
},
{
closed = 1;
nodes = (
(600,0,l),
(600,-100,l),
(500,-100,l),
(500,0,l)
);
},
{
closed = 1;
nodes = (
(600,-100,l),
(700,-100,l),
(700,-200,l),
(600,-200,l)
);
},
{
closed = 1;
nodes = (
(600,-200,l),
(600,-300,l),
(500,-300,l),
(500,-200,l)
);
},
{
closed = 1;
nodes = (
(600,500,l),
(500,500,l),
(500,600,l),
(600,600,l)
);
},
{
closed = 1;
nodes = (
(600,400,l),
(600,500,l),
(700,500,l),
(700,400,l)
);
},
{
closed = 1;
nodes = (
(600,300,l),
(500,300,l),
(500,400,l),
(600,400,l)
);
},
{
closed = 1;
nodes = (
(600,-300,l),
(700,-300,l),
(700,-400,l),
(600,-400,l)
);
},
{
closed = 1;
nodes = (
(600,700,l),
(500,700,l),
(500,800,l),
(600,800,l)
);
},
{
closed = 1;
nodes = (
(600,600,l),
(600,700,l),
(700,700,l),
(700,600,l)
);
},
{
closed = 1;
nodes = (
(600,1000,l),
(600,900,l),
(500,900,l),
(500,1000,l)
);
},
{
closed = 1;
nodes = (
(600,900,l),
(700,900,l),
(700,800,l),
(600,800,l)
);
},
{
closed = 1;
nodes = (
(600,1200,l),
(600,1100,l),
(500,1100,l),
(500,1200,l)
);
},
{
closed = 1;
nodes = (
(600,1100,l),
(700,1100,l),
(700,1000,l),
(600,1000,l)
);
},
{
closed = 1;
nodes = (
(100,1100,l),
(100,1200,l),
(200,1200,l),
(200,1100,l)
);
},
{
closed = 1;
nodes = (
(100,200,l),
(200,200,l),
(200,100,l),
(100,100,l)
);
},
{
closed = 1;
nodes = (
(100,0,l),
(200,0,l),
(200,-100,l),
(100,-100,l)
);
},
{
closed = 1;
nodes = (
(100,-200,l),
(200,-200,l),
(200,-300,l),
(100,-300,l)
);
},
{
closed = 1;
nodes = (
(100,500,l),
(100,600,l),
(200,600,l),
(200,500,l)
);
},
{
closed = 1;
nodes = (
(100,400,l),
(200,400,l),
(200,300,l),
(100,300,l)
);
},
{
closed = 1;
nodes = (
(100,700,l),
(100,800,l),
(200,800,l),
(200,700,l)
);
},
{
closed = 1;
nodes = (
(100,1000,l),
(200,1000,l),
(200,900,l),
(100,900,l)
);
},
{
closed = 1;
nodes = (
(400,200,l),
(400,300,l),
(500,300,l),
(500,200,l)
);
},
{
closed = 1;
nodes = (
(400,100,l),
(500,100,l),
(500,0,l),
(400,0,l)
);
},
{
closed = 1;
nodes = (
(400,-100,l),
(500,-100,l),
(500,-200,l),
(400,-200,l)
);
},
{
closed = 1;
nodes = (
(400,500,l),
(500,500,l),
(500,400,l),
(400,400,l)
);
},
{
closed = 1;
nodes = (
(400,-300,l),
(500,-300,l),
(500,-400,l),
(400,-400,l)
);
},
{
closed = 1;
nodes = (
(400,700,l),
(500,700,l),
(500,600,l),
(400,600,l)
);
},
{
closed = 1;
nodes = (
(400,1000,l),
(400,1100,l),
(500,1100,l),
(500,1000,l)
);
},
{
closed = 1;
nodes = (
(400,900,l),
(500,900,l),
(500,800,l),
(400,800,l)
);
},
{
closed = 1;
nodes = (
(700,200,l),
(600,200,l),
(600,300,l),
(700,300,l)
);
},
{
closed = 1;
nodes = (
(200,1000,l),
(200,1100,l),
(300,1100,l),
(300,1000,l)
);
}
);
width = 900;
}
);
unicode = 9618;
},
{
glyphname = dkshade;
layers = (
{
layerId = "4ABAD10E-E2F0-4AE3-B256-BB359D6F81D7";
shapes = (
{
closed = 1;
nodes = (
(200,1122,o),
(222,1100,o),
(250,1100,cs),
(278,1100,o),
(300,1122,o),
(300,1150,cs),
(300,1178,o),
(278,1200,o),
(250,1200,cs),
(222,1200,o),
(200,1178,o),
(200,1150,cs)
);
},
{
closed = 1;
nodes = (
(0,1022,o),
(22,1000,o),
(50,1000,cs),
(78,1000,o),
(100,1022,o),
(100,1050,cs),
(100,1078,o),
(78,1100,o),
(50,1100,cs),
(22,1100,o),
(0,1078,o),
(0,1050,cs)
);
},
{
closed = 1;
nodes = (
(200,922,o),
(222,900,o),
(250,900,cs),
(278,900,o),
(300,922,o),
(300,950,cs),
(300,978,o),
(278,1000,o),
(250,1000,cs),
(222,1000,o),
(200,978,o),
(200,950,cs)
);
},
{
closed = 1;
nodes = (
(0,822,o),
(22,800,o),
(50,800,cs),
(78,800,o),
(100,822,o),
(100,850,cs),
(100,878,o),
(78,900,o),
(50,900,cs),
(22,900,o),
(0,878,o),
(0,850,cs)
);
},
{
closed = 1;
nodes = (
(600,1122,o),
(622,1100,o),
(650,1100,cs),
(678,1100,o),
(700,1122,o),
(700,1150,cs),
(700,1178,o),
(678,1200,o),
(650,1200,cs),
(622,1200,o),
(600,1178,o),
(600,1150,cs)
);
},
{
closed = 1;
nodes = (
(400,1022,o),
(422,1000,o),
(450,1000,cs),
(478,1000,o),
(500,1022,o),
(500,1050,cs),
(500,1078,o),
(478,1100,o),
(450,1100,cs),
(422,1100,o),
(400,1078,o),
(400,1050,cs)
);
},
{
closed = 1;
nodes = (
(600,922,o),
(622,900,o),
(650,900,cs),
(678,900,o),
(700,922,o),
(700,950,cs),
(700,978,o),
(678,1000,o),
(650,1000,cs),
(622,1000,o),
(600,978,o),
(600,950,cs)
);
},
{
closed = 1;
nodes = (
(400,822,o),
(422,800,o),
(450,800,cs),
(478,800,o),
(500,822,o),
(500,850,cs),
(500,878,o),
(478,900,o),
(450,900,cs),
(422,900,o),
(400,878,o),
(400,850,cs)
);
},
{
closed = 1;
nodes = (
(200,722,o),
(222,700,o),
(250,700,cs),
(278,700,o),
(300,722,o),
(300,750,cs),
(300,778,o),
(278,800,o),
(250,800,cs),
(222,800,o),
(200,778,o),
(200,750,cs)
);
},
{
closed = 1;
nodes = (
(0,622,o),
(22,600,o),
(50,600,cs),
(78,600,o),
(100,622,o),
(100,650,cs),
(100,678,o),
(78,700,o),
(50,700,cs),
(22,700,o),
(0,678,o),
(0,650,cs)
);
},
{
closed = 1;
nodes = (
(200,522,o),
(222,500,o),
(250,500,cs),
(278,500,o),
(300,522,o),
(300,550,cs),
(300,578,o),
(278,600,o),
(250,600,cs),
(222,600,o),
(200,578,o),
(200,550,cs)
);
},
{
closed = 1;
nodes = (
(0,422,o),
(22,400,o),
(50,400,cs),
(78,400,o),
(100,422,o),
(100,450,cs),
(100,478,o),
(78,500,o),
(50,500,cs),
(22,500,o),
(0,478,o),
(0,450,cs)
);
},
{
closed = 1;
nodes = (
(600,722,o),
(622,700,o),
(650,700,cs),
(678,700,o),
(700,722,o),
(700,750,cs),
(700,778,o),
(678,800,o),
(650,800,cs),
(622,800,o),
(600,778,o),
(600,750,cs)
);
},
{
closed = 1;
nodes = (
(400,622,o),
(422,600,o),
(450,600,cs),
(478,600,o),
(500,622,o),
(500,650,cs),
(500,678,o),
(478,700,o),
(450,700,cs),
(422,700,o),
(400,678,o),
(400,650,cs)
);
},
{
closed = 1;
nodes = (
(600,522,o),
(622,500,o),
(650,500,cs),
(678,500,o),
(700,522,o),
(700,550,cs),
(700,578,o),
(678,600,o),
(650,600,cs),
(622,600,o),
(600,578,o),
(600,550,cs)
);
},
{
closed = 1;
nodes = (
(400,422,o),
(422,400,o),
(450,400,cs),
(478,400,o),
(500,422,o),
(500,450,cs),
(500,478,o),
(478,500,o),
(450,500,cs),
(422,500,o),
(400,478,o),
(400,450,cs)
);
},
{
closed = 1;
nodes = (
(200,322,o),
(222,300,o),
(250,300,cs),
(278,300,o),
(300,322,o),
(300,350,cs),
(300,378,o),
(278,400,o),
(250,400,cs),
(222,400,o),
(200,378,o),
(200,350,cs)
);
},
{
closed = 1;
nodes = (
(0,222,o),
(22,200,o),
(50,200,cs),
(78,200,o),
(100,222,o),
(100,250,cs),
(100,278,o),
(78,300,o),
(50,300,cs),
(22,300,o),
(0,278,o),
(0,250,cs)
);
},
{
closed = 1;
nodes = (
(200,122,o),
(222,100,o),
(250,100,cs),
(278,100,o),
(300,122,o),
(300,150,cs),
(300,178,o),
(278,200,o),
(250,200,cs),
(222,200,o),
(200,178,o),
(200,150,cs)
);
},
{
closed = 1;
nodes = (
(0,22,o),
(22,0,o),
(50,0,cs),
(78,0,o),
(100,22,o),
(100,50,cs),
(100,78,o),
(78,100,o),
(50,100,cs),
(22,100,o),
(0,78,o),
(0,50,cs)
);
},
{
closed = 1;
nodes = (
(600,322,o),
(622,300,o),
(650,300,cs),
(678,300,o),
(700,322,o),
(700,350,cs),
(700,378,o),
(678,400,o),
(650,400,cs),
(622,400,o),
(600,378,o),
(600,350,cs)
);
},
{
closed = 1;
nodes = (
(400,222,o),
(422,200,o),
(450,200,cs),
(478,200,o),
(500,222,o),
(500,250,cs),
(500,278,o),
(478,300,o),
(450,300,cs),
(422,300,o),
(400,278,o),
(400,250,cs)
);
},
{
closed = 1;
nodes = (
(600,122,o),
(622,100,o),
(650,100,cs),
(678,100,o),
(700,122,o),
(700,150,cs),
(700,178,o),
(678,200,o),
(650,200,cs),
(622,200,o),
(600,178,o),
(600,150,cs)
);
},
{
closed = 1;
nodes = (
(400,22,o),
(422,0,o),
(450,0,cs),
(478,0,o),
(500,22,o),
(500,50,cs),
(500,78,o),
(478,100,o),
(450,100,cs),
(422,100,o),
(400,78,o),
(400,50,cs)
);
},
{
closed = 1;
nodes = (
(200,-78,o),
(222,-100,o),
(250,-100,cs),
(278,-100,o),
(300,-78,o),
(300,-50,cs),
(300,-22,o),
(278,0,o),
(250,0,cs),
(222,0,o),
(200,-22,o),
(200,-50,cs)
);
},
{
closed = 1;
nodes = (
(0,-178,o),
(22,-200,o),
(50,-200,cs),
(78,-200,o),
(100,-178,o),
(100,-150,cs),
(100,-122,o),
(78,-100,o),
(50,-100,cs),
(22,-100,o),
(0,-122,o),
(0,-150,cs)
);
},
{
closed = 1;
nodes = (
(200,-278,o),
(222,-300,o),
(250,-300,cs),
(278,-300,o),
(300,-278,o),
(300,-250,cs),
(300,-222,o),
(278,-200,o),
(250,-200,cs),
(222,-200,o),
(200,-222,o),
(200,-250,cs)
);
},
{
closed = 1;
nodes = (
(0,-378,o),
(22,-400,o),
(50,-400,cs),
(78,-400,o),
(100,-378,o),
(100,-350,cs),
(100,-322,o),
(78,-300,o),
(50,-300,cs),
(22,-300,o),
(0,-322,o),
(0,-350,cs)
);
},
{
closed = 1;
nodes = (
(600,-78,o),
(622,-100,o),
(650,-100,cs),
(678,-100,o),
(700,-78,o),
(700,-50,cs),
(700,-22,o),
(678,0,o),
(650,0,cs),
(622,0,o),
(600,-22,o),
(600,-50,cs)
);
},
{
closed = 1;
nodes = (
(400,-178,o),
(422,-200,o),
(450,-200,cs),
(478,-200,o),
(500,-178,o),
(500,-150,cs),
(500,-122,o),
(478,-100,o),
(450,-100,cs),
(422,-100,o),
(400,-122,o),
(400,-150,cs)
);
},
{
closed = 1;
nodes = (
(600,-278,o),
(622,-300,o),
(650,-300,cs),
(678,-300,o),
(700,-278,o),
(700,-250,cs),
(700,-222,o),
(678,-200,o),
(650,-200,cs),
(622,-200,o),
(600,-222,o),
(600,-250,cs)
);
},
{
closed = 1;
nodes = (
(400,-378,o),
(422,-400,o),
(450,-400,cs),
(478,-400,o),
(500,-378,o),
(500,-350,cs),
(500,-322,o),
(478,-300,o),
(450,-300,cs),
(422,-300,o),
(400,-322,o),
(400,-350,cs)
);
},
{
closed = 1;
nodes = (
(0,-400,l),
(0,1200,l),
(800,1200,l),
(800,-400,l)
);
}
);
width = 900;
}
);
unicode = 9619;
},
{
glyphname = filledbox;
layers = (
{
layerId = "4ABAD10E-E2F0-4AE3-B256-BB359D6F81D7";
shapes = (
{
closed = 1;
nodes = (
(100,100,l),
(600,100,l),
(600,800,l),
(100,800,l)
);
}
);
width = 900;
}
);
unicode = 9632;
},
{
glyphname = filledrect;
layers = (
{
layerId = "4ABAD10E-E2F0-4AE3-B256-BB359D6F81D7";
shapes = (
{
closed = 1;
nodes = (
(0,0,l),
(700,0,l),
(700,400,l),
(0,400,l)
);
}
);
width = 900;
}
);
unicode = 9644;
},
{
glyphname = triagup;
layers = (
{
layerId = "4ABAD10E-E2F0-4AE3-B256-BB359D6F81D7";
shapes = (
{
closed = 1;
nodes = (
(-25,100,l),
(350,825,l),
(725,100,l)
);
}
);
width = 900;
}
);
unicode = 9650;
},
{
glyphname = triagrt;
layers = (
{
layerId = "4ABAD10E-E2F0-4AE3-B256-BB359D6F81D7";
shapes = (
{
closed = 1;
nodes = (
(0,-25,l),
(725,550,l),
(0,1125,l)
);
}
);
width = 900;
}
);
unicode = 9658;
},
{
glyphname = triagdn;
layers = (
{
layerId = "4ABAD10E-E2F0-4AE3-B256-BB359D6F81D7";
shapes = (
{
closed = 1;
nodes = (
(-25,800,l),
(725,800,l),
(350,75,l)
);
}
);
width = 900;
}
);
unicode = 9660;
},
{
glyphname = triaglf;
layers = (
{
layerId = "4ABAD10E-E2F0-4AE3-B256-BB359D6F81D7";
shapes = (
{
closed = 1;
nodes = (
(700,-25,l),
(700,1125,l),
(-25,550,l)
);
}
);
width = 900;
}
);
unicode = 9668;
},
{
glyphname = circle;
layers = (
{
layerId = "4ABAD10E-E2F0-4AE3-B256-BB359D6F81D7";
shapes = (
{
closed = 1;
nodes = (
(75,221,o),
(221,75,o),
(400,75,cs),
(579,75,o),
(725,221,o),
(725,400,cs),
(725,579,o),
(579,725,o),
(400,725,cs),
(221,725,o),
(75,579,o),
(75,400,cs)
);
},
{
closed = 1;
nodes = (
(175,524,o),
(276,625,o),
(400,625,cs),
(524,625,o),
(625,524,o),
(625,400,cs),
(625,276,o),
(524,175,o),
(400,175,cs),
(276,175,o),
(175,276,o),
(175,400,cs)
);
}
);
width = 900;
}
);
unicode = 9675;
},
{
glyphname = invbullet;
layers = (
{
layerId = "4ABAD10E-E2F0-4AE3-B256-BB359D6F81D7";
shapes = (
{
closed = 1;
nodes = (
(175,524,o),
(276,625,o),
(400,625,cs),
(524,625,o),
(625,524,o),
(625,400,cs),
(625,276,o),
(524,175,o),
(400,175,cs),
(276,175,o),
(175,276,o),
(175,400,cs)
);
},
{
closed = 1;
nodes = (
(0,-400,l),
(800,-400,l),
(800,1200,l),
(0,1200,l)
);
}
);
width = 900;
}
);
unicode = 9688;
},
{
glyphname = invcircle;
layers = (
{
layerId = "4ABAD10E-E2F0-4AE3-B256-BB359D6F81D7";
shapes = (
{
closed = 1;
nodes = (
(0,-400,l),
(800,-400,l),
(800,1200,l),
(0,1200,l)
);
},
{
closed = 1;
nodes = (
(75,579,o),
(221,725,o),
(400,725,cs),
(579,725,o),
(725,579,o),
(725,400,cs),
(725,221,o),
(579,75,o),
(400,75,cs),
(221,75,o),
(75,221,o),
(75,400,cs)
);
},
{
closed = 1;
nodes = (
(175,276,o),
(276,175,o),
(400,175,cs),
(524,175,o),
(625,276,o),
(625,400,cs),
(625,524,o),
(524,625,o),
(400,625,cs),
(276,625,o),
(175,524,o),
(175,400,cs)
);
}
);
width = 900;
}
);
unicode = 9689;
},
{
glyphname = smileface;
layers = (
{
layerId = "4ABAD10E-E2F0-4AE3-B256-BB359D6F81D7";
shapes = (
{
closed = 1;
nodes = (
(-25,113,o),
(83,-25,o),
(388,-25,cs),
(692,-25,o),
(800,114,o),
(800,500,cs),
(800,887,o),
(692,1025,o),
(388,1025,cs),
(83,1025,o),
(-25,888,o),
(-25,500,cs)
);
},
{
closed = 1;
nodes = (
(190,796,o),
(216,825,o),
(253,825,cs),
(289,825,o),
(315,796,o),
(315,758,cs),
(315,719,o),
(289,690,o),
(253,690,cs),
(216,690,o),
(190,719,o),
(190,758,cs)
);
},
{
closed = 1;
nodes = (
(485,796,o),
(511,825,o),
(548,825,cs),
(584,825,o),
(610,796,o),
(610,758,cs),
(610,719,o),
(584,690,o),
(548,690,cs),
(511,690,o),
(485,719,o),
(485,758,cs)
);
},
{
closed = 1;
nodes = (
(333,505,o),
(469,506,o),
(600,525,c),
(600,393,o),
(518,300,o),
(400,300,cs),
(278,300,o),
(200,388,o),
(200,525,c)
);
},
{
closed = 1;
nodes = (
(65,833,o),
(149,951,o),
(388,951,cs),
(626,951,o),
(710,833,o),
(710,500,cs),
(710,168,o),
(626,49,o),
(388,49,cs),
(149,49,o),
(65,167,o),
(65,500,cs)
);
}
);
width = 900;
}
);
unicode = 9786;
},
{
glyphname = invsmileface;
layers = (
{
layerId = "4ABAD10E-E2F0-4AE3-B256-BB359D6F81D7";
shapes = (
{
closed = 1;
nodes = (
(-25,113,o),
(83,-25,o),
(388,-25,cs),
(692,-25,o),
(800,114,o),
(800,500,cs),
(800,887,o),
(692,1025,o),
(388,1025,cs),
(83,1025,o),
(-25,888,o),
(-25,500,cs)
);
},
{
closed = 1;
nodes = (
(190,796,o),
(216,825,o),
(253,825,cs),
(289,825,o),
(315,796,o),
(315,758,cs),
(315,719,o),
(289,690,o),
(253,690,cs),
(216,690,o),
(190,719,o),
(190,758,cs)
);
},
{
closed = 1;
nodes = (
(485,796,o),
(511,825,o),
(548,825,cs),
(584,825,o),
(610,796,o),
(610,758,cs),
(610,719,o),
(584,690,o),
(548,690,cs),
(511,690,o),
(485,719,o),
(485,758,cs)
);
},
{
closed = 1;
nodes = (
(333,505,o),
(469,506,o),
(600,525,c),
(600,393,o),
(518,300,o),
(400,300,cs),
(278,300,o),
(200,388,o),
(200,525,c)
);
}
);
width = 900;
}
);
unicode = 9787;
},
{
glyphname = sun;
layers = (
{
layerId = "4ABAD10E-E2F0-4AE3-B256-BB359D6F81D7";
shapes = (
{
closed = 1;
nodes = (
(350,25,l),
(450,25,l),
(450,205,l),
(482,212,o),
(511,224,o),
(538,241,c),
(647,132,l),
(718,203,l),
(608,313,l),
(626,339,o),
(638,368,o),
(645,400,c),
(800,400,l),
(800,500,l),
(645,500,l),
(639,532,o),
(626,561,o),
(609,588,c),
(718,697,l),
(647,768,l),
(538,659,l),
(511,676,o),
(482,689,o),
(450,695,c),
(450,875,l),
(350,875,l),
(350,695,l),
(318,689,o),
(289,676,o),
(262,659,c),
(153,768,l),
(82,697,l),
(191,588,l),
(174,561,o),
(162,532,o),
(155,500,c),
(0,500,l),
(0,400,l),
(155,400,l),
(162,368,o),
(174,339,o),
(192,313,c),
(82,203,l),
(153,132,l),
(262,241,l),
(289,224,o),
(318,212,o),
(350,205,c)
);
},
{
closed = 1;
nodes = (
(250,532,o),
(318,600,o),
(400,600,cs),
(483,600,o),
(550,532,o),
(550,450,cs),
(550,367,o),
(483,300,o),
(400,300,cs),
(318,300,o),
(250,367,o),
(250,450,cs)
);
}
);
width = 900;
}
);
unicode = 9788;
},
{
glyphname = female;
layers = (
{
layerId = "4ABAD10E-E2F0-4AE3-B256-BB359D6F81D7";
shapes = (
{
closed = 1;
nodes = (
(75,529,o),
(206,400,o),
(400,400,cs),
(592,400,o),
(725,528,o),
(725,714,cs),
(725,901,o),
(596,1025,o),
(400,1025,cs),
(206,1025,o),
(75,899,o),
(75,714,cs)
);
},
{
closed = 1;
nodes = (
(180,841,o),
(267,925,o),
(400,925,cs),
(529,925,o),
(620,842,o),
(620,715,cs),
(620,588,o),
(528,500,o),
(400,500,cs),
(268,500,o),
(180,586,o),
(180,714,cs)
);
},
{
closed = 1;
nodes = (
(350,0,l),
(450,0,l),
(450,450,l),
(350,450,l)
);
},
{
closed = 1;
nodes = (
(100,200,l),
(700,200,l),
(700,300,l),
(100,300,l)
);
}
);
width = 900;
}
);
unicode = 9792;
},
{
glyphname = male;
layers = (
{
layerId = "4ABAD10E-E2F0-4AE3-B256-BB359D6F81D7";
shapes = (
{
closed = 1;
nodes = (
(370,1000,l),
(370,900,l),
(670,900,l),
(670,600,l),
(770,600,l),
(770,1000,l)
);
},
{
closed = 1;
nodes = (
(-25,119,o),
(102,-10,o),
(290,-10,cs),
(476,-10,o),
(605,118,o),
(605,304,cs),
(605,491,o),
(480,615,o),
(290,615,cs),
(102,615,o),
(-25,489,o),
(-25,304,cs)
);
},
{
closed = 1;
nodes = (
(80,431,o),
(163,515,o),
(290,515,cs),
(413,515,o),
(500,432,o),
(500,305,cs),
(500,178,o),
(412,90,o),
(290,90,cs),
(164,90,o),
(80,176,o),
(80,304,cs)
);
},
{
closed = 1;
nodes = (
(661,975,l),
(291,605,l),
(366,530,l),
(736,900,l)
);
}
);
width = 900;
}
);
unicode = 9794;
},
{
glyphname = spade;
layers = (
{
layerId = "4ABAD10E-E2F0-4AE3-B256-BB359D6F81D7";
shapes = (
{
closed = 1;
nodes = (
(237,790,o),
(0,672,o),
(0,500,cs),
(0,370,o),
(95,275,o),
(225,275,cs),
(296,275,o),
(362,322,o),
(400,375,c),
(438,322,o),
(504,275,o),
(575,275,cs),
(705,275,o),
(800,370,o),
(800,500,cs),
(800,672,o),
(563,790,o),
(400,925,c)
);
},
{
closed = 1;
nodes = (
(300,522,l),
(300,125,ls),
(300,111,o),
(290,100,o),
(275,100,cs),
(200,100,l),
(200,0,l),
(600,0,l),
(600,100,l),
(525,100,ls),
(511,100,o),
(500,111,o),
(500,125,cs),
(500,522,l)
);
}
);
width = 900;
}
);
unicode = 9824;
},
{
glyphname = club;
layers = (
{
layerId = "4ABAD10E-E2F0-4AE3-B256-BB359D6F81D7";
shapes = (
{
closed = 1;
nodes = (
(300,722,l),
(300,125,ls),
(300,111,o),
(290,100,o),
(275,100,cs),
(200,100,l),
(200,0,l),
(600,0,l),
(600,100,l),
(525,100,ls),
(511,100,o),
(500,111,o),
(500,125,cs),
(500,722,l)
);
},
{
closed = 1;
nodes = (
(0,347,o),
(84,263,o),
(188,263,cs),
(291,263,o),
(375,347,o),
(375,450,cs),
(375,553,o),
(291,637,o),
(188,637,cs),
(84,637,o),
(0,553,o),
(0,450,cs)
);
},
{
closed = 1;
nodes = (
(425,347,o),
(509,263,o),
(613,263,cs),
(716,263,o),
(800,347,o),
(800,450,cs),
(800,553,o),
(716,637,o),
(613,637,cs),
(509,637,o),
(425,553,o),
(425,450,cs)
);
},
{
closed = 1;
nodes = (
(213,609,o),
(298,525,o),
(401,525,cs),
(503,525,o),
(588,609,o),
(588,713,cs),
(588,816,o),
(503,900,o),
(401,900,cs),
(298,900,o),
(213,816,o),
(213,713,cs)
);
}
);
width = 900;
}
);
unicode = 9827;
},
{
glyphname = heart;
layers = (
{
layerId = "4ABAD10E-E2F0-4AE3-B256-BB359D6F81D7";
shapes = (
{
closed = 1;
nodes = (
(503,230,o),
(725,345,o),
(725,560,cs),
(725,722,o),
(636,800,o),
(514,800,cs),
(448,800,o),
(385,742,o),
(350,677,c),
(315,742,o),
(252,800,o),
(186,800,cs),
(64,800,o),
(-25,722,o),
(-25,560,cs),
(-25,345,o),
(197,230,o),
(350,-10,c)
);
}
);
width = 900;
}
);
unicode = 9829;
},
{
glyphname = diamond;
layers = (
{
layerId = "4ABAD10E-E2F0-4AE3-B256-BB359D6F81D7";
shapes = (
{
closed = 1;
nodes = (
(0,450,l),
(350,875,l),
(700,450,l),
(350,25,l)
);
}
);
width = 900;
}
);
unicode = 9830;
},
{
glyphname = musicalnote;
layers = (
{
layerId = "4ABAD10E-E2F0-4AE3-B256-BB359D6F81D7";
shapes = (
{
closed = 1;
nodes = (
(-25,8,o),
(70,-58,o),
(188,-33,cs),
(305,-9,o),
(400,96,o),
(400,200,cs),
(400,303,o),
(305,368,o),
(188,344,cs),
(70,319,o),
(-25,215,o),
(-25,112,cs)
);
},
{
closed = 1;
nodes = (
(200,201,l),
(400,201,l),
(400,1000,l),
(200,1000,l)
);
},
{
closed = 1;
nodes = (
(300,900,l),
(800,900,l),
(800,1000,l),
(300,1000,l)
);
},
{
closed = 1;
nodes = (
(300,700,l),
(800,700,l),
(800,800,l),
(300,800,l)
);
}
);
width = 900;
}
);
unicode = 9834;
},
{
glyphname = musicalnotedbl;
layers = (
{
layerId = "4ABAD10E-E2F0-4AE3-B256-BB359D6F81D7";
shapes = (
{
closed = 1;
nodes = (
(0,-23,o),
(79,-99,o),
(176,-70,cs),
(271,-42,o),
(350,79,o),
(350,200,cs),
(350,319,o),
(271,394,o),
(176,366,cs),
(79,337,o),
(0,217,o),
(0,98,cs)
);
},
{
closed = 1;
nodes = (
(250,900,l),
(700,900,l),
(700,1000,l),
(250,1000,l)
);
},
{
closed = 1;
nodes = (
(250,700,l),
(700,700,l),
(700,800,l),
(250,800,l)
);
},
{
closed = 1;
nodes = (
(150,201,l),
(350,201,l),
(350,1000,l),
(150,1000,l)
);
},
{
closed = 1;
nodes = (
(450,52,o),
(529,-24,o),
(626,5,cs),
(721,33,o),
(800,154,o),
(800,275,cs),
(800,394,o),
(721,469,o),
(626,441,cs),
(529,412,o),
(450,292,o),
(450,173,cs)
);
},
{
closed = 1;
nodes = (
(600,276,l),
(800,276,l),
(800,1000,l),
(600,1000,l)
);
}
);
width = 900;
}
);
unicode = 9835;
},
{
glyphname = A.ss01;
layers = (
{
layerId = "4ABAD10E-E2F0-4AE3-B256-BB359D6F81D7";
shapes = (
{
closed = 1;
nodes = (
(125,250,l),
(550,250,l),
(550,350,l),
(125,350,l)
);
},
{
closed = 1;
nodes = (
(525,0,l),
(725,0,l),
(435,1000,l),
(281,1000,l),
(261,926,l)
);
},
{
closed = 1;
nodes = (
(79,0,l),
(369,1000,l),
(265,1000,l),
(-25,0,l)
);
}
);
width = 900;
}
);
},
{
glyphname = M.ss01;
layers = (
{
layerId = "4ABAD10E-E2F0-4AE3-B256-BB359D6F81D7";
shapes = (
{
closed = 1;
nodes = (
(600,1000,l),
(601,0,l),
(800,0,l),
(800,1000,l)
);
},
{
closed = 1;
nodes = (
(0,0,l),
(100,0,l),
(100,1000,l),
(0,1000,l)
);
},
{
closed = 1;
nodes = (
(51,1000,l),
(44,892,l),
(341,219,l),
(423,517,l),
(215,1000,l)
);
},
{
closed = 1;
nodes = (
(707,1000,l),
(599,1000,l),
(370,504,l),
(341,219,l)
);
}
);
width = 900;
}
);
},
{
glyphname = N.ss01;
layers = (
{
layerId = "4ABAD10E-E2F0-4AE3-B256-BB359D6F81D7";
shapes = (
{
closed = 1;
nodes = (
(585,0,l),
(700,0,l),
(700,1000,l),
(600,1000,l),
(600,351,l),
(175,1000,l),
(0,1000,l),
(0,0,l),
(100,0,l),
(100,740,l)
);
}
);
width = 900;
}
);
},
{
glyphname = V.ss01;
layers = (
{
layerId = "4ABAD10E-E2F0-4AE3-B256-BB359D6F81D7";
shapes = (
{
closed = 1;
nodes = (
(175,1000,l),
(-25,1000,l),
(280,0,l),
(405,0,l),
(439,124,l)
);
},
{
closed = 1;
nodes = (
(621,1000,l),
(316,0,l),
(420,0,l),
(725,1000,l)
);
}
);
width = 900;
}
);
},
{
glyphname = W.ss01;
layers = (
{
layerId = "4ABAD10E-E2F0-4AE3-B256-BB359D6F81D7";
shapes = (
{
closed = 1;
nodes = (
(480,1000,l),
(430,1000,l),
(382,621,l),
(507,0,l),
(608,0,l),
(641,124,l)
);
},
{
closed = 1;
nodes = (
(721,1000,l),
(521,0,l),
(622,0,l),
(822,1000,l)
);
},
{
closed = 1;
nodes = (
(170,1000,l),
(-25,1000,l),
(176,0,l),
(298,0,l),
(331,124,l)
);
},
{
closed = 1;
nodes = (
(411,1000,l),
(210,0,l),
(312,0,l),
(472,797,l),
(438,1000,l)
);
}
);
width = 900;
}
);
},
{
glyphname = X.ss01;
layers = (
{
layerId = "4ABAD10E-E2F0-4AE3-B256-BB359D6F81D7";
shapes = (
{
closed = 1;
nodes = (
(93,0,l),
(720,1000,l),
(598,1000,l),
(-19,0,l)
);
},
{
closed = 1;
nodes = (
(527,0,l),
(750,0,l),
(234,1000,l),
(11,1000,l)
);
}
);
width = 900;
}
);
},
{
glyphname = Y.ss01;
layers = (
{
layerId = "4ABAD10E-E2F0-4AE3-B256-BB359D6F81D7";
shapes = (
{
closed = 1;
nodes = (
(250,550,l),
(250,125,ls),
(250,111,o),
(240,100,o),
(225,100,cs),
(150,100,l),
(150,0,l),
(550,0,l),
(550,100,l),
(475,100,ls),
(461,100,o),
(450,111,o),
(450,125,cs),
(450,550,l)
);
},
{
closed = 1;
nodes = (
(198,1000,l),
(-25,1000,l),
(280,362,l),
(405,362,l),
(436,496,l)
);
},
{
closed = 1;
nodes = (
(616,1000,l),
(311,362,l),
(420,362,l),
(725,1000,l)
);
}
);
width = 900;
}
);
},
{
glyphname = v.ss01;
layers = (
{
layerId = "4ABAD10E-E2F0-4AE3-B256-BB359D6F81D7";
shapes = (
{
closed = 1;
nodes = (
(193,700,l),
(-25,700,l),
(280,0,l),
(405,0,l),
(439,129,l)
);
},
{
closed = 1;
nodes = (
(614,700,l),
(309,0,l),
(420,0,l),
(725,700,l)
);
}
);
width = 900;
}
);
},
{
glyphname = w.ss01;
layers = (
{
layerId = "4ABAD10E-E2F0-4AE3-B256-BB359D6F81D7";
shapes = (
{
closed = 1;
nodes = (
(500,700,l),
(430,700,l),
(366,435,l),
(491,0,l),
(608,0,l),
(643,154,l)
);
},
{
closed = 1;
nodes = (
(718,700,l),
(518,0,l),
(622,0,l),
(822,700,l)
);
},
{
closed = 1;
nodes = (
(185,700,l),
(-25,700,l),
(176,0,l),
(298,0,l),
(334,131,l)
);
},
{
closed = 1;
nodes = (
(407,700,l),
(206,0,l),
(312,0,l),
(472,558,l),
(438,700,l)
);
}
);
width = 900;
}
);
},
{
glyphname = two.ss02;
layers = (
{
layerId = "4ABAD10E-E2F0-4AE3-B256-BB359D6F81D7";
shapes = (
{
closed = 1;
nodes = (
(0,70,l),
(-1,0,l),
(700,0,l),
(700,175,l),
(125,175,l)
);
},
{
closed = 1;
nodes = (
(134,135,l),
(134,370,o),
(681,450,o),
(681,786,cs),
(681,946,o),
(557,1025,o),
(359,1025,cs),
(132,1025,o),
(0,922,o),
(-1,750,c),
(200,750,l),
(200,864,o),
(256,925,o),
(348,925,cs),
(432,925,o),
(481,874,o),
(481,791,cs),
(481,532,o),
(1,481,o),
(1,70,c)
);
}
);
width = 900;
}
);
},
{
glyphname = five.ss02;
layers = (
{
layerId = "4ABAD10E-E2F0-4AE3-B256-BB359D6F81D7";
shapes = (
{
closed = 1;
nodes = (
(50,460,l),
(120,460,l),
(150,535,l),
(150,1000,l),
(50,1000,l)
);
},
{
closed = 1;
nodes = (
(150,825,l),
(700,825,l),
(700,1000,l),
(150,1000,l)
);
},
{
closed = 1;
nodes = (
(120,460,l),
(120,460,o),
(199,548,o),
(324,548,cs),
(452,548,o),
(512,456,o),
(512,303,cs),
(512,152,o),
(453,75,o),
(343,75,cs),
(252,75,o),
(199,127,o),
(186,230,c),
(-14,230,l),
(12,66,o),
(138,-25,o),
(344,-25,cs),
(580,-25,o),
(712,94,o),
(712,291,cs),
(712,499,o),
(565,644,o),
(351,644,cs),
(207,644,o),
(129,579,o),
(90,524,c)
);
}
);
width = 900;
}
);
},
{
glyphname = seven.ss02;
layers = (
{
layerId = "4ABAD10E-E2F0-4AE3-B256-BB359D6F81D7";
shapes = (
{
closed = 1;
nodes = (
(200,0,l),
(400,0,l),
(400,25,ls),
(400,363,o),
(490,567,o),
(700,825,c),
(700,875,l),
(615,875,l),
(615,865,l),
(405,643,o),
(200,399,o),
(200,18,cs)
);
},
{
closed = 1;
nodes = (
(700,825,l),
(700,1000,l),
(0,1000,l),
(0,825,l)
);
}
